<svg xmlns="http://www.w3.org/2000/svg" viewBox="0 0 552 341.272">
    <defs>
        <style>
            .cls-1{fill:url(#radial-gradient)}.cls-2,.cls-3{stroke:none}.cls-3{fill:#c7d1e8}.cls-4{filter:url(#Path_180)}
        </style>
        <radialGradient id="radial-gradient" cx=".5" cy=".5" r=".5">
            <stop offset="0" stop-color="#38528e"/>
            <stop offset="1" stop-color="#071a48"/>
        </radialGradient>
        <filter id="Path_180" width="552" height="341.272" x="0" y="0" filterUnits="userSpaceOnUse">
            <feOffset dy="2"/>
            <feGaussianBlur result="blur" stdDeviation="8"/>
            <feFlood flood-opacity=".624"/>
            <feComposite in2="blur" operator="in"/>
            <feComposite in="SourceGraphic"/>
        </filter>
    </defs>
    <g class="cls-4">
        <g id="Path_180-2" class="cls-1" data-name="Path 180">
            <path d="M-7266.792-1688.336h-.058c-7.103 0-123.048-.313-235.177-.615-110.454-.298-224.67-.606-231.563-.606-6.878 0-10.454-.866-12.343-2.989-2.014-2.265-2.3-6.203-2.484-11.52-.417-12.046-3.951-219.896-4.037-230.601-.016-2.056.164-3.712.553-5.065.355-1.238.878-2.193 1.599-2.92 1.891-1.907 5.02-2.058 8.914-2.058l1.196.003a78308.386 78308.386 0 0 1 42.742.05c18.95.022 38.545.047 42.943.047 4.063 0 7.084-.226 9.591-1.35 2.445-1.095 4.345-3.04 6.618-5.825 3.06-3.747 6.8-9.027 10.419-14.133 2.024-2.858 3.937-5.556 5.62-7.83 2.22-3 4.628-4.763 7.808-5.72 3.156-.95 7.112-1.14 12.473-1.14 5.494 0 57.185.024 107.173.049 48.842.023 94.975.046 99.77.046 5.558 0 9.534.696 12.513 2.192 2.62 1.316 4.229 3.114 6.06 5.328 1.456 1.762 4.731 6.18 12.057 17.22l.368.553.012.017.012.016c.41.512.83 1.15 1.275 1.827 1.18 1.792 2.648 4.022 5.114 5.795 2.89 2.077 6.516 3.087 11.085 3.087 6.206 0 26.337-.027 45.805-.054 18.637-.025 36.241-.048 41.438-.048 3.71 0 6.235.725 7.724 2.215 2.13 2.133 2.124 5.798 2.117 10.041l-.001.74c0 3.546-.892 52.659-1.836 104.656-1.097 60.466-2.232 122.992-2.217 127.421.016 4.435-.277 6.988-1.92 8.638-1.767 1.774-5.165 2.531-11.363 2.533z" class="cls-2" transform="translate(7776.96 2003.11)"/>
            <path d="M-7266.792-1688.836c5.971-.002 9.367-.738 11.008-2.386 1.52-1.525 1.79-3.986 1.775-8.283-.015-4.435 1.12-66.963 2.217-127.433.944-51.994 1.836-101.104 1.836-104.646v-.74c.007-4.133.013-7.701-1.97-9.687-1.39-1.393-3.8-2.07-7.37-2.07-5.197 0-22.8.024-41.437.05-19.469.026-39.6.053-45.806.053-10.623 0-14.23-5.481-16.616-9.108-.439-.666-.853-1.295-1.248-1.788l-.026-.033-.024-.035-.369-.555c-7.314-11.021-10.577-15.424-12.026-17.177-1.793-2.168-3.365-3.928-5.9-5.2-2.905-1.46-6.81-2.14-12.288-2.14-4.794 0-50.927-.022-99.769-.045-49.988-.025-101.679-.05-107.173-.05-5.315 0-9.231.187-12.33 1.12-3.11.936-5.37 2.592-7.55 5.538-1.68 2.27-3.59 4.967-5.614 7.822-3.622 5.113-7.369 10.4-10.439 14.16-2.318 2.841-4.265 4.83-6.8 5.966-2.589 1.16-5.667 1.393-9.796 1.393-4.399 0-23.994-.025-42.944-.048a78314.354 78314.354 0 0 0-42.743-.05l-1.194-.002c-3.776 0-6.803.14-8.56 1.91-1.38 1.391-2.035 3.887-2.006 7.628.086 10.706 3.62 218.544 4.037 230.588.1 2.897.24 5.208.595 7.072.357 1.87.917 3.183 1.763 4.134 1.782 2.004 5.25 2.821 11.97 2.821 6.893 0 121.108.308 231.563.606 112.129.302 228.074.615 235.176.615h.058m-.058 1c-14.135 0-452.885-1.22-466.74-1.22-13.875 0-14.927-3.421-15.327-14.993-.4-11.572-3.947-219.436-4.037-230.614-.08-10.033 4.58-10.547 11.566-10.547.798 0 1.626.006 2.481.006 8.34 0 75.697.094 84.4.094 8.704 0 11.055-1.151 15.822-6.99 4.767-5.84 11.346-15.626 16.024-21.946 4.677-6.32 9.938-7.063 20.683-7.063s197.132.096 206.942.096c12.229 0 15.42 3.42 18.958 7.701 3.54 4.281 11.812 16.854 12.456 17.813 2.593 3.24 5.028 10.52 17.083 10.52 12.054 0 76.532-.101 87.243-.101 10.711 0 10.34 5.892 10.34 13.496s-4.082 223.777-4.053 232.075c.03 8.3-.825 11.67-13.783 11.673h-.058z" class="cls-3" transform="translate(7776.96 2003.11)"/>
        </g>
    </g>
</svg>
