<svg xmlns="http://www.w3.org/2000/svg" xmlns:xlink="http://www.w3.org/1999/xlink" viewBox="0 0 191.018 65.805">
    <defs>
        <style>
            .cls-1{fill:gray}.cls-2{fill:#fff}.cls-3{fill:url(#radial-gradient)}.cls-4{fill:#f2f2f2}.cls-5{fill:url(#radial-gradient-2)}.cls-6{fill:#282828}.cls-7{fill:#4d4d4d}.cls-8{fill:#8fc30d}.cls-9{fill:#b0d850}.cls-10{fill:#666}.cls-11{fill:url(#radial-gradient-3)}.cls-12{fill:url(#radial-gradient-4)}.cls-13{fill:url(#radial-gradient-5)}.cls-14{fill:url(#radial-gradient-6)}.cls-15{fill:url(#radial-gradient-7)}.cls-16{fill:url(#radial-gradient-8)}.cls-17{fill:url(#radial-gradient-9)}.cls-18{fill:url(#radial-gradient-10)}.cls-19{fill:url(#radial-gradient-11)}.cls-20{fill:url(#radial-gradient-12)}
        </style>
        <radialGradient id="radial-gradient" cx="31.965" cy="65.26" r="22.509" gradientTransform="translate(-16.497 -9.114) scale(1.516)" gradientUnits="userSpaceOnUse">
            <stop offset="0" stop-color="#e6e6e6"/>
            <stop offset="1" stop-color="#ccc"/>
        </radialGradient>
        <radialGradient id="radial-gradient-2" cx="36.978" cy="25.35" r="64.086" gradientTransform="matrix(.527 0 0 .527 15.941 12.002)" gradientUnits="userSpaceOnUse">
            <stop offset="0" stop-color="#fff"/>
            <stop offset="1" stop-color="#e6e6e6"/>
        </radialGradient>
        <radialGradient id="radial-gradient-3" cx="273.182" cy="84.99" r="73.789" gradientTransform="translate(-7.422 4.138) scale(1.139)" xlink:href="#radial-gradient-2"/>
        <radialGradient id="radial-gradient-4" cx="451.676" cy="25.646" r="85.415" gradientTransform="matrix(.984 0 0 .984 -.61 .013)" xlink:href="#radial-gradient-2"/>
        <radialGradient id="radial-gradient-5" cx="405.138" cy="84.185" r="79.058" gradientTransform="translate(.929 1.856) scale(1.063)" xlink:href="#radial-gradient-2"/>
        <radialGradient id="radial-gradient-6" cx="351.405" cy="84.28" r="87.661" gradientTransform="matrix(.959 0 0 .959 .533 -1.203)" xlink:href="#radial-gradient-2"/>
        <radialGradient id="radial-gradient-7" cx="319.587" cy="85.122" r="55.184" gradientTransform="translate(-15.381 15.586) scale(1.523)" xlink:href="#radial-gradient-2"/>
        <radialGradient id="radial-gradient-8" cx="273.182" cy="25.844" r="55.511" gradientTransform="translate(-27.409 -.383) scale(1.514)" xlink:href="#radial-gradient-2"/>
        <radialGradient id="radial-gradient-9" cx="307.869" cy="25.778" r="76.867" gradientTransform="translate(-3.318 -.073) scale(1.094)" xlink:href="#radial-gradient-2"/>
        <radialGradient id="radial-gradient-10" cx="356.354" cy="24.831" r="79.167" gradientTransform="translate(-.647 -.078) scale(1.062)" xlink:href="#radial-gradient-2"/>
        <radialGradient id="radial-gradient-11" cx="407.91" cy="25.712" r="75.624" gradientTransform="translate(1.796 -.091) scale(1.112)" xlink:href="#radial-gradient-2"/>
        <radialGradient id="radial-gradient-12" cx="454.514" cy="84.99" r="75.624" gradientTransform="translate(4.476 3.317) scale(1.112)" xlink:href="#radial-gradient-2"/>
    </defs>
    <g id="Group_795" data-name="Group 795" transform="translate(0 .006)">
        <path id="Path_382" d="M241.512 130.533a5.424 5.424 0 0 0-3.365-2.515 5.721 5.721 0 0 0 2.651-8.8 6.522 6.522 0 0 0-5.336-2.481c-2.719-.034-7.342-.034-10.435-.034a3.119 3.119 0 0 0-3.127 3.127v17.13a3.156 3.156 0 0 0 3.093 3.127c3.229.034 8.225.034 11.25-.068a6.209 6.209 0 0 0 5.269-9.486zm-13.6-8.837h1.835c1.326 0 2.651-.034 3.977 0a2.013 2.013 0 0 1 2.107 2.005 1.974 1.974 0 0 1-2.107 2.005c-1.9.034-3.807 0-5.778 0-.03-1.358-.03-2.616-.03-4.006zm8.327 11.352a1.93 1.93 0 0 1-1.971 1.971c-2.073.068-4.181.034-6.356.034v-4.283c2.209 0 4.385-.068 6.526.034a1.979 1.979 0 0 1 1.805 2.245z" class="cls-1" data-name="Path 382" transform="translate(-146.479 -77.039)"/>
        <path id="Path_383" d="M492.3 26.8l8.633 13.6a1.925 1.925 0 0 1 .238.986c.034 1.8 0 3.6 0 5.4v3.331h6.016c0-2.821-.034-5.608.034-8.361a3.627 3.627 0 0 1 .544-1.869c2.515-4.079 5.132-8.123 7.682-12.168.17-.272.306-.51.544-.884-2.243 0-4.283-.034-6.356.034a1.1 1.1 0 0 0-.748.544c-1.462 2.447-2.889 4.928-4.317 7.376-.1.17-.238.34-.408.578a1013.5 1013.5 0 0 1-4.656-7.919 1.006 1.006 0 0 0-1.02-.612z" class="cls-1" data-name="Path 383" transform="translate(-324.973 -17.695)"/>
        <path id="Path_384" d="M435.8 121.062a5.832 5.832 0 0 1 3.671 3.161c1.733-.816 3.4-1.6 5.1-2.413-2.107-4.792-7.512-7.24-13.154-6.016a12.049 12.049 0 0 0-.068 23.588c5.812 1.224 11.148-1.19 13.222-6.016-1.665-.782-3.365-1.6-5.064-2.413-.1.2-.17.306-.238.442a5.8 5.8 0 0 1-6.662 2.719c-3.025-.85-4.894-3.841-4.589-7.376a6.248 6.248 0 0 1 7.782-5.676z" class="cls-1" data-name="Path 384" transform="translate(-278.435 -76.234)"/>
        <path id="Path_385" d="M365.484 127a6.066 6.066 0 0 0-.068-.782 10.881 10.881 0 0 0-1.088-3.773 7.19 7.19 0 0 0-.374-.714c-.068-.1-.1-.17-.17-.272a10.9 10.9 0 0 0-1.36-1.8 12.891 12.891 0 0 0-2.175-1.937 5.533 5.533 0 0 0-.578-.374 16.256 16.256 0 0 0-1.529-.782 4.957 4.957 0 0 0-.646-.238c-.442-.136-.884-.272-1.326-.374-.238-.034-.442-.1-.68-.136-.476-.068-.952-.136-1.428-.17a16.527 16.527 0 0 0-1.835 0 14.278 14.278 0 0 0-2.107.238 12.391 12.391 0 0 0-3.671 1.326c-.2.136-.442.238-.646.374l-.306.2a6.9 6.9 0 0 0-.612.442 7.121 7.121 0 0 0-.578.476c-.272.238-.544.51-.782.748a14.365 14.365 0 0 0-1.122 1.394 5.916 5.916 0 0 0-.374.612 5.492 5.492 0 0 0-.34.612c-.1.2-.2.442-.306.646a3.527 3.527 0 0 0-.136.34 11.148 11.148 0 0 0-.612 2.073 10.442 10.442 0 0 0-.238 1.8v.748a5.511 5.511 0 0 0 .034.748c0 .136.034.238.034.374a12.436 12.436 0 0 0 1.156 4.147 11.5 11.5 0 0 0 2.277 3.365c.2.2.408.408.612.578s.442.34.646.51a11.17 11.17 0 0 0 1.054.68 5.12 5.12 0 0 0 .748.374 13.6 13.6 0 0 0 4.622 1.156c.476.034.918.068 1.394.068h1.6a6.151 6.151 0 0 0 .782-.1.8.8 0 0 0 .272-.068 13.043 13.043 0 0 0 3.773-1.326 1.587 1.587 0 0 1 .34-.17c.238-.136.442-.272.646-.408a10.1 10.1 0 0 0 1.19-.918c.2-.17.374-.34.544-.51a9.727 9.727 0 0 0 1.19-1.462c.136-.2.272-.442.408-.646.136-.238.238-.476.374-.714a10.247 10.247 0 0 0 .612-1.529 13.709 13.709 0 0 0 .748-4.419 1.8 1.8 0 0 0 .031-.407zm-12.61 7.41c-3.773-.034-6.322-2.889-6.254-6.934a6.3 6.3 0 0 1 6.56-6.56c3.569.034 6.22 2.991 6.152 6.8-.102 4.045-2.719 6.764-6.458 6.696z" class="cls-1" data-name="Path 385" transform="translate(-224.702 -76.329)"/>
        <g id="Group_728" data-name="Group 728" transform="translate(99.316 39.729)">
            <path id="Path_386" d="M298.148 116.9H292.2v19.68a3.568 3.568 0 0 0 3.569 3.569h11.692v-5.2h-9.347V116.9z" class="cls-1" data-name="Path 386" transform="translate(-292.2 -116.9)"/>
        </g>
        <path id="Path_387" d="M227.848 27.1H221.9v19.646a3.568 3.568 0 0 0 3.569 3.569h11.76V45.08h-9.381z" class="cls-1" data-name="Path 387" transform="translate(-146.479 -17.893)"/>
        <path id="Path_388" d="M296.015 27H290v12.916a10.765 10.765 0 0 1-.068 1.5c-.34 2.753-1.971 4.045-4.962 3.977-2.617-.068-4.283-1.6-4.317-4.249-.1-4.351-.068-8.735-.068-13.086v-1.02H274.5c0 5.03-.136 10.027.034 14.989a8.485 8.485 0 0 0 6.016 8.021 17.149 17.149 0 0 0 6.832.578c5.4-.544 8.565-3.875 8.7-9.279.1-4.656.034-9.313.034-13.969a1.533 1.533 0 0 1-.101-.378z" class="cls-1" data-name="Path 388" transform="translate(-181.166 -17.827)"/>
        <path id="Path_389" d="M365.3 41.518a5.769 5.769 0 0 1-6.764 2.685c-2.991-.884-4.826-3.841-4.521-7.342a6.328 6.328 0 0 1 7.851-5.71 5.975 5.975 0 0 1 3.7 3.161c1.733-.816 3.4-1.6 5.1-2.413-2.039-4.758-7.342-7.206-13.052-6.05a11.793 11.793 0 0 0-9.721 11.59 11.772 11.772 0 0 0 9.449 12c5.744 1.292 11.148-1.088 13.358-5.982-1.7-.782-3.365-1.6-5.064-2.413a2.134 2.134 0 0 0-.336.474z" class="cls-1" data-name="Path 389" transform="translate(-229.651 -16.88)"/>
        <path id="Path_390" d="M439.766 26.9a1.408 1.408 0 0 0-.986.51c-2.107 2.753-4.147 5.506-6.22 8.259a4.984 4.984 0 0 1-.646.714v-9.449H426v23.248h5.948l-.034-5.676 2.039-2.447s3.6 5.2 5.336 7.648c.17.2.408.51.612.51 2.311.034 4.622.034 7.1.034-3.263-4.249-6.39-8.327-9.551-12.44 2.923-3.535 9.041-10.876 9.041-10.876z" class="cls-1" data-name="Path 390" transform="translate(-281.207 -17.761)"/>
        <path id="Path_391" d="M510.366 116.7a1.407 1.407 0 0 0-.986.51c-2.107 2.753-4.147 5.506-6.22 8.259a4.979 4.979 0 0 1-.646.714v-9.449H496.6v23.248h5.948l-.034-5.676 2.039-2.447s3.6 5.2 5.336 7.648c.17.2.408.51.612.51 2.311.034 4.622.034 7.1.034-3.263-4.249-6.39-8.327-9.551-12.44 2.923-3.535 9.041-10.876 9.041-10.876z" class="cls-1" data-name="Path 391" transform="translate(-327.811 -77.039)"/>
        <path id="Path_392" d="M21.348 6.843L3.3 18.093l.646 32.629L34.91 67.717l28.38-15.533.68-32.425L32.021 2.9z" class="cls-2" data-name="Path 392" transform="translate(-2.178 -1.918)"/>
        <path id="Path_393" d="M32.731 97.224a13.709 13.709 0 0 1-5.064-1.424L4.317 83.39A8.308 8.308 0 0 1 0 76.287v-24A8.353 8.353 0 0 1 1.122 47.6S26.1 60.924 28.381 61.943s4.351 2.583 4.351 5.506z" class="cls-3" data-name="Path 393" transform="translate(0 -31.425)"/>
        <path id="Path_394" d="M125.295 52.5s-24.574 12.916-25.73 13.664-3.365 1.563-3.365 4.52v29.74a8.992 8.992 0 0 0 4.758-1.462C103.848 97.3 122 88.46 122 88.46a8.194 8.194 0 0 0 4.419-7.172V56.307a7.832 7.832 0 0 0-1.124-3.807z" class="cls-4" data-name="Path 394" transform="translate(-63.503 -34.66)"/>
        <path id="Path_395" d="M63.97 17.84a8.9 8.9 0 0 0-2.787-2.821C59.926 14.271 34.74.744 34.74.744A5.346 5.346 0 0 0 29.4.676S9.078 11.45 7 12.674a9.492 9.492 0 0 0-3.7 3.5l28.619 15.058a8.777 8.777 0 0 0 7-.034z" class="cls-5" data-name="Path 395" transform="translate(-2.178)"/>
        <path id="Path_396" d="M35.557 91.362l-4.079-2.209A7.573 7.573 0 0 1 28.42 86.4a9.752 9.752 0 0 1-1.02-4.147V60.5l8.123 4.351v26.511z" class="cls-6" data-name="Path 396" transform="translate(-18.087 -39.941)"/>
        <path id="Path_397" d="M96.234 102.338S116.118 91.87 117.1 91.326a6.128 6.128 0 0 0 3.467-5.506v-4.113c0-2.787-1.767-3.6-1.767-3.6a5.782 5.782 0 0 0 1.767-4.011V67.7a2.577 2.577 0 0 0-3.909-2.277c-.782.408-11.862 6.254-17.5 9.313A5.161 5.161 0 0 0 96.2 79.4c0 2.137.034 22.938.034 22.938z" class="cls-7" data-name="Path 397" transform="translate(-63.503 -42.964)"/>
        <path id="Path_398" d="M124.834 126.812l7.138-3.773a1.541 1.541 0 0 0 .85-1.394v-2.685a.822.822 0 0 0-1.224-.646l-6.8 3.5v5z" class="cls-4" data-name="Path 398" transform="translate(-82.382 -78.042)"/>
        <g id="Group_729" data-name="Group 729" transform="translate(26.673 12.312)">
            <path id="Path_399" d="M87.864 38.6l-4.248-2.24a1.061 1.061 0 0 0-1.054.034l-3.7 1.971a.737.737 0 0 0 0 1.292l4.215 2.175a1.008 1.008 0 0 0 .884-.068l3.875-2.107a.585.585 0 0 0 .028-1.057z" class="cls-8" data-name="Path 399" transform="translate(-78.475 -36.237)"/>
            <path id="Path_400" d="M96.992 38.738l-4.282-2.243a.915.915 0 0 0-.51-.1l.034 5.574a1.079 1.079 0 0 0 .748-.068l4.011-2.175a.573.573 0 0 0-.001-.988z" class="cls-9" data-name="Path 400" transform="translate(-87.535 -36.337)"/>
        </g>
        <g id="Group_730" data-name="Group 730" transform="translate(12.194 11.973)">
            <path id="Path_401" d="M45.23 37.6l-4.214-2.24a1.061 1.061 0 0 0-1.054.034l-3.7 1.971a.737.737 0 0 0 0 1.292l4.215 2.175a1.008 1.008 0 0 0 .884-.068l3.875-2.107a.594.594 0 0 0-.006-1.057z" class="cls-8" data-name="Path 401" transform="translate(-35.875 -35.237)"/>
            <path id="Path_402" d="M54.292 37.672l-4.282-2.277a.915.915 0 0 0-.51-.1l.034 5.574a1.079 1.079 0 0 0 .748-.068l4.011-2.175a.544.544 0 0 0-.001-.954z" class="cls-9" data-name="Path 402" transform="translate(-44.869 -35.271)"/>
        </g>
        <g id="Group_731" data-name="Group 731" transform="translate(41.526 12.652)">
            <path id="Path_403" d="M131.564 39.6l-4.249-2.243a1.061 1.061 0 0 0-1.054.034l-3.7 1.971a.737.737 0 0 0 0 1.292l4.215 2.175a1.008 1.008 0 0 0 .884-.068l3.875-2.107a.576.576 0 0 0 .029-1.054z" class="cls-8" data-name="Path 403" transform="translate(-122.175 -37.237)"/>
            <path id="Path_404" d="M140.692 39.738l-4.283-2.243a.915.915 0 0 0-.51-.1l.034 5.574a1.079 1.079 0 0 0 .748-.068l4.011-2.175a.573.573 0 0 0 0-.988z" class="cls-9" data-name="Path 404" transform="translate(-131.235 -37.337)"/>
        </g>
        <g id="Group_732" data-name="Group 732" transform="translate(26.537 4.087)">
            <path id="Path_405" d="M87.464 14.4l-4.248-2.24a1.061 1.061 0 0 0-1.054.034l-3.7 1.971a.737.737 0 0 0 0 1.292l4.215 2.175a1.008 1.008 0 0 0 .884-.068l3.875-2.107a.6.6 0 0 0 .028-1.057z" class="cls-8" data-name="Path 405" transform="translate(-78.075 -12.037)"/>
            <path id="Path_406" d="M96.492 14.538l-4.282-2.243a.915.915 0 0 0-.51-.1l.034 5.574a1.079 1.079 0 0 0 .748-.068l4.011-2.175a.561.561 0 0 0-.001-.988z" class="cls-9" data-name="Path 406" transform="translate(-87.069 -12.137)"/>
        </g>
        <g id="Group_733" data-name="Group 733" transform="translate(27.76 20.538)">
            <path id="Path_407" d="M91.064 62.8l-4.248-2.24a1.061 1.061 0 0 0-1.054.034l-3.7 1.971a.737.737 0 0 0 0 1.292l4.215 2.175a1.008 1.008 0 0 0 .884-.068l3.875-2.107a.585.585 0 0 0 .028-1.057z" class="cls-8" data-name="Path 407" transform="translate(-81.675 -60.437)"/>
            <path id="Path_408" d="M100.092 62.838l-4.282-2.243a.915.915 0 0 0-.51-.1l.034 5.574a1.079 1.079 0 0 0 .748-.069l4.011-2.175a.55.55 0 0 0-.001-.987z" class="cls-9" data-name="Path 408" transform="translate(-90.669 -60.471)"/>
        </g>
        <path id="Path_410" d="M96.3 113.9v4.962l9.721 5.132v-4.962z" class="cls-6" data-name="Path 410" transform="translate(-63.569 -75.191)"/>
        <path id="Path_411" d="M113.36 104.668l-6.05-3.195-1.19.68-8.428-4.453a3.625 3.625 0 0 0-1.292 2.991v2.515l9.721 5.064s6.016-3.127 6.288-3.263a1.9 1.9 0 0 1 .951-.339z" class="cls-10" data-name="Path 411" transform="translate(-63.635 -64.497)"/>
        <path id="Path_412" d="M124.834 96.085l7.138-3.773a1.541 1.541 0 0 0 .85-1.394v-2.685a.837.837 0 0 0-1.258-.646l-6.764 3.5v5z" class="cls-4" data-name="Path 412" transform="translate(-82.382 -57.749)"/>
        <path id="Path_413" d="M110.4 83.339l4.962 2.583s6.016-3.127 6.288-3.263.714-.408 1.02-.306L117.4 79.6" class="cls-10" data-name="Path 413" transform="translate(-72.876 -52.549)"/>
        <path id="Path_414" d="M100.737 91.654a4.429 4.429 0 0 0-1.937 1.835c.17.1 8.871 4.69 8.871 4.69v-5l-4.962-2.579c.034 0-1.122.578-1.972 1.054z" class="cls-6" data-name="Path 414" transform="translate(-65.219 -59.81)"/>
        <path id="Path_415" d="M37.6 125.4l-7.1 3.807a5.833 5.833 0 0 0 2.277 2.311c1.869 1.122 20.087 10.706 20.087 10.706v-8.973z" class="cls-7" data-name="Path 415" transform="translate(-20.133 -82.782)"/>
        <path id="Path_416" d="M239.512 128.533a5.424 5.424 0 0 0-3.365-2.515 5.721 5.721 0 0 0 2.651-8.8 6.522 6.522 0 0 0-5.336-2.481c-2.719-.034-7.342-.034-10.435-.034a3.119 3.119 0 0 0-3.127 3.127v17.13a3.156 3.156 0 0 0 3.093 3.127c3.229.034 8.225.034 11.25-.068a6.209 6.209 0 0 0 5.269-9.486zm-13.6-8.837h1.835c1.326 0 2.651-.034 3.977 0a2.013 2.013 0 0 1 2.107 2.005 1.974 1.974 0 0 1-2.107 2.005c-1.9.034-3.807 0-5.778 0-.03-1.358-.03-2.616-.03-4.006zm8.327 11.352a1.93 1.93 0 0 1-1.971 1.971c-2.073.068-4.181.034-6.356.034v-4.283c2.209 0 4.385-.068 6.526.034a1.979 1.979 0 0 1 1.805 2.245z" class="cls-11" data-name="Path 416" transform="translate(-145.158 -75.719)"/>
        <path id="Path_417" d="M490.3 24.8l8.633 13.6a1.925 1.925 0 0 1 .238.986c.034 1.8 0 3.6 0 5.4v3.331h6.016c0-2.821-.034-5.608.034-8.361a3.627 3.627 0 0 1 .544-1.869c2.515-4.079 5.132-8.123 7.681-12.168.17-.272.306-.51.544-.884-2.243 0-4.283-.034-6.356.034a1.1 1.1 0 0 0-.748.544c-1.461 2.447-2.889 4.928-4.317 7.376-.1.17-.238.34-.408.578a1013.5 1013.5 0 0 1-4.656-7.919 1.006 1.006 0 0 0-1.02-.612z" class="cls-12" data-name="Path 417" transform="translate(-323.652 -16.375)"/>
        <path id="Path_418" d="M433.8 119.062a5.832 5.832 0 0 1 3.671 3.161c1.733-.816 3.4-1.6 5.1-2.413-2.107-4.792-7.512-7.24-13.154-6.016a12.049 12.049 0 0 0-.068 23.588c5.812 1.224 11.148-1.19 13.222-6.016-1.665-.782-3.365-1.6-5.064-2.413-.1.2-.17.306-.238.442a5.8 5.8 0 0 1-6.662 2.719c-3.025-.85-4.894-3.841-4.589-7.376a6.248 6.248 0 0 1 7.782-5.676z" class="cls-13" data-name="Path 418" transform="translate(-277.114 -74.914)"/>
        <path id="Path_419" d="M363.484 125a6.072 6.072 0 0 0-.068-.782 10.883 10.883 0 0 0-1.088-3.773 7.185 7.185 0 0 0-.374-.714c-.068-.1-.1-.17-.17-.272a10.9 10.9 0 0 0-1.36-1.8 12.886 12.886 0 0 0-2.175-1.937 5.529 5.529 0 0 0-.578-.374 16.249 16.249 0 0 0-1.53-.782 4.954 4.954 0 0 0-.646-.238c-.442-.136-.884-.272-1.326-.374-.238-.034-.442-.1-.68-.136-.476-.068-.952-.136-1.428-.17a16.535 16.535 0 0 0-1.835 0 14.282 14.282 0 0 0-2.107.238 12.389 12.389 0 0 0-3.671 1.326c-.2.136-.442.238-.646.374l-.306.2a6.9 6.9 0 0 0-.612.442 7.123 7.123 0 0 0-.578.476c-.272.238-.544.51-.782.748a14.375 14.375 0 0 0-1.122 1.394 5.9 5.9 0 0 0-.374.612 5.492 5.492 0 0 0-.34.612c-.1.2-.2.442-.306.646a3.537 3.537 0 0 0-.136.34 11.148 11.148 0 0 0-.612 2.073 10.445 10.445 0 0 0-.238 1.8v.748a5.506 5.506 0 0 0 .034.748c0 .136.034.238.034.374a12.437 12.437 0 0 0 1.156 4.147 11.5 11.5 0 0 0 2.277 3.365c.2.2.408.408.612.578s.442.34.646.51a11.173 11.173 0 0 0 1.054.68 5.122 5.122 0 0 0 .748.374 13.6 13.6 0 0 0 4.622 1.156c.476.034.918.068 1.394.068h1.6a6.154 6.154 0 0 0 .782-.1.8.8 0 0 0 .272-.068 13.043 13.043 0 0 0 3.773-1.326 1.59 1.59 0 0 1 .34-.17c.238-.136.442-.272.646-.408a10.1 10.1 0 0 0 1.19-.918c.2-.17.374-.34.544-.51a9.723 9.723 0 0 0 1.19-1.462c.136-.2.272-.442.408-.646.136-.238.238-.476.374-.714a10.246 10.246 0 0 0 .612-1.529 13.707 13.707 0 0 0 .748-4.419 1.8 1.8 0 0 0 .032-.407zm-12.61 7.41c-3.773-.034-6.322-2.889-6.254-6.934a6.3 6.3 0 0 1 6.56-6.56c3.569.034 6.22 2.991 6.152 6.8-.102 4.045-2.719 6.764-6.458 6.696z" class="cls-14" data-name="Path 419" transform="translate(-223.382 -75.009)"/>
        <g id="Group_734" data-name="Group 734" transform="translate(98.636 39.049)">
            <path id="Path_420" d="M296.148 114.9H290.2v19.68a3.568 3.568 0 0 0 3.569 3.569h11.692v-5.2h-9.347V114.9z" class="cls-15" data-name="Path 420" transform="translate(-290.2 -114.9)"/>
        </g>
        <path id="Path_421" d="M225.848 25.1H219.9v19.646a3.568 3.568 0 0 0 3.569 3.569h11.76V43.08h-9.381z" class="cls-16" data-name="Path 421" transform="translate(-145.158 -16.573)"/>
        <path id="Path_422" d="M294.015 25H288v12.916a10.77 10.77 0 0 1-.068 1.5c-.34 2.753-1.971 4.045-4.962 3.977-2.617-.068-4.283-1.6-4.317-4.249-.1-4.351-.068-8.735-.068-13.086v-1.02H272.5c0 5.03-.136 10.027.034 14.989a8.485 8.485 0 0 0 6.016 8.021 17.149 17.149 0 0 0 6.832.578c5.4-.544 8.565-3.875 8.7-9.279.1-4.656.034-9.313.034-13.969a1.532 1.532 0 0 1-.101-.378z" class="cls-17" data-name="Path 422" transform="translate(-179.846 -16.507)"/>
        <path id="Path_423" d="M363.3 39.518a5.769 5.769 0 0 1-6.764 2.685c-2.991-.884-4.826-3.841-4.521-7.342a6.328 6.328 0 0 1 7.851-5.71 5.975 5.975 0 0 1 3.7 3.161c1.733-.816 3.4-1.6 5.1-2.413-2.039-4.758-7.342-7.206-13.052-6.05a11.793 11.793 0 0 0-9.721 11.59 11.772 11.772 0 0 0 9.449 12c5.744 1.292 11.148-1.088 13.358-5.982-1.7-.782-3.365-1.6-5.064-2.413a2.134 2.134 0 0 0-.336.474z" class="cls-18" data-name="Path 423" transform="translate(-228.331 -15.56)"/>
        <path id="Path_424" d="M437.766 24.9a1.407 1.407 0 0 0-.986.51c-2.107 2.753-4.147 5.506-6.22 8.259a4.981 4.981 0 0 1-.646.714v-9.449H424v23.248h5.948l-.034-5.676 2.039-2.447s3.6 5.2 5.336 7.648c.17.2.408.51.612.51a482.8 482.8 0 0 0 7.1.034c-3.263-4.249-6.39-8.327-9.551-12.44 2.923-3.535 9.041-10.876 9.041-10.876z" class="cls-19" data-name="Path 424" transform="translate(-279.887 -16.441)"/>
        <path id="Path_425" d="M508.366 114.7a1.407 1.407 0 0 0-.986.51c-2.107 2.753-4.147 5.506-6.22 8.259a4.98 4.98 0 0 1-.646.714v-9.449H494.6v23.248h5.948l-.034-5.676 2.039-2.447s3.6 5.2 5.336 7.648c.17.2.408.51.612.51 2.311.034 4.622.034 7.1.034-3.263-4.249-6.39-8.327-9.551-12.44 2.923-3.535 9.041-10.876 9.041-10.876z" class="cls-20" data-name="Path 425" transform="translate(-326.491 -75.719)"/>
    </g>
</svg>
