<svg width="42" height="42" viewBox="0 0 42 42" fill="none" xmlns="http://www.w3.org/2000/svg">
<path d="M21.174 41.265C32.3485 41.265 41.4073 32.2062 41.4073 21.0317C41.4073 9.85711 32.3485 0.79834 21.174 0.79834C9.9994 0.79834 0.940628 9.85711 0.940628 21.0317C0.940628 32.2062 9.9994 41.265 21.174 41.265Z" fill="#5A4980"/>
<path d="M41.407 21.0317C41.4071 9.85725 32.3485 0.798506 21.1741 0.79834V41.2652C32.3486 41.265 41.4072 32.2062 41.407 21.0317Z" fill="#534378"/>
<path d="M21.2119 22.7773C26.1028 22.7773 30.0676 18.8124 30.0676 13.9216C30.0676 9.03074 26.1028 5.06592 21.2119 5.06592C16.3211 5.06592 12.3562 9.03074 12.3562 13.9216C12.3562 18.8124 16.3211 22.7773 21.2119 22.7773Z" fill="#461811"/>
<path d="M24.175 32.8859L21.174 41.3019L18.249 32.8859V26.3879H24.175V32.8859Z" fill="#EAC8AD"/>
<path d="M21.2118 8.38086C18.3348 8.38086 13.7852 10.0165 13.7852 17.6803C13.6414 20.3249 14.4794 22.9294 16.1384 24.9938C16.7169 25.7314 19.6862 28.1165 21.2118 28.1165V8.38086Z" fill="#F2D7BC"/>
<path d="M12.3538 19.5079C12.2271 18.2833 12.8106 17.1966 13.6569 17.0806C14.5036 16.9643 15.2924 17.863 15.4194 19.0876C15.5463 20.3118 14.9629 21.3983 14.1163 21.5145C13.2698 21.6303 12.4807 20.7321 12.3538 19.5079Z" fill="#F2D7BC"/>
<path d="M21.1883 8.38086C24.0654 8.38086 28.6153 10.0165 28.6153 17.6803C28.7591 20.3249 27.921 22.9294 26.2619 24.9938C25.6833 25.7314 22.7142 28.1165 21.1884 28.1165L21.1883 8.38086Z" fill="#EAC0A7"/>
<path d="M30.0698 19.5079C30.1968 18.2833 29.6133 17.1966 28.7671 17.0806C27.9203 16.9643 27.1312 17.863 27.0042 19.0876C26.8773 20.3118 27.4611 21.3983 28.3076 21.5145C29.1541 21.6303 29.9431 20.7321 30.0698 19.5079Z" fill="#EAC0A7"/>
<path d="M21.1744 41.3017V33.2083C21.1744 33.2083 18.9639 32.6606 18.4767 30.8699C18.3367 30.3643 18.2602 29.8432 18.2492 29.3187C18.2492 29.3187 13.4155 30.9513 12.3365 32.6374C11.4385 35.3102 11.1924 41.3017 11.1924 41.3017H21.1744Z" fill="#EAC8AD"/>
<path d="M21.1744 41.3017V33.2083C21.1744 33.2083 23.385 32.6606 23.8722 30.8699C24.0122 30.3643 24.0885 29.8432 24.0996 29.3187C24.0996 29.3187 28.9333 30.9513 30.0123 32.6374C30.9103 35.3102 31.1563 41.3017 31.1563 41.3017H21.1744Z" fill="#EAC8AD"/>
<path d="M21.2119 25.4175C22.1923 25.5337 23.0892 24.8543 23.2427 23.879H19.1813C19.3347 24.8542 20.2316 25.5337 21.2119 25.4175Z" fill="white"/>
<path d="M20.7934 6.17572C18.9898 6.15031 17.2509 6.84668 15.9635 8.10994C14.676 9.3732 13.9468 11.0986 13.9379 12.9023C12.0316 15.5523 14.1097 17.923 15.5813 18.7561V17.452C15.5813 15.7383 17.2107 14.1515 19.6583 14.4156C21.8515 14.6525 23.2326 13.4132 24.3995 11.3055C25.84 8.48316 24.0422 6.17572 20.7934 6.17572Z" fill="#461811"/>
<path d="M24.1747 10.439C24.1747 10.439 25.4029 15.4258 28.7671 17.0805C29.3657 12.5974 29.7195 13.5417 28.7671 11.181C27.8144 8.82059 24.1747 7.06689 24.1747 7.06689L24.1747 10.439Z" fill="#461811"/>
<path d="M21.1744 41.3017V30.5382L18.2492 29.3187C18.2492 29.3187 13.4155 30.9513 12.3365 32.6374C11.4385 35.3102 11.1924 41.3017 11.1924 41.3017H21.1744Z" fill="#F1F2F2"/>
<path d="M21.1744 41.3017V30.5382L24.0996 29.3187C24.0996 29.3187 28.9333 30.9513 30.0123 32.6374C30.9103 35.3102 31.1563 41.3017 31.1563 41.3017H21.1744Z" fill="#E6E7E8"/>
<path d="M19.5499 6.56222C19.5499 6.56222 15.0529 -0.384463 9.53031 5.011C4.00769 10.4069 10.391 20.4001 7.06365 21.9736C10.6953 21.5038 11.591 16.3622 11.235 11.8366C10.9203 7.83496 14.4275 5.90135 17.158 7.54019C18.3046 8.2283 19.5499 6.56222 19.5499 6.56222Z" fill="#461811"/>
<path d="M21.174 30.528L18.166 29.319L17.425 30.071L18.922 33.391L21.174 30.528Z" fill="white"/>
<path d="M21.174 30.528L24.183 29.319L24.924 30.071L23.427 33.391L21.174 30.528Z" fill="white"/>
</svg>
