<svg width="42" height="42" viewBox="0 0 42 42" fill="none" xmlns="http://www.w3.org/2000/svg">
<path d="M21.174 41.03C32.3486 41.03 41.4074 31.9713 41.4074 20.7967C41.4074 9.62213 32.3486 0.563354 21.174 0.563354C9.99946 0.563354 0.940689 9.62213 0.940689 20.7967C0.940689 31.9713 9.99946 41.03 21.174 41.03Z" fill="#B5332B"/>
<path d="M41.4073 20.7967C41.4073 9.62219 32.3486 0.563421 21.1741 0.563354V41.03C32.3486 41.0299 41.4072 31.9712 41.4073 20.7967Z" fill="#A22D26"/>
<rect x="18.2114" y="25.8993" width="5.92572" height="6.49733" fill="#D9A78C"/>
<path d="M24.8554 29.771C24.8554 29.771 30.4894 30.5946 31.3214 31.4612C32.046 32.216 33.5524 39.4438 33.9006 41.0301H21.1739V30.0774L24.8554 29.771Z" fill="#C0D4DF"/>
<path d="M21.1741 7.30737C24.0511 7.30737 28.6009 8.94298 28.6009 16.6071C28.6009 21.032 27.1582 23.9308 26.5296 24.7328C24.9871 25.9744 23.1358 26.7729 21.1741 27.0428L21.1741 7.30737Z" fill="#EAC0A7"/>
<path d="M30.0319 18.4343C30.1588 17.2099 29.5754 16.1231 28.7292 16.0069C27.8823 15.8909 27.0936 16.7896 26.9664 18.0142C26.8393 19.2384 27.423 20.3249 28.2698 20.4411C29.116 20.5569 29.905 19.6584 30.0319 18.4343Z" fill="#EAC0A7"/>
<path d="M21.1741 7.30737C18.2971 7.30737 13.7474 8.94298 13.7474 16.6071C13.7474 21.032 15.1899 23.9308 15.8184 24.7328C17.361 25.9744 19.2124 26.7729 21.1741 27.0428L21.1741 7.30737Z" fill="#F2D7BC"/>
<path d="M12.3161 18.4343C12.1895 17.2099 12.7729 16.1231 13.6191 16.0069C14.4657 15.8909 15.2547 16.7896 15.3816 18.0142C15.5088 19.2384 14.9251 20.3249 14.0784 20.4411C13.232 20.5569 12.4431 19.6584 12.3161 18.4343Z" fill="#F2D7BC"/>
<path d="M17.4924 29.771C17.4924 29.771 11.8584 30.5946 11.0267 31.4612C10.3019 32.216 8.79595 39.4438 8.44727 41.0301H21.1739V30.0774L17.4924 29.771Z" fill="#CFE1EB"/>
<path d="M21.174 30.077L18.166 28.868L17.425 29.62L18.922 32.939L21.174 30.077Z" fill="white"/>
<path d="M21.174 30.077L24.182 28.868L24.923 29.62L23.426 32.939L21.174 30.077Z" fill="white"/>
<path d="M28.7624 16.1884C28.7624 16.1884 31.1972 5.08826 21.123 5.08826C10.996 5.08826 13.538 15.8824 13.538 15.8824C13.538 15.8824 14.9219 15.09 14.9219 18.6327H15.176C15.4748 17.1445 15.6883 15.6404 15.8155 14.1278C19.3768 14.1278 22.5269 13.6715 25.1749 11.4798C26.6789 11.4798 26.8835 13.3528 26.8835 14.7859L26.2249 15.0409C26.6987 16.178 26.9314 17.401 26.9081 18.6327H27.3647C27.3647 18.6327 27.2972 14.7245 28.7624 16.1884Z" fill="#8B5F3C"/>
<path d="M21.1741 24.1516C22.515 24.1516 23.6022 23.7085 23.6022 23.1622H18.7463C18.7463 23.7085 19.8333 24.1516 21.1741 24.1516Z" fill="white"/>
</svg>
