<svg width="42" height="42" viewBox="0 0 42 42" fill="none" xmlns="http://www.w3.org/2000/svg">
<path d="M21.174 41.2734C32.3485 41.2734 41.4072 32.2147 41.4072 21.0402C41.4072 9.86563 32.3485 0.806885 21.174 0.806885C9.99944 0.806885 0.940689 9.86563 0.940689 21.0402C0.940689 32.2147 9.99944 41.2734 21.174 41.2734Z" fill="#F6A100"/>
<path d="M41.407 21.0404C41.4071 15.6742 39.2755 10.5277 35.4811 6.73315C31.6867 2.93857 26.5403 0.806744 21.1741 0.806641V41.2733C32.3484 41.2733 41.407 32.2147 41.407 21.0404Z" fill="#ED9A00"/>
<rect x="18.2114" y="26.1432" width="5.9256" height="6.49733" fill="#D9A78C"/>
<path d="M17.4924 30.0146C17.4924 30.0146 11.8585 30.8385 11.0265 31.7051C10.3021 32.4597 8.79583 39.6874 8.44739 41.2738H21.1739V30.321L17.4924 30.0146Z" fill="#C0D0D8"/>
<path d="M24.8553 30.0146C24.8553 30.0146 30.4895 30.8385 31.3214 31.7051C32.0459 32.4597 33.5522 39.6874 33.9006 41.2738H21.1739V30.321L24.8553 30.0146Z" fill="#A7BDC8"/>
<path d="M20.792 31.394L20.042 39.11L21.174 41.245L22.306 39.11L21.557 31.394H20.792Z" fill="#14A89A"/>
<path d="M22.1856 31.3299L21.1741 32.3412L20.1628 31.3299L21.1741 30.3187L22.1856 31.3299Z" fill="#14A89A"/>
<path d="M21.174 7.55127C24.051 7.55127 28.6008 9.18667 28.6008 16.8507C28.6008 21.2759 27.1582 24.1747 26.5296 24.9767C24.987 26.2183 23.1357 27.0167 21.174 27.2865V7.55127Z" fill="#EAC0A7"/>
<path d="M30.032 18.6781C30.1588 17.4535 29.5753 16.3669 28.729 16.2507C27.8823 16.1347 27.0933 17.0332 26.9663 18.2578C26.8393 19.4819 27.4229 20.5687 28.2696 20.6847C29.1161 20.8007 29.905 19.9022 30.032 18.6781Z" fill="#EAC0A7"/>
<path d="M21.1741 7.55127C18.2971 7.55127 13.7474 9.18667 13.7474 16.8507C13.7474 21.2759 15.1899 24.1747 15.8184 24.9767C17.3611 26.2183 19.2124 27.0167 21.1741 27.2865L21.1741 7.55127Z" fill="#F2D7BC"/>
<path d="M12.3162 18.6781C12.1894 17.4535 12.7728 16.3669 13.6191 16.2507C14.4659 16.1347 15.2547 17.0332 15.3818 18.2578C15.5088 19.4819 14.9251 20.5687 14.0786 20.6847C13.2321 20.8007 12.4431 19.9022 12.3162 18.6781Z" fill="#F2D7BC"/>
<path d="M21.174 30.321L18.166 29.111L17.425 29.864L18.921 33.183L21.174 30.321Z" fill="white"/>
<path d="M21.174 30.321L24.182 29.111L24.923 29.864L23.426 33.183L21.174 30.321Z" fill="white"/>
<rect x="14.6561" y="37.9756" width="3.75404" height="1" fill="#7F97A3"/>
<rect x="23.9406" y="37.9756" width="3.75404" height="1" fill="#7F97A3"/>
<path d="M14.7361 18.8125H15.249C15.249 18.8125 14.9372 16.8166 15.8519 16.1722V14.8832C15.8519 14.8832 15.4984 14.8416 15.4984 13.3241C15.4984 11.8063 17.3072 10.7251 21.1741 10.7251V6.06824C21.1741 6.06824 13.5303 6.89277 13.5303 12.4402V16.2554C13.8677 16.204 14.2118 16.2888 14.4866 16.4911C14.9164 16.8515 14.7361 18.8125 14.7361 18.8125Z" fill="#8B5F3C"/>
<path d="M27.5395 18.8125H27.0268C27.0268 18.8125 27.3386 16.8166 26.4236 16.1722V14.8832C26.4236 14.8832 26.7772 14.8416 26.7772 13.3241C26.7772 11.8063 24.9684 10.7251 21.1016 10.7251V6.06824C21.1016 6.06824 28.7452 6.89277 28.7452 12.4402V16.2554C28.4078 16.204 28.0638 16.2888 27.7889 16.4911C27.3592 16.8515 27.5395 18.8125 27.5395 18.8125Z" fill="#8B5F3C"/>
<path d="M21.1741 23.986C22.5151 23.986 23.6022 23.5429 23.6022 22.9966H18.7461C18.7461 23.5429 19.8332 23.986 21.1741 23.986Z" fill="white"/>
</svg>
