<svg width="42" height="42" viewBox="0 0 42 42" fill="none" xmlns="http://www.w3.org/2000/svg">
<path d="M21.1741 41.2302C32.3487 41.2302 41.4075 32.1714 41.4075 20.9969C41.4075 9.82232 32.3487 0.76355 21.1741 0.76355C9.99958 0.76355 0.940811 9.82232 0.940811 20.9969C0.940811 32.1714 9.99958 41.2302 21.1741 41.2302Z" fill="#29A69C"/>
<path d="M41.4075 20.997C41.4075 15.6307 39.2758 10.4843 35.4814 6.68971C31.6869 2.89518 26.5404 0.763425 21.1741 0.763428V41.2301C26.5403 41.2302 31.6868 39.0985 35.4813 35.304C39.2758 31.5096 41.4075 26.3632 41.4075 20.997Z" fill="#27A096"/>
<path d="M21.2117 22.742C26.1025 22.742 30.0673 18.7772 30.0673 13.8864C30.0673 8.99565 26.1025 5.03088 21.2117 5.03088C16.3209 5.03088 12.3562 8.99565 12.3562 13.8864C12.3562 18.7772 16.3209 22.742 21.2117 22.742Z" fill="#61402F"/>
<path d="M24.174 32.85L21.174 41.266L18.249 32.85V26.353H24.174V32.85Z" fill="#EAC8AD"/>
<path d="M21.2116 8.3457C18.3346 8.3457 13.7848 9.98131 13.7848 17.6451C13.6411 20.2896 14.4791 22.894 16.1381 24.9584C16.7169 25.6963 19.6859 28.0811 21.2116 28.0811V8.3457Z" fill="#F2D7BC"/>
<path d="M12.3536 19.4725C12.2266 18.2479 12.8104 17.1614 13.6566 17.0451C14.5034 16.9291 15.2924 17.8278 15.4193 19.0522C15.5462 20.2763 14.9625 21.3629 14.1161 21.4791C13.2695 21.5952 12.4805 20.6967 12.3536 19.4725Z" fill="#F2D7BC"/>
<path d="M21.1881 8.3457C24.0651 8.3457 28.6148 9.98131 28.6148 17.6451C28.7586 20.2896 27.9205 22.894 26.2616 24.9584C25.683 25.6963 22.714 28.0811 21.1881 28.0811L21.1881 8.3457Z" fill="#EAC0A7"/>
<path d="M30.0696 19.4725C30.1965 18.2479 29.613 17.1614 28.7666 17.0451C27.92 16.9291 27.131 17.8278 27.0038 19.0522C26.8769 20.2763 27.4606 21.3629 28.3072 21.4791C29.1537 21.5952 29.9427 20.6967 30.0696 19.4725Z" fill="#EAC0A7"/>
<path d="M21.1142 6.48929C20.9694 6.47035 20.8236 6.45995 20.6776 6.45813C20.6776 6.45813 15.8182 6.82213 14.4657 13.1512C13.1722 14.3265 13.0522 16.319 14.1954 17.641C14.4116 15.8557 15.0655 14.5627 16.1967 14.0706C18.204 13.1975 19.0304 14.0088 21.3564 12.2239C22.5949 11.1597 23.1824 9.52247 22.903 7.9136C22.6308 7.13397 21.935 6.57996 21.1142 6.48929Z" fill="#61402F"/>
<path d="M22.5954 8.2479C22.5954 8.2479 20.8441 14.7824 28.4916 17.5183C30.3239 11.5368 26.9767 7.63489 22.5954 8.2479Z" fill="#61402F"/>
<path d="M21.1741 41.2665V33.173C21.1741 33.173 18.9637 32.6253 18.4761 30.8347C18.3364 30.329 18.2601 29.8079 18.2488 29.2834C18.2488 29.2834 13.4154 30.916 12.3363 32.6021C11.4383 35.275 11.1921 41.2665 11.1921 41.2665H21.1741Z" fill="#EAC8AD"/>
<path d="M21.1741 41.2665V33.173C21.1741 33.173 23.3847 32.6253 23.8721 30.8347C24.0118 30.329 24.0882 29.8079 24.0995 29.2834C24.0995 29.2834 28.9329 30.916 30.012 32.6021C30.91 35.275 31.1561 41.2665 31.1561 41.2665H21.1741Z" fill="#EAC8AD"/>
<path d="M21.2118 25.382C22.1921 25.4983 23.0889 24.8189 23.2424 23.8438H19.181C19.3345 24.819 20.2315 25.4983 21.2118 25.382Z" fill="white"/>
<path d="M21.2117 7.82643C22.7557 7.82643 24.0074 6.57477 24.0074 5.03077C24.0074 3.48677 22.7557 2.23511 21.2117 2.23511C19.6677 2.23511 18.4161 3.48677 18.4161 5.03077C18.4161 6.57477 19.6677 7.82643 21.2117 7.82643Z" fill="#61402F"/>
<path d="M21.1741 35.2112C18.6998 35.2112 16.6892 32.844 16.6355 29.9001C15.9055 30.1665 15.201 30.4984 14.5308 30.8918C14.0802 32.4312 13.731 33.9984 13.4854 35.5834C13.3583 37.4873 13.4945 39.3997 13.8901 41.2664H21.1741L21.1741 35.2112Z" fill="#90C53F"/>
<path d="M21.1741 35.2112C23.6485 35.2112 25.659 32.844 25.7127 29.9001C26.4428 30.1665 27.1473 30.4984 27.8175 30.8918C28.2681 32.4312 28.6173 33.9984 28.8629 35.5834C28.99 37.4873 28.8538 39.3997 28.4581 41.2664H21.1741L21.1741 35.2112Z" fill="#5FA63C"/>
</svg>
