<svg width="42" height="42" viewBox="0 0 42 42" fill="none" xmlns="http://www.w3.org/2000/svg">
<path d="M21.1741 41.2804C32.3488 41.2804 41.4077 32.2215 41.4077 21.0468C41.4077 9.87211 32.3488 0.813232 21.1741 0.813232C9.99939 0.813232 0.940514 9.87211 0.940514 21.0468C0.940514 32.2215 9.99939 41.2804 21.1741 41.2804Z" fill="#6C9625"/>
<path d="M41.4077 21.0468C41.4077 15.6805 39.2759 10.534 35.4814 6.73947C31.6868 2.94493 26.5403 0.813201 21.174 0.813232V41.2804C26.5403 41.2804 31.6868 39.1487 35.4814 35.3541C39.276 31.5596 41.4077 26.4131 41.4077 21.0468Z" fill="#678E23"/>
<path d="M29.8555 21.7102C29.8555 26.505 25.9686 24.0176 21.1741 24.0176C16.3796 24.0176 12.4928 26.505 12.4928 21.7102V13.8625C12.4928 11.56 13.4074 9.3519 15.0355 7.72382C16.6635 6.09575 18.8717 5.18112 21.1741 5.18115C23.4766 5.18114 25.6847 6.09578 27.3128 7.72385C28.9408 9.35192 29.8555 11.5601 29.8555 13.8625V21.7102Z" fill="#461811"/>
<path d="M21.2117 22.7917C26.1025 22.7917 30.0672 18.8269 30.0672 13.9361C30.0672 9.04534 26.1025 5.08057 21.2117 5.08057C16.3209 5.08057 12.3561 9.04534 12.3561 13.9361C12.3561 18.8269 16.3209 22.7917 21.2117 22.7917Z" fill="#461811"/>
<path d="M24.175 32.9L21.174 41.316L18.249 32.9V26.403H24.175V32.9Z" fill="#EAC8AD"/>
<path d="M21.2117 8.39526C18.3347 8.39526 13.7848 10.0309 13.7848 17.6949C13.6411 20.3394 14.4792 22.9439 16.1383 25.0082C16.7168 25.7458 19.686 28.1309 21.2117 28.1309V8.39526Z" fill="#F2D7BC"/>
<path d="M12.3537 19.5223C12.2267 18.2977 12.8102 17.211 13.6565 17.095C14.5032 16.9787 15.2924 17.8774 15.4193 19.102C15.5462 20.3262 14.9625 21.4127 14.116 21.5289C13.2695 21.6449 12.4804 20.7465 12.3537 19.5223Z" fill="#F2D7BC"/>
<path d="M21.1882 8.39526C24.0652 8.39526 28.6148 10.0309 28.6148 17.6949C28.7586 20.3394 27.9206 22.9438 26.2616 25.0082C25.6831 25.7458 22.714 28.1309 21.1882 28.1309L21.1882 8.39526Z" fill="#EAC0A7"/>
<path d="M30.0697 19.5223C30.1964 18.2977 29.6128 17.211 28.7666 17.095C27.9198 16.9787 27.131 17.8774 27.0041 19.102C26.8771 20.3262 27.4606 21.4127 28.3071 21.5289C29.1537 21.6449 29.9426 20.7465 30.0697 19.5223Z" fill="#EAC0A7"/>
<path d="M21.1741 41.3161V33.2227C21.1741 33.2227 18.9636 32.675 18.4763 30.8843C18.3364 30.3787 18.26 29.8576 18.2488 29.3331C18.2488 29.3331 13.4155 30.9657 12.3364 32.6518C11.4385 35.3246 11.1922 41.3161 11.1922 41.3161L21.1741 41.3161Z" fill="#EAC8AD"/>
<path d="M21.1741 41.3161V33.2227C21.1741 33.2227 23.3846 32.675 23.872 30.8843C24.0118 30.3787 24.0882 29.8576 24.0994 29.3331C24.0994 29.3331 28.9328 30.9657 30.0119 32.6518C30.9098 35.3246 31.1561 41.3161 31.1561 41.3161L21.1741 41.3161Z" fill="#EAC8AD"/>
<path d="M21.2117 25.4318C22.192 25.5481 23.0889 24.8687 23.2423 23.8936H19.181C19.3345 24.8687 20.2314 25.5481 21.2117 25.4318Z" fill="white"/>
<path d="M20.793 6.19025C18.9895 6.16483 17.2506 6.8612 15.9632 8.12447C14.6757 9.38773 13.9465 11.1131 13.9378 12.9168C12.0313 15.5666 14.1096 17.9375 15.5811 18.7704V17.4666C15.5811 15.7528 17.2104 14.166 19.6578 14.4301C21.8511 14.6668 23.2324 13.4275 24.3991 11.32C25.8397 8.49766 24.0418 6.19025 20.793 6.19025Z" fill="#461811"/>
<path d="M24.1745 10.4536C24.1745 10.4536 25.4027 15.4402 28.7666 17.0949C29.3654 12.6118 29.7192 13.5561 28.7666 11.1957C27.8142 8.83501 24.1745 7.0813 24.1745 7.0813L24.1745 10.4536Z" fill="#461811"/>
<path d="M21.1741 41.3161V34.5091L18.2488 29.3331C18.2488 29.3331 13.4155 30.9657 12.3364 32.6518C11.4385 35.3246 11.1922 41.3161 11.1922 41.3161L21.1741 41.3161Z" fill="#71B6E7"/>
<path d="M21.1741 41.3161V34.5091L24.0994 29.3331C24.0994 29.3331 28.9328 30.9657 30.0119 32.6518C30.9098 35.3246 31.1561 41.3161 31.1561 41.3161L21.1741 41.3161Z" fill="#5EACDD"/>
<path d="M21.174 34.509L18.249 29.333L15.562 30.193L17.849 35.325L21.174 34.509Z" fill="white"/>
<path d="M21.174 34.509L24.099 29.333L26.787 30.193L24.499 35.325L21.174 34.509Z" fill="white"/>
</svg>
