<svg width="42" height="42" viewBox="0 0 42 42" fill="none" xmlns="http://www.w3.org/2000/svg">
<path d="M21.1744 41.0461C32.3489 41.0461 41.4077 31.9874 41.4077 20.8128C41.4077 9.63824 32.3489 0.579468 21.1744 0.579468C9.99981 0.579468 0.941032 9.63824 0.941032 20.8128C0.941032 31.9874 9.99981 41.0461 21.1744 41.0461Z" fill="#827977"/>
<path d="M41.4078 20.813C41.4079 15.4467 39.2762 10.3002 35.4816 6.50559C31.6871 2.71101 26.5406 0.579229 21.1743 0.579224V41.0459C32.3488 41.0461 41.4076 31.9875 41.4078 20.813Z" fill="#7B7270"/>
<path d="M24.8557 29.7874C24.8557 29.7874 30.4898 30.611 31.3217 31.4774C32.0461 32.2322 33.5525 39.4601 33.9009 41.0462H21.1741V30.7828L24.8557 29.7874Z" fill="#2A2D34"/>
<rect x="18.2115" y="26.0496" width="5.9257" height="6.49733" fill="#D9A78C"/>
<path d="M21.1743 7.32373C24.0511 7.32373 28.6013 8.95913 28.6013 16.6232C28.6013 21.0481 27.1585 23.9469 26.53 24.7489C24.9874 25.9907 23.136 26.7893 21.1743 27.0591L21.1743 7.32373Z" fill="#EAC0A7"/>
<path d="M30.0321 18.4503C30.1591 17.226 29.5756 16.1394 28.7293 16.0232C27.8826 15.907 27.0936 16.8056 26.9667 18.0303C26.8397 19.2544 27.4233 20.3412 28.2698 20.4572C29.1164 20.5732 29.9055 19.6747 30.0321 18.4503Z" fill="#EAC0A7"/>
<path d="M21.1744 7.32373C18.2974 7.32373 13.7475 8.95913 13.7475 16.6232C13.7475 21.0481 15.1901 23.9469 15.8189 24.7489C17.3614 25.9907 19.2127 26.7893 21.1744 27.0591V7.32373Z" fill="#F2D7BC"/>
<path d="M12.3164 18.4503C12.1896 17.226 12.7729 16.1394 13.6194 16.0232C14.4661 15.907 15.2551 16.8056 15.382 18.0303C15.509 19.2544 14.9255 20.3412 14.0787 20.4572C13.2325 20.5732 12.4434 19.6747 12.3164 18.4503Z" fill="#F2D7BC"/>
<path d="M17.2995 8.92608C17.2995 8.92608 14.7866 11.9076 15.749 14.6877C15.9093 18.0024 15.5887 19.1249 14.5194 20.0339C14.7866 16.8261 14.4659 15.7568 13.2899 16.131C12.8088 13.6183 13.8466 6.84949 17.2995 8.92608Z" fill="#690102"/>
<path d="M25.0294 8.92608C25.0294 8.92608 27.5424 11.9076 26.5798 14.6877C26.4195 18.0024 26.7403 19.1249 27.8096 20.0339C27.5424 16.8261 27.863 15.7568 29.0392 16.131C29.5202 13.6183 28.4824 6.84949 25.0294 8.92608Z" fill="#690102"/>
<path d="M17.4927 29.7874C17.4927 29.7874 11.8587 30.611 11.0268 31.4774C10.3023 32.2322 8.79608 39.4601 8.44785 41.0462H21.1742V30.7828L17.4927 29.7874Z" fill="#2F343A"/>
<path d="M24.924 29.636L21.174 30.404L17.425 29.636L21.174 41.046" fill="#B9C7D0"/>
<path d="M20.862 31.943L20.25 39.659L21.174 41.046L22.099 39.659L21.487 31.943H20.862Z" fill="#129E95"/>
<path d="M18.4711 34.5616L15.4892 30.1386C16.3377 29.8352 17.2127 29.6116 18.1027 29.4705L21.1744 41.0462L16.8669 34.8792L18.4711 34.5616Z" fill="#3A404C"/>
<path d="M23.878 34.5616L26.8599 30.1386C26.0113 29.8352 25.1364 29.6116 24.2463 29.4705L21.1743 41.0462L25.482 34.8792L23.878 34.5616Z" fill="#3A404C"/>
<path d="M22.1858 31.4485L21.1744 32.4906L20.1631 31.4485L21.1744 30.4061L22.1858 31.4485Z" fill="#129E95"/>
<path d="M21.174 30.405L24.183 28.884L25.734 29.787L22.513 32.361L21.174 30.405Z" fill="white"/>
<path d="M21.174 30.405L18.166 28.884L16.615 29.787L19.781 32.361L21.174 30.405Z" fill="white"/>
<path d="M28.2733 10.2337C27.0898 5.36991 19.8792 1.54962 14.8109 9.18418C14.645 10.0817 15.0888 10.9815 15.9019 11.3961C15.9019 11.3961 16.8477 9.18418 21.1849 10.2049C23.3448 9.7328 25.4493 9.38107 26.4204 11.3782C27.3915 13.375 28.2733 10.2337 28.2733 10.2337Z" fill="#690102"/>
<path d="M25.4306 23.7753C23.9433 23.7753 22.8797 22.567 21.1741 22.567C19.4686 22.567 18.4049 23.7753 16.9175 23.7753C15.2871 23.7753 14.2613 20.9648 13.9518 19.9797C14.1599 21.8688 14.7987 23.6849 15.8189 25.2884C17.3614 26.5301 19.2126 27.3287 21.1743 27.5986H21.1744C23.1361 27.3287 24.9874 26.5301 26.53 25.2885C27.5505 23.684 28.1893 21.8668 28.3974 19.9767C28.0891 20.959 27.0629 23.7753 25.4306 23.7753Z" fill="#690102"/>
<path d="M21.1745 25.1269C21.676 25.1269 22.0826 24.9151 22.0826 24.6541H20.2665C20.2665 24.9151 20.6731 25.1269 21.1745 25.1269Z" fill="white"/>
</svg>
