<svg width="42" height="42" viewBox="0 0 42 42" fill="none" xmlns="http://www.w3.org/2000/svg">
<path d="M21.1743 41.046C32.3489 41.046 41.4078 31.9871 41.4078 20.8124C41.4078 9.63774 32.3489 0.578857 21.1743 0.578857C9.99956 0.578857 0.940681 9.63774 0.940681 20.8124C0.940681 31.9871 9.99956 41.046 21.1743 41.046Z" fill="#5A4980"/>
<path d="M41.4079 20.8123C41.4079 15.446 39.2761 10.2996 35.4815 6.50508C31.6869 2.71059 26.5404 0.578905 21.1741 0.578979V41.0461C26.5405 41.0461 31.687 38.9144 35.4816 35.1198C39.2762 31.3252 41.4079 26.1786 41.4079 20.8123Z" fill="#534378"/>
<path d="M13.3838 17.2068C13.3838 20.5961 11.5237 20.6839 11.6564 22.9281C11.8035 25.4139 13.7465 25.4192 13.7465 27.128C13.7465 28.8364 11.96 30.7519 13.5426 32.5914H21.1811V11.865L13.3838 17.2068Z" fill="#461811"/>
<path d="M28.9712 17.2068C28.9712 20.5961 30.8313 20.6839 30.6986 22.9281C30.5517 25.4139 28.6088 25.4192 28.6088 27.128C28.6088 28.8364 30.395 30.7519 28.8126 32.5914H21.1741V11.865L28.9712 17.2068Z" fill="#461811"/>
<path d="M21.2151 22.5577C26.1059 22.5577 30.0707 18.5929 30.0707 13.7021C30.0707 8.81133 26.1059 4.84656 21.2151 4.84656C16.3243 4.84656 12.3595 8.81133 12.3595 13.7021C12.3595 18.5929 16.3243 22.5577 21.2151 22.5577Z" fill="#461811"/>
<path d="M24.178 32.6659L21.178 41.0819L18.252 32.6659V26.1689H24.178V32.6659Z" fill="#EAC8AD"/>
<path d="M21.215 8.16113C18.338 8.16113 13.7883 9.79674 13.7883 17.4608C13.6446 20.1053 14.4827 22.7097 16.1417 24.7741C16.7201 25.5117 19.6894 27.8968 21.215 27.8968V8.16113Z" fill="#F2D7BC"/>
<path d="M12.357 19.2882C12.2301 18.0636 12.8138 16.9768 13.66 16.8608C14.5066 16.7446 15.2956 17.6433 15.4228 18.8679C15.5497 20.0921 14.966 21.1786 14.1193 21.2948C13.273 21.4108 12.4838 20.5123 12.357 19.2882Z" fill="#F2D7BC"/>
<path d="M21.1918 8.16113C24.0688 8.16113 28.6183 9.79674 28.6183 17.4608C28.762 20.1053 27.924 22.7097 26.2651 24.7741C25.6865 25.5117 22.7172 27.8968 21.1918 27.8968L21.1918 8.16113Z" fill="#EAC0A7"/>
<path d="M30.073 19.2882C30.1997 18.0636 29.6162 16.9768 28.77 16.8608C27.9232 16.7446 27.1344 17.6433 27.0075 18.8679C26.8806 20.0921 27.4641 21.1786 28.3105 21.2948C29.1569 21.4108 29.9461 20.5123 30.073 19.2882Z" fill="#EAC0A7"/>
<path d="M21.1776 41.0821V32.9887C21.1776 32.9887 18.9671 32.441 18.4799 30.6503C18.3399 30.1447 18.2635 29.6236 18.2523 29.0991C18.2523 29.0991 13.4187 30.7317 12.3396 32.4178C11.4418 35.0906 11.1956 41.0821 11.1956 41.0821L21.1776 41.0821Z" fill="#EAC8AD"/>
<path d="M21.1776 41.0821V32.9887C21.1776 32.9887 23.3881 32.441 23.8753 30.6503C24.0152 30.1447 24.0916 29.6236 24.1027 29.0991C24.1027 29.0991 28.9363 30.7317 30.0154 32.4178C30.9134 35.0906 31.1593 41.0821 31.1593 41.0821L21.1776 41.0821Z" fill="#EAC8AD"/>
<path d="M21.215 25.1977C22.1953 25.314 23.0923 24.6346 23.2458 23.6594H19.1842C19.3378 24.6346 20.2347 25.314 21.215 25.1977Z" fill="white"/>
<path d="M21.1776 37.9174C20.0262 35.0394 19.0493 32.0947 18.2523 29.0991C17.4463 29.4111 16.7866 29.6057 16.2824 29.867C14.7655 33.4192 13.9198 37.2218 13.7883 41.0821H21.1776V37.9174Z" fill="#EB1A3A"/>
<path d="M21.2102 37.9174C22.3616 35.0394 23.3385 32.0946 24.1355 29.0991C24.9414 29.4111 25.6012 29.6057 26.1054 29.867C27.6223 33.4192 28.468 37.2218 28.5995 41.0821H21.2102L21.2102 37.9174Z" fill="#C5132D"/>
<path d="M20.7966 5.95624C18.9931 5.93081 17.2542 6.62718 15.9667 7.89044C14.6793 9.15371 13.9501 10.8791 13.9413 12.6828C12.0346 15.3326 14.1131 17.7035 15.5843 18.5364V17.2325C15.5843 15.5188 17.2139 13.932 19.6612 14.1961C21.8545 14.4328 23.2358 13.1935 24.4026 11.086C25.8431 8.26368 24.045 5.95624 20.7966 5.95624Z" fill="#461811"/>
<path d="M24.178 10.2196C24.178 10.2196 25.4061 15.2062 28.7701 16.8609C29.3689 12.3779 29.7227 13.3221 28.7701 10.9617C27.8174 8.601 24.178 6.84729 24.178 6.84729V10.2196Z" fill="#461811"/>
</svg>
