<svg width="42" height="41" viewBox="0 0 42 41" fill="none" xmlns="http://www.w3.org/2000/svg">
<path d="M21.1744 40.4913C32.349 40.4913 41.4078 31.4325 41.4078 20.2579C41.4078 9.08333 32.349 0.0245361 21.1744 0.0245361C9.99978 0.0245361 0.940987 9.08333 0.940987 20.2579C0.940987 31.4325 9.99978 40.4913 21.1744 40.4913Z" fill="#6C9625"/>
<path d="M41.4079 20.2581C41.408 14.8918 39.2762 9.74533 35.4817 5.9508C31.6872 2.15627 26.5407 0.0245255 21.1744 0.0245361V40.491C32.3488 40.4911 41.4077 31.4326 41.4079 20.2581Z" fill="#678E23"/>
<path d="M24.8931 29.2325C24.8931 29.2325 30.5273 30.0562 31.3591 30.9225C32.0834 31.6774 33.5898 38.9053 33.9382 40.4914H21.2116V29.5387L24.8931 29.2325Z" fill="#2D404E"/>
<rect x="18.2491" y="25.3607" width="5.92548" height="6.49733" fill="#D9A78C"/>
<path d="M21.2116 6.76904C24.0886 6.76904 28.6388 8.40441 28.6388 16.0685C28.6388 20.4934 27.1959 23.3922 26.5673 24.1942C25.0247 25.436 23.1734 26.2346 21.2116 26.5044L21.2116 6.76904Z" fill="#EAC0A7"/>
<path d="M30.0696 17.8956C30.1965 16.6713 29.613 15.5847 28.7666 15.4685C27.92 15.3523 27.131 16.251 27.004 17.4756C26.8771 18.6997 27.4606 19.7865 28.3072 19.9025C29.1539 20.0185 29.9429 19.12 30.0696 17.8956Z" fill="#EAC0A7"/>
<path d="M21.2118 6.76904C18.3348 6.76904 13.7848 8.40441 13.7848 16.0685C13.7848 20.4934 15.2275 23.3922 15.856 24.1942C17.3986 25.436 19.25 26.2346 21.2118 26.5044L21.2118 6.76904Z" fill="#F2D7BC"/>
<path d="M12.3538 17.8956C12.2269 16.6713 12.8104 15.5847 13.6567 15.4685C14.5036 15.3523 15.2926 16.251 15.4195 17.4756C15.5464 18.6997 14.9627 19.7865 14.1161 19.9025C13.2697 20.0185 12.4807 19.12 12.3538 17.8956Z" fill="#F2D7BC"/>
<path d="M17.3369 8.37139C17.3369 8.37139 14.824 11.353 15.7864 14.133C15.9468 17.4477 15.626 18.5702 14.5569 19.4792C14.824 16.2714 14.5034 15.2021 13.3274 15.5763C12.8462 13.0636 13.8839 6.29481 17.3369 8.37139Z" fill="#E6E7E8"/>
<path d="M25.0667 8.37139C25.0667 8.37139 27.5799 11.353 26.6173 14.133C26.4571 17.4477 26.7777 18.5702 27.847 19.4792C27.5799 16.2714 27.9005 15.2021 29.0765 15.5763C29.5577 13.0636 28.5197 6.29481 25.0667 8.37139Z" fill="#E6E7E8"/>
<path d="M17.5301 29.2325C17.5301 29.2325 11.8963 30.0562 11.0641 30.9225C10.3397 31.6774 8.83336 38.9053 8.48513 40.4914H21.2116V29.5387L17.5301 29.2325Z" fill="#344650"/>
<path d="M24.961 29.082L21.212 29.539L17.462 29.082L21.212 40.491" fill="#B9C7D0"/>
<path d="M20.829 30.641L20.08 38.357L21.212 40.491L22.344 38.357L21.594 30.641H20.829Z" fill="#B63C40"/>
<path d="M18.5085 34.0069L15.5265 29.5839C16.375 29.2805 17.25 29.0569 18.14 28.9158L21.212 40.4915L16.9045 34.3245L18.5085 34.0069Z" fill="#222B30"/>
<path d="M23.9156 34.0069L26.8974 29.5839C26.0488 29.2805 25.1738 29.0569 24.2838 28.9158L21.212 40.4915L25.5195 34.3245L23.9156 34.0069Z" fill="#222B30"/>
<path d="M22.2233 30.5765L21.212 31.588L20.2006 30.5765L21.212 29.5651L22.2233 30.5765Z" fill="#B63C40"/>
<path d="M21.212 29.539L18.203 28.329L17.462 29.082L18.959 32.401L21.212 29.539Z" fill="white"/>
<path d="M21.212 29.539L24.22 28.329L24.961 29.082L23.464 32.401L21.212 29.539Z" fill="white"/>
<path d="M21.245 21.772V22.494L19.046 22.968H18.588L21.245 21.772Z" fill="#5C2F12"/>
<path d="M21.222 21.772V22.494L23.421 22.968H23.88L21.222 21.772Z" fill="#5C2F12"/>
</svg>
