<svg width="42" height="42" viewBox="0 0 42 42" fill="none" xmlns="http://www.w3.org/2000/svg">
<path d="M21.1741 41.0847C32.3488 41.0847 41.4077 32.0258 41.4077 20.8511C41.4077 9.67643 32.3488 0.617554 21.1741 0.617554C9.99939 0.617554 0.940514 9.67643 0.940514 20.8511C0.940514 32.0258 9.99939 41.0847 21.1741 41.0847Z" fill="#29A69C"/>
<path d="M41.4077 20.8512C41.4077 15.4848 39.276 10.3383 35.4814 6.54379C31.6868 2.74925 26.5403 0.617517 21.174 0.617554V41.0847C26.5403 41.0847 31.6868 38.953 35.4814 35.1585C39.2759 31.364 41.4077 26.2175 41.4077 20.8512Z" fill="#27A096"/>
<path d="M21.1748 22.596C26.0656 22.596 30.0304 18.6312 30.0304 13.7404C30.0304 8.84966 26.0656 4.88489 21.1748 4.88489C16.2841 4.88489 12.3193 8.84966 12.3193 13.7404C12.3193 18.6312 16.2841 22.596 21.1748 22.596Z" fill="#482B1B"/>
<path d="M24.138 32.704L21.137 41.12L18.212 32.704V26.207H24.138V32.704Z" fill="#EAC8AD"/>
<path d="M21.1748 8.19983C18.2978 8.19983 13.7481 9.8352 13.7481 17.4993C13.6044 20.1438 14.4424 22.7482 16.1014 24.8125C16.68 25.5501 19.6492 27.9352 21.1748 27.9352V8.19983Z" fill="#F2D7BC"/>
<path d="M12.3168 19.3266C12.19 18.102 12.7736 17.0155 13.6198 16.8992C14.4665 16.7832 15.2555 17.6817 15.3824 18.9063C15.5094 20.1305 14.9258 21.217 14.0793 21.3332C13.2329 21.4492 12.4438 20.5508 12.3168 19.3266Z" fill="#F2D7BC"/>
<path d="M21.1514 8.19983C24.0284 8.19983 28.5781 9.8352 28.5781 17.4993C28.7219 20.1438 27.8838 22.7482 26.2247 24.8125C25.6463 25.5501 22.677 27.9352 21.1514 27.9352L21.1514 8.19983Z" fill="#EAC0A7"/>
<path d="M30.0328 19.3266C30.1597 18.102 29.5761 17.0155 28.7299 16.8992C27.8831 16.7832 27.0942 17.6817 26.9672 18.9063C26.8402 20.1305 27.4239 21.217 28.2704 21.3332C29.1169 21.4492 29.9059 20.5508 30.0328 19.3266Z" fill="#EAC0A7"/>
<path d="M21.1374 41.1204V33.027C21.1374 33.027 18.9268 32.4791 18.4397 30.6887C18.2997 30.1831 18.2232 29.662 18.2121 29.1375C18.2121 29.1375 13.3786 30.77 12.2995 32.4561C11.4016 35.1289 11.1555 41.1204 11.1555 41.1204H21.1374Z" fill="#EAC8AD"/>
<path d="M21.1374 41.1204V33.027C21.1374 33.027 23.3478 32.4791 23.8353 30.6887C23.9751 30.183 24.0515 29.662 24.0626 29.1375C24.0626 29.1375 28.8961 30.77 29.9751 32.4561C30.8731 35.1289 31.1192 41.1204 31.1192 41.1204H21.1374Z" fill="#EAC8AD"/>
<path d="M21.1374 41.1204V33.027C21.1374 33.027 18.9268 32.4791 18.4397 30.6887C18.2997 30.1831 18.2232 29.662 18.2121 29.1375C18.2121 29.1375 13.3786 30.77 12.2995 32.4561C11.4016 35.1289 11.1555 41.1204 11.1555 41.1204H21.1374Z" fill="#EAC8AD"/>
<path d="M21.1374 41.1204V33.027C21.1374 33.027 23.3478 32.4791 23.8353 30.6887C23.9751 30.183 24.0515 29.662 24.0626 29.1375C24.0626 29.1375 28.8961 30.77 29.9751 32.4561C30.8731 35.1289 31.1192 41.1204 31.1192 41.1204H21.1374Z" fill="#EAC8AD"/>
<path d="M21.1748 25.2361C22.1551 25.3524 23.052 24.673 23.2055 23.6979H19.1442C19.2977 24.673 20.1946 25.3524 21.1748 25.2361Z" fill="white"/>
<path d="M20.7562 5.99469C18.9527 5.96932 17.2138 6.66572 15.9264 7.92898C14.639 9.19223 13.9098 10.9176 13.9011 12.7212C11.9945 15.3711 14.0729 17.742 15.5442 18.5749V17.271C15.5442 15.5573 17.1737 13.9705 19.6211 14.2346C21.8144 14.4714 23.1955 13.2319 24.3624 11.1244C25.8029 8.30234 24.0051 5.99469 20.7562 5.99469Z" fill="#482B1B"/>
<path d="M24.1377 10.258C24.1377 10.258 25.3659 15.2446 28.7299 16.8992C29.3286 12.4164 29.6824 13.3607 28.7299 11C27.7774 8.63933 24.1377 6.88586 24.1377 6.88586V10.258Z" fill="#482B1B"/>
<path d="M29.9751 32.4561C29.0751 31.0497 25.5647 29.6811 24.4243 29.2657C24.3558 31.0315 22.9044 32.4277 21.1373 32.4277C19.3702 32.4277 17.9188 31.0315 17.8503 29.2657C16.7101 29.6812 13.1997 31.0497 12.2995 32.4561C11.4017 35.1289 11.1555 41.1204 11.1555 41.1204H31.1192C31.1192 41.1204 30.8731 35.1289 29.9751 32.4561Z" fill="#FAA21C"/>
<path d="M31.1193 41.1205C31.1193 41.1205 30.8731 35.1291 29.9751 32.4562C29.0751 31.0498 25.5647 29.6813 24.4243 29.2659C24.3557 31.0316 22.9045 32.4277 21.1374 32.4279V41.1206L31.1193 41.1205Z" fill="#F68E1F"/>
<path d="M16.7663 29.6851C17.1029 31.8385 18.9578 33.4259 21.1373 33.4259C23.3169 33.4259 25.1718 31.8385 25.5084 29.6851C25.0642 29.5036 24.683 29.3599 24.4243 29.2657C24.3558 31.0315 22.9044 32.4277 21.1373 32.4277C19.3702 32.4277 17.9188 31.0315 17.8503 29.2657C17.5919 29.3599 17.2106 29.5035 16.7663 29.6851Z" fill="#39B54A"/>
<path d="M21.1749 7.84778C22.8112 7.84778 24.1377 6.52128 24.1377 4.88495C24.1377 3.24862 22.8112 1.92212 21.1749 1.92212C19.5385 1.92212 18.212 3.24862 18.212 4.88495C18.212 6.52128 19.5385 7.84778 21.1749 7.84778Z" fill="#482B1B"/>
</svg>
