<svg xmlns="http://www.w3.org/2000/svg" viewBox="0 0 167.416 43.5">
    <defs>
        <style>
            .cls-1{fill:url(#radial-gradient)}.cls-2{filter:url(#Path_184)}
        </style>
        <radialGradient id="radial-gradient" cx=".5" cy=".5" r="2.426" gradientTransform="matrix(.218 0 0 .206 .391 .397)">
            <stop offset="0" stop-color="#fd7759"/>
            <stop offset="1" stop-color="#ff5028"/>
        </radialGradient>
        <filter id="Path_184" width="167.416" height="43.5" x="0" y="0" filterUnits="userSpaceOnUse">
            <feOffset dy="2"/>
            <feGaussianBlur result="blur" stdDeviation="1.5"/>
            <feFlood flood-color="#041233"/>
            <feComposite in2="blur" operator="in"/>
            <feComposite in="SourceGraphic"/>
        </filter>
    </defs>
    <g class="cls-2">
        <path id="Path_184-2" d="M155.317 18.7a20.4 20.4 0 0 1-3.532 5.041c-1.564 1.375-3.478 3.154-5.23 1.941-.89-.62-.539-2.238-.162-3.451s2.211-7.306 2.211-7.306h5.041l1.755-5.719h-5.041l2.292-7.414-8.441 2.318-1.51 5.123h-2.21l-1.779 5.688h2.211s-.922 3.289-1.052 3.613a24.991 24.991 0 0 1-3.4 5.662c-1.7 1.86-2.453 1.941-2.912 1.7-.458-.27-.4-1.321.054-2.669s1.483-4.745 1.806-5.985.7-4.583-.782-6.5-5.446-3.154-9.382.189a15.511 15.511 0 0 0 .539-1.7h-7.683s-2.75 8.978-2.885 9.382a13.809 13.809 0 0 1-5.877 6.5c-3.72 1.806-7.441 1.051-8.492-1.375 1.941-.027 8.735-.539 10.865-4.907s.324-8.384-4.934-9.786S96.141 11.308 94.6 13.87a18.45 18.45 0 0 0-2.588 7.144 16.839 16.839 0 0 1-3.1 4.179c-1.024.782-1.618.755-1.914.566-.324-.162-.243-1.051.189-2.534.431-1.456 1.671-4.853 1.429-6.47a5.457 5.457 0 0 0-3.1-3.99 267.89 267.89 0 0 0-4.071-1.914l1.483-3.855s-1.375-2.022-3.262-2.1a4.589 4.589 0 0 0-5.1 3.828 4.934 4.934 0 0 0 1.76 4.576c-.62 1.429-2.4 6.2-4.26 8.9-1.833 2.7-3.37 4.152-4.34 3.586-.485-.3-.162-1.752.081-2.588.27-.836 1.024-3.181 1.294-4.394s.458-3.8-1.564-5.176a32.548 32.548 0 0 0-5.473-2.777c.377-.836 1.564-3.855 1.564-3.855s-1.51-2.211-3.4-2.184a4.8 4.8 0 0 0-4.8 3.208 4.99 4.99 0 0 0 1.591 5.2 54.4 54.4 0 0 1-3.586 7.872c-1.725 2.831-3.289 5.1-5.041 4.664-.458-.108-.431-.89.135-2.588s4.34-14.019 4.34-14.019h-7.63s-4.26 13.857-4.34 14.127a3.517 3.517 0 0 1-3.424 1.429c-1.725-.485-.728-2.372-.35-3.64s3.616-11.913 3.616-11.913l-7.71-.027s-2.642 8.924-2.831 9.463-3.613 7.009-9.085 8.519-9.031.647-11.161-2.939-1.078-8.978.081-11.323c1.186-2.157 3.909-6.416 8.762-6.5 1.941-.027 2.345 1.105 2.345 1.105-2.265 1.779-2.75 5.715-.081 7.414a4.856 4.856 0 0 0 6.821-1.132c1.456-2 2.4-6.713-1.591-10.7-4.233-4.233-12.752-3.8-17.982 0S-3.07 16.512 1.486 27.161c2.831 6.524 10.568 7.63 14.262 7.306A19 19 0 0 0 28.661 27.3c.971 2.426 2.345 3.8 4.907 3.963 2.588.162 4.448.081 7.333-2.831 1.051 2.345 3.235 3.559 6.929 2.588 3.72-.971 8.546-5.392 11.781-15.879a10.1 10.1 0 0 1 1.752.782c.3.162.782.485.377 1.941s-2.561 7.036-1.779 9.678 2.345 4.367 5.931 3.774c3.613-.62 6.821-3.154 9.49-7.926a40.409 40.409 0 0 0 3.64-8.2 9.359 9.359 0 0 1 1.348.647c.566.35 1 .7.62 2.13s-2.912 7.845-1.618 10.11 1.941 3.37 4.988 3.343 6.228-2.211 8.492-5.311a9.354 9.354 0 0 0 7.6 5.284 15.108 15.108 0 0 0 11.916-3.235c-.324.917-.944 2.912-.944 2.912h7.63l4.346-14.154s1.51-1.725 3.019-1.645 1.51 1.671 1.132 2.885c-.4 1.213-2.049 5.823-1.941 8.088.081 2.265 1.051 4.961 4.367 5.176 3.289.189 6.012-1.213 8.789-4.556a5.719 5.719 0 0 0 6.012 4.583c4.125.027 6.362-1.51 8.762-3.882 2.372-2.345 4.125-6.093 4.772-7.36a4.922 4.922 0 0 0-2.995-1.505zm-54.971 1.537c.108-1 .89-3.613 2.372-4.448s2.292-.35 2.7.054a2.21 2.21 0 0 1-.863 3.127 6.649 6.649 0 0 1-4.208 1.262z" class="cls-1" data-name="Path 184" transform="translate(4.61 2.48)"/>
    </g>
</svg>
