<?xml version="1.0" encoding="utf-8"?>
<!-- Generator: Adobe Illustrator 22.1.0, SVG Export Plug-In . SVG Version: 6.00 Build 0)  -->
<svg version="1.1" id="Layer_1" xmlns="http://www.w3.org/2000/svg" xmlns:xlink="http://www.w3.org/1999/xlink" x="0px" y="0px"
	 viewBox="0 0 353 51" style="enable-background:new 0 0 353 51;" xml:space="preserve">
<style type="text/css">
	.st0{fill:#FFC944;stroke:#08132F;stroke-linecap:round;stroke-linejoin:round;stroke-miterlimit:10;}
</style>
<g>
	<path class="st0" d="M11.4,28.8l0.9-2.4l2.2-5.4l7.9-18.1h7.9v18.6c0,2.4-0.2,4.9-0.6,7.4c0.2-0.4,1.2-3.1,3.1-8.1l7.1-17.9h9.1
		L34.1,37.1H23.3V22.6c0-2.4,0.1-5,0.3-7.6c-0.5,2.1-1.4,4.8-2.8,8.2l-5.9,13.9H4.7L3.5,2.9h8.7L12,20
		C11.9,24.2,11.7,27.1,11.4,28.8z"/>
	<path class="st0" d="M66,37.1H45.6l7.2-34.3h20.3l-1.5,7.4H60.5l-1.1,5.4h10.4l-1.7,7.4H57.7l-1.3,6.5h11.2L66,37.1z"/>
	<path class="st0" d="M93,37.1H72.6l7.2-34.3h20.3l-1.5,7.4H87.5l-1.1,5.4h10.4l-1.7,7.4H84.7l-1.3,6.5h11.2L93,37.1z"/>
	<path class="st0" d="M127.9,37.1h-10.3l-4.1-13.5l-2.3,1.3l-2.5,12.2h-9.2l7.2-34.3h9.2l-3.2,14.6l0.9-1.4c1.4-2.2,2.4-3.8,3-4.6
		l7-8.7h10.8l-12.9,15.8L127.9,37.1z"/>
	<path class="st0" d="M140.7,47.9c-1.7,0-3.3-0.2-5-0.7v-7.5c1.5,0.4,2.9,0.6,4.1,0.6c1.7,0,2.9-0.5,3.8-1.4s1.5-2.4,2-4.6l6.8-31.5
		h9.2l-7,32.7c-0.7,3.1-1.6,5.6-2.6,7.3s-2.5,3-4.3,3.9S143.5,47.9,140.7,47.9z"/>
	<path class="st0" d="M181.4,30.7h-10.5l-2.9,6.4h-9.5l17.4-34.3h11.8l2.9,34.3h-8.9L181.4,30.7z M174.3,23.4h6.9l-0.4-9.9l0-2
		c0-1.2,0-2.2,0.1-3.1c-0.4,1.3-0.9,2.6-1.4,3.9L174.3,23.4z"/>
	<path class="st0" d="M214.4,10c-1.7,0-3.2,0.6-4.6,1.8s-2.4,2.9-3.2,5s-1.2,4.5-1.2,7c0,2.1,0.4,3.7,1.3,4.7s2.1,1.5,3.8,1.5
		c1.3,0,2.6-0.2,3.9-0.5s2.9-0.9,4.7-1.6v7.6c-3.2,1.4-6.6,2.1-10.3,2.1c-4.1,0-7.2-1.2-9.4-3.5s-3.3-5.6-3.3-9.9
		c0-4.2,0.8-8,2.4-11.4s3.7-6.1,6.5-7.9s5.8-2.6,9.4-2.6c4.1,0,7.9,1,11.3,3.1l-3.5,7.1c-1.5-0.9-2.8-1.5-4-1.9S215.7,10,214.4,10z"
		/>
	<path class="st0" d="M253.1,37.1h-10.3l-4.1-13.5l-2.3,1.3l-2.5,12.2h-9.2L232,2.9h9.2L238,17.5l0.9-1.4c1.4-2.2,2.4-3.8,3-4.6
		l7-8.7h10.8l-12.9,15.8L253.1,37.1z"/>
	<path class="st0" d="M285.4,13.1c0,3.9-1.3,7-4,9.3s-6.3,3.4-11,3.4h-2L266,37.1h-9.2l7.2-34.3h8.7c4,0,7.2,0.9,9.3,2.7
		S285.4,9.8,285.4,13.1z M270,18.3h1.5c1.4,0,2.6-0.5,3.4-1.4s1.3-2.1,1.3-3.5c0-0.9-0.3-1.7-0.8-2.2s-1.3-0.8-2.3-0.8h-1.4
		L270,18.3z"/>
	<path class="st0" d="M307,2.3c4.1,0,7.2,1.2,9.5,3.5s3.4,5.6,3.4,9.7s-0.8,8-2.3,11.4s-3.7,6.1-6.4,7.9s-5.9,2.8-9.5,2.8
		c-4.2,0-7.4-1.2-9.7-3.5s-3.4-5.6-3.4-9.7s0.8-7.9,2.4-11.4s3.8-6.1,6.6-7.9S303.4,2.3,307,2.3z M310.6,15.6c0-1.8-0.4-3.2-1.1-4.2
		s-1.8-1.5-3.3-1.5c-1.5,0-3,0.7-4.3,2s-2.3,3.1-3.1,5.4s-1.2,4.6-1.2,7.1c0,3.8,1.6,5.7,4.7,5.7c1.5,0,2.9-0.6,4.1-1.9s2.3-3,3-5.2
		S310.6,18.2,310.6,15.6z"/>
	<path class="st0" d="M336.1,37.1h-9.2l5.6-26.7H325l1.6-7.6h24.1l-1.7,7.6h-7.5L336.1,37.1z"/>
</g>
</svg>
