<svg xmlns="http://www.w3.org/2000/svg" viewBox="0 0 12.948 17.018">
    <defs>
        <style>
            .cls-1,.cls-2{fill:none;stroke:#1ad7de;stroke-linejoin:round;stroke-miterlimit:10}.cls-1{stroke-linecap:round}
        </style>
    </defs>
    <g id="Group_613" data-name="Group 613" transform="translate(-3.293 -3.5)">
        <path id="Path_199" d="M30.994 48.2s-.093 3.752-1.251 5.441c-.958 1.41-1.41 1.41-1.69 1.41h-.013c-.266 0-.718 0-1.69-1.41-1.144-1.676-1.25-5.441-1.25-5.441z" class="cls-1" data-name="Path 199" transform="translate(-18.293 -38.32)"/>
        <path id="Path_200" d="M62.658 54.26a1.4 1.4 0 0 1 1.982.253 2.048 2.048 0 0 1-.572 2.541 6.265 6.265 0 0 1-2.368 1.21" class="cls-1" data-name="Path 200" transform="translate(-50.024 -43.316)"/>
        <path id="Path_201" d="M11.339 54.26a1.4 1.4 0 0 0-1.982.253 2.048 2.048 0 0 0 .572 2.541 6.309 6.309 0 0 0 2.355 1.211" class="cls-1" data-name="Path 201" transform="translate(-4.426 -43.316)"/>
        <path id="Line_187" d="M0 0h3.552" class="cls-1" data-name="Line 187" transform="translate(7.991 20.018)"/>
        <path id="Line_188" d="M0 0v2.874" class="cls-2" data-name="Line 188" transform="translate(9.761 16.945)"/>
        <g id="Group_611" data-name="Group 611" transform="translate(4 6.035)">
            <path id="Line_189" d="M2.395 2.315L0 0" class="cls-1" data-name="Line 189"/>
            <path id="Line_190" d="M0 2.315L2.395 0" class="cls-1" data-name="Line 190" transform="translate(9.14)"/>
        </g>
        <path id="Line_191" d="M0 3.552V0" class="cls-1" data-name="Line 191" transform="translate(9.761 4)"/>
    </g>
</svg>
