<svg width="206" height="149" viewBox="0 0 206 149" fill="none" xmlns="http://www.w3.org/2000/svg">
<path d="M141.088 56.329C139.088 54.217 137.22 51.9565 135.062 50.0194C126.696 42.5094 117.359 36.7538 106.109 34.6591C99.3398 33.3988 92.883 33.9037 87.2431 38.3587C85.9729 39.3621 84.8737 40.5818 83.2071 42.1667C82.7897 40.7678 82.4744 39.3403 82.2636 37.8957C81.9288 31.9303 83.0187 25.9708 85.4434 20.5102C88.2012 14.1326 93.1689 11.0749 100.081 11.2964C102.565 11.3559 105.04 11.6152 107.482 12.072C109.126 12.5749 110.888 11.7724 111.588 10.2012C112.625 8.36608 113.656 6.52415 114.783 4.74395C115.834 2.92229 117.583 1.60907 119.625 1.10888C121.668 0.608691 123.826 0.964994 125.599 2.09515C127.365 3.08442 128.663 4.736 129.208 6.68485C129.753 8.63369 129.499 10.7193 128.503 12.4808C127.825 13.8226 126.996 15.0875 126.258 16.4002C124.899 18.8176 125.042 19.6663 127.097 21.4656C136.459 29.3443 141.96 40.8838 142.186 53.1176C142.17 54.0514 142.103 54.9836 141.984 55.9099L141.088 56.329Z" fill="#FF0000"/>
<path d="M76.0917 89.6698C77.4344 89.2438 78.2355 88.9415 79.0607 88.7353C90.5575 85.8617 101.137 81.1772 109.803 72.866C113.804 69.0292 117.214 64.7268 118.643 59.1987C119.567 55.6796 119.458 51.9687 118.329 48.5099C118.225 47.8821 118.212 47.2428 118.29 46.6113C118.924 46.5497 119.564 46.5923 120.184 46.7374C127.858 50.0218 133.854 55.2142 137.566 62.7456C139.263 66.1283 139.194 70.1284 137.381 73.4506C135.736 76.4822 133.845 79.3737 131.727 82.096C130.552 83.6491 130.26 84.9485 131.25 86.5968C132.297 88.3391 133.317 90.0996 134.283 91.8875C135.391 93.7168 135.701 95.9203 135.141 97.9845C134.581 100.049 133.2 101.793 131.319 102.811C127.54 104.965 123.016 103.678 120.591 99.7398C119.841 98.522 119.086 97.301 118.44 96.027C117.441 94.0557 115.991 93.5743 113.953 94.3243C106.729 97.1108 98.8453 97.7126 91.2822 96.055C86.7872 95.0353 82.523 92.9808 78.1809 91.3241C77.4184 90.8617 76.7166 90.306 76.0917 89.6698H76.0917Z" fill="#FF0000"/>
<path d="M96.7405 74.3451C96.0931 75.0852 95.3881 75.7728 94.6321 76.4015C89.2511 80.2038 82.9393 82.4749 76.3692 82.9725C70.6568 83.4854 65.9691 81.3618 62.9249 76.4105C61.3856 73.8308 60.0795 71.1188 59.0223 68.3068C58.2461 66.3171 57.1008 65.4132 55.0027 65.4542C52.8222 65.4969 50.6303 65.5068 48.4588 65.336C44.2327 65.0794 40.9766 61.509 41.1096 57.2772C41.2425 53.0454 44.7162 49.6863 48.9501 49.6955C50.4548 49.6526 51.966 49.5759 53.4652 49.6656C55.816 49.8063 56.8787 48.6339 57.2635 46.446C59.451 34.1829 66.9041 23.4949 77.6553 17.2037C78.3139 16.9298 79.0066 16.7463 79.7144 16.6582C79.7737 17.3565 79.747 18.0594 79.635 18.7511C76.447 29.7426 75.0253 40.8761 77.5743 52.1724C78.446 55.9046 79.7527 59.5215 81.4679 62.9489C84.0025 68.2896 88.9016 72.1271 94.6939 73.309C95.2042 73.4249 95.7126 73.5551 96.2108 73.7134C96.3279 73.7506 96.4001 73.9291 96.7405 74.3451Z" fill="#FF0000"/>
<path d="M40.7928 124.722C45.8566 121.522 48.7722 121.693 53.6234 125.074C54.3697 125.302 55.1799 125.162 55.8058 124.696C58.6376 122.446 62.4155 121.783 65.8439 122.934C69.8212 124.046 72.2823 127.422 72.4721 132.171C72.6583 136.829 72.5141 141.499 72.5656 146.163C72.5793 147.412 72.1116 147.977 70.8477 147.901C70.0965 147.851 69.3428 147.853 68.5918 147.905C67.2285 148.008 66.7255 147.428 66.7495 146.062C66.8117 142.527 66.8121 138.991 66.7508 135.454C66.747 134.102 66.5993 132.754 66.3102 131.434C65.9478 129.334 64.0992 127.818 61.9691 127.874C59.7704 127.621 57.7316 129.057 57.229 131.212C56.9175 132.372 56.758 133.567 56.7544 134.767C56.6936 138.453 56.669 142.142 56.7532 145.827C56.789 147.396 56.2537 147.951 54.6773 147.918C50.2507 147.825 50.9756 148.221 50.9346 144.194C50.9017 140.959 50.992 137.721 50.891 134.489C50.8605 133.143 50.6175 131.81 50.171 130.539C49.5213 128.772 47.7553 127.671 45.8827 127.866C43.9688 127.874 42.4331 128.606 41.7777 130.439C41.2947 131.773 41.0206 133.174 40.9653 134.592C40.8542 138.275 40.8296 141.968 40.9631 145.649C41.0304 147.505 40.3253 148.099 38.6091 147.906C38.0091 147.851 37.4054 147.848 36.805 147.898C35.5179 147.982 35.1157 147.359 35.1222 146.134C35.1597 139.062 35.1261 131.989 35.1939 124.917C35.1995 124.332 35.8216 123.234 36.0867 123.255C37.7244 123.387 39.8204 122.103 40.7928 124.722Z" fill="#FF0000"/>
<path fill-rule="evenodd" clip-rule="evenodd" d="M94.9491 123.004C91.2254 121.672 87.0742 122.421 84.0515 124.971L83.3868 124.603C83.3868 123.859 83.3705 123.115 83.3542 122.369C83.317 120.668 83.2797 118.966 83.4368 117.282C83.6579 114.913 82.4641 114.733 80.6369 114.79C80.4705 114.795 80.307 114.797 80.1473 114.8C78.6515 114.82 77.4983 114.835 77.5406 117.248C77.6577 123.925 77.6405 130.604 77.6234 137.284C77.6161 140.089 77.6089 142.893 77.6117 145.698C77.6121 146.13 77.6524 146.562 77.6991 147.064C77.723 147.32 77.7486 147.594 77.7714 147.895C78.3749 147.776 79.0165 147.839 79.6473 147.9C81.2309 148.055 82.7457 148.203 83.4153 145.457C85.8977 147.812 89.2852 148.966 92.6891 148.615C96.0475 148.374 99.1153 146.623 101.031 143.853C104.45 139.119 104.547 131.426 100.773 126.948C99.2007 125.157 97.1956 123.799 94.9491 123.004ZM85.2007 129.892C86.6262 128.513 88.5562 127.781 90.5377 127.869C94.8569 127.873 97.8187 131.044 97.7857 135.626C97.7534 140.099 94.7821 143.231 90.5898 143.211C86.1476 143.19 82.9494 139.796 83.0009 135.159C82.9797 133.176 83.7752 131.271 85.2007 129.892Z" fill="#FF0000"/>
<path fill-rule="evenodd" clip-rule="evenodd" d="M30.2428 147.881C30.7649 147.877 31.3049 147.873 31.8693 147.873C31.7558 147.523 31.6603 147.21 31.5726 146.922C31.4048 146.371 31.2654 145.914 31.0827 145.474C29.8717 142.562 28.6555 139.653 27.4393 136.743C24.6495 130.07 21.8599 123.396 19.1344 116.697C18.4383 114.986 17.3521 114.812 15.8071 114.789C14.2028 114.765 13.2448 115.115 12.5634 116.795C9.79355 123.625 6.94849 130.425 4.10345 137.225C2.93947 140.007 1.77548 142.789 0.616653 145.573C0.447006 145.98 0.318756 146.405 0.190735 146.829C0.131226 147.026 0.0717468 147.223 0.00820923 147.418C4.51321 148.89 6.11845 148.186 7.70921 144.172C7.72746 144.126 7.74707 144.081 7.76668 144.035L7.79691 143.964C9.02553 141.044 9.2579 139.91 9.93468 139.488C10.6007 139.072 11.6973 139.347 14.5975 139.289C15.2095 139.276 15.8575 139.223 16.5113 139.17C18.4209 139.014 20.3814 138.854 21.6475 139.691C22.823 140.468 23.3903 142.166 23.9574 143.863C24.205 144.604 24.4525 145.345 24.7506 146.009C24.8471 146.371 25.0008 146.716 25.2059 147.031C25.5141 147.426 25.9442 147.709 26.4295 147.835C27.6581 147.901 28.8908 147.892 30.2428 147.881ZM15.3051 124.748L16.3721 124.754L19.7975 133.49C19.1461 133.49 18.5305 133.494 17.9415 133.497C16.2622 133.508 14.7992 133.517 13.3416 133.432C13.0251 133.414 12.4133 132.521 12.5131 132.227C13.1718 130.288 13.909 128.375 14.6462 126.463C14.8665 125.891 15.0869 125.32 15.3051 124.748Z" fill="#FF0000"/>
<path fill-rule="evenodd" clip-rule="evenodd" d="M190.252 142.879C188.18 142.126 186.6 140.419 186.008 138.295C186.337 138.27 186.645 138.241 186.937 138.213C187.528 138.157 188.06 138.107 188.591 138.106C189.405 138.103 190.219 138.1 191.033 138.097C195.111 138.081 199.189 138.065 203.266 138.127C204.923 138.152 205.482 137.58 205.499 135.903C205.58 127.922 200.2 122.371 192.362 122.486C186.501 122.466 181.38 126.439 179.942 132.12C178.415 137.754 180.735 143.726 185.664 146.852C190.775 149.818 197.216 149.146 201.604 145.189C202.748 143.891 203.798 142.514 204.746 141.067C204.04 141.059 203.374 141.026 202.739 140.994C200.362 140.875 198.423 140.778 196.449 142.09C194.632 143.338 192.324 143.632 190.252 142.879ZM194.086 132.99C193.583 132.989 193.08 132.987 192.577 132.987C192.006 132.985 191.435 132.988 190.864 132.991C189.71 132.997 188.556 133.003 187.404 132.967C186.115 132.927 185.81 132.214 186.503 131.18C187.828 129.114 190.126 127.879 192.58 127.916C194.959 127.782 197.226 128.939 198.514 130.944C199.307 132.114 199.15 132.954 197.525 132.981C196.379 132.999 195.233 132.995 194.086 132.99Z" fill="#FF0000"/>
<path fill-rule="evenodd" clip-rule="evenodd" d="M144.738 147.868C149.064 149.719 153.242 148.558 156.774 145.631C156.902 145.75 157.009 145.836 157.092 145.903C157.225 146.01 157.3 146.071 157.313 146.142C157.696 148.371 159.127 148.142 160.459 147.928C160.862 147.863 161.257 147.8 161.611 147.807C163.04 147.835 162.936 146.774 162.844 145.843C162.821 145.615 162.799 145.396 162.801 145.202C162.84 140.364 162.834 135.524 162.828 130.685C162.826 129.28 162.824 127.875 162.823 126.47C162.821 122.981 162.805 122.853 159.336 123.226C158.71 123.294 158.133 123.815 157.466 124.418C157.13 124.721 156.772 125.045 156.373 125.343C154.303 123.205 151.361 122.144 148.402 122.468C145.279 122.594 142.344 123.995 140.28 126.343C136.176 130.855 135.491 138.429 139.097 143.275C140.559 145.258 142.5 146.838 144.738 147.868ZM150.327 127.878C154.563 127.938 157.37 131.015 157.359 135.589C157.348 140.217 154.407 143.256 149.993 143.202C145.549 143.147 142.592 140.065 142.636 135.533C142.55 133.472 143.334 131.469 144.797 130.014C146.259 128.558 148.266 127.783 150.327 127.878Z" fill="#FF0000"/>
<path d="M99.2001 63.9664C93.7426 63.9292 89.3452 59.481 89.3707 54.0233C89.3804 50.4351 91.3192 47.1293 94.4464 45.3695C97.5735 43.6097 101.405 43.6679 104.478 45.5218C107.55 47.3757 109.388 50.7388 109.288 54.3257C109.254 56.9502 108.166 59.4508 106.268 61.2642C104.371 63.0776 101.824 64.0515 99.2001 63.9664Z" fill="#FF0000"/>
<path d="M134.362 129.881C131.359 129.53 129.078 130.68 127.128 128.446C126.181 127.362 124.68 127.661 123.8 128.884C123.406 129.366 123.266 130.008 123.423 130.611C123.579 131.214 124.014 131.706 124.593 131.936C125.45 132.403 126.368 132.749 127.319 132.965C130.562 133.791 133.675 134.831 134.371 138.675C134.962 141.945 134.104 144.89 131.328 146.888C128.333 149.097 124.329 149.365 121.067 147.577C118.998 146.573 117.489 144.693 116.959 142.456C116.568 141.031 116.798 140.109 118.614 140.223C120.423 140.336 122.219 139.893 123.424 142.1C123.823 142.83 125.866 143.012 127.058 142.822C127.933 142.378 128.506 141.503 128.562 140.524C128.206 139.452 127.453 138.556 126.458 138.019C124.893 137.163 123.038 136.849 121.439 136.041C119.392 135.071 117.955 133.154 117.599 130.918C117.243 128.681 118.013 126.413 119.658 124.856C122.882 121.511 129.009 121.518 131.992 125.056C132.973 126.22 133.395 127.855 134.362 129.881Z" fill="#FF0000"/>
<path d="M173.998 123.104C176.196 122.978 177.991 122.981 177.687 125.911C177.518 127.53 177.292 128.534 175.412 128.337C173.822 128.17 173.829 129.263 173.833 130.391C173.849 135.28 173.715 140.173 173.891 145.055C173.974 147.36 173.289 148.096 170.991 147.942C168.054 147.745 168.041 147.894 168.039 144.939C168.037 140.277 168.038 135.614 168.041 130.951C168.042 129.756 168.201 128.661 166.579 128.105C165.376 127.693 165.536 123.512 166.733 123.28C168.172 123.002 168.007 122.104 168.164 121.174C168.584 117.343 171.76 114.407 175.612 114.287C177.038 114.196 177.742 114.602 177.636 116.139C177.555 117.327 177.62 118.525 177.62 119.634C174.336 120.811 174.336 120.811 173.998 123.104Z" fill="#FF0000"/>
<path d="M107.416 135.551C107.419 132.091 107.481 128.63 107.391 125.173C107.349 123.568 107.965 122.976 109.507 123.13C110.177 123.197 110.946 122.943 111.513 123.192C112.168 123.479 113.128 124.153 113.136 124.671C113.242 131.89 113.243 139.109 113.138 146.33C113.131 146.858 112.203 147.575 111.555 147.836C110.817 147.955 110.067 147.979 109.323 147.905C107.823 148.046 107.36 147.371 107.39 145.93C107.461 142.472 107.413 139.011 107.416 135.551Z" fill="#FF0000"/>
<path d="M110.354 120.231C109.327 120.272 108.359 119.749 107.831 118.867C107.303 117.985 107.299 116.884 107.82 115.998C108.341 115.112 109.305 114.581 110.333 114.615C111.851 114.589 113.107 115.789 113.149 117.307C113.181 118.069 112.901 118.812 112.374 119.364C111.846 119.916 111.117 120.229 110.354 120.231Z" fill="#FF0000"/>
</svg>
