<svg width="176" height="53" viewBox="0 0 176 53" fill="none" xmlns="http://www.w3.org/2000/svg">
<rect x="0.448975" y="0.328125" width="174.58" height="52.1486" rx="8.9904" fill="white"/>
<path fill-rule="evenodd" clip-rule="evenodd" d="M168.406 1.70215L87.8834 1.70166C61.1106 1.69751 34.3378 1.7002 7.56503 1.70996C6.93219 1.69873 6.30048 1.76807 5.68512 1.91626C3.40405 2.51831 1.85718 4.63672 1.97821 6.99292C1.97665 16.6729 1.97589 26.3528 1.97589 36.0327C1.97589 36.9929 1.97513 37.9531 1.97437 38.9133C1.9725 41.2402 1.97067 43.5671 1.97968 45.894C1.89877 48.0767 3.26422 50.052 5.33453 50.7476C6.0918 50.9746 6.87936 51.0842 7.66983 51.0728C61.1703 51.0815 114.671 51.0859 168.171 51.0857L168.324 51.0862C168.477 51.0872 168.63 51.0881 168.783 51.0811C170.152 51.0845 171.462 50.5286 172.411 49.5422C173.36 48.5559 173.865 47.2249 173.808 45.8574C173.815 32.8904 173.812 19.9233 173.8 6.9563C173.804 6.39136 173.729 5.82886 173.577 5.28467C172.906 3.02612 170.756 1.53687 168.406 1.70215ZM39.7816 26.584C39.972 29.3115 41.6639 31.7068 44.171 32.7979C43.2426 35.613 41.67 38.1731 39.5782 40.2737C38.3306 41.5142 36.4387 41.8389 34.8489 41.085C33.9508 40.7188 33.0217 40.4338 32.0728 40.2336C30.8503 40.085 29.6108 40.2927 28.5036 40.832C25.6424 42.022 24.2509 41.6487 22.2631 39.2488C19.3585 35.8403 17.6557 31.5708 17.4174 27.0989C17.1196 24.2385 18.0331 21.384 19.9362 19.228C21.9767 16.7983 25.3783 16.011 28.279 17.2969C29.9765 18.1277 31.9635 18.123 33.6573 17.2849C35.893 16.2241 38.5026 16.3047 40.6685 17.5017C41.7248 18.0303 42.6212 18.8311 43.2655 19.821C40.9342 21.2495 39.5913 23.8564 39.7816 26.584ZM75.2262 39.832C75.5236 40.1536 75.8445 40.4526 76.1863 40.7266C76.538 40.9712 76.9243 41.1616 77.3326 41.2915C79.7314 42.0317 82.313 40.9229 83.4279 38.6736C84.4392 36.7119 84.6095 34.4236 83.8996 32.3337C83.4634 30.4634 81.9529 29.0337 80.0613 28.7007C78.1669 28.2427 76.1884 29.0183 75.1097 30.6416C75.0994 30.6565 75.0689 30.6575 75.027 30.6587C75.0034 30.6594 74.9761 30.6604 74.9468 30.6638L74.7798 28.9153H72.4749V46.2129H75.2262V39.832ZM89.4746 40.0447V46.2224H86.7018V28.9187H88.9988L89.2158 30.824C89.8333 29.8188 90.8121 29.0884 91.9512 28.7822C94.4956 28.0339 97.1749 29.439 98.0062 31.9573C98.7916 33.991 98.7428 36.2524 97.8704 38.2505C96.8934 40.7573 94.1415 42.0789 91.5742 41.2739C90.8309 40.9434 90.1267 40.531 89.4746 40.0447ZM70.0075 41.2285C70.0059 41.1118 69.9944 40.9954 69.9731 40.8806L64.6763 24.4858C64.6144 24.1907 64.3271 23.9998 64.031 24.0569L63.9499 24.0591C63.2297 24.0796 62.5065 24.0999 61.7895 24.0503C61.2512 24.0127 61.0499 24.2358 60.897 24.7158C59.2163 29.9944 57.5244 35.2693 55.8212 40.5408C55.778 40.675 55.7422 40.8118 55.7008 40.9702C55.6796 41.0513 55.6569 41.1379 55.6309 41.2329L55.9027 41.2322L55.9877 41.2317L56.0688 41.2312L56.1456 41.2307L56.2177 41.2302L56.2852 41.2297L56.3478 41.2292C56.8846 41.2251 57.3889 41.2212 57.8922 41.241C58.0563 41.2737 58.2267 41.2363 58.3621 41.1377C58.4973 41.0391 58.5851 40.8882 58.6039 40.7219C58.8005 40.0193 59.0151 39.3218 59.2297 38.624C59.4207 38.0032 59.6116 37.3823 59.7899 36.7581C59.9055 36.353 60.0623 36.1628 60.523 36.1719C62.0175 36.2019 63.5131 36.1963 65.0078 36.1746C65.1725 36.147 65.3414 36.187 65.4762 36.2856C65.611 36.3843 65.7003 36.533 65.7239 36.6985C66.1246 38.0415 66.558 39.3752 67.0045 40.7039C67.0712 40.9023 67.2673 41.1965 67.4174 41.2051C68.0486 41.241 68.6823 41.2366 69.3317 41.2317L69.4111 41.2312C69.6083 41.2297 69.807 41.2285 70.0075 41.2285ZM107.364 24.2354C109.476 23.554 111.767 23.6885 113.785 24.6128L113.09 26.8484C111.794 26.1843 110.319 25.9514 108.882 26.1838C107.925 26.2791 107.132 26.9663 106.903 27.8994C106.679 28.8665 107.147 29.8608 108.035 30.3044C108.469 30.5698 108.933 30.7856 109.397 31.0015C109.651 31.1196 109.905 31.238 110.155 31.3645C110.894 31.7041 111.613 32.0837 112.311 32.5015C113.785 33.4783 114.594 35.1926 114.412 36.9512C114.23 38.7097 113.087 40.2219 111.444 40.8762C109.179 41.7561 106.659 41.7117 104.426 40.7524C103.957 40.5657 103.735 40.333 103.959 39.7854C104.148 39.2468 104.307 38.6982 104.435 38.1421C105.906 39.0146 107.629 39.3635 109.323 39.1316C110.42 39.054 111.345 38.2852 111.621 37.2212C111.911 36.0979 111.377 34.9248 110.34 34.4055C109.937 34.1646 109.504 33.9736 109.071 33.7825L109.069 33.7815L109.067 33.7805L109.065 33.7798L109.048 33.7722C108.784 33.656 108.521 33.5396 108.264 33.4114C107.565 33.093 106.887 32.7322 106.233 32.3303C104.667 31.4285 103.839 29.637 104.168 27.8599C104.415 26.1226 105.671 24.6982 107.364 24.2354ZM131.207 28.6199C128.336 28.4609 125.802 30.4783 125.312 33.3118C125.109 34.4231 125.091 35.5601 125.257 36.6772C125.575 39.0222 127.346 40.9072 129.666 41.3723C132.12 41.9758 134.691 40.9915 136.114 38.9036C136.985 37.5059 137.359 35.8557 137.177 34.219C137.149 32.678 136.498 31.2139 135.374 30.1594C134.25 29.105 132.747 28.5498 131.207 28.6199ZM157.007 38.9023C157.102 38.8733 157.204 38.842 157.318 38.8088L157.763 40.7266C155.161 41.5552 152.616 41.9429 150.112 40.5662C149.185 40.0591 148.464 39.2456 148.071 38.2649C147.047 35.9875 147.213 33.3511 148.516 31.2207C149.764 29.1147 152.261 28.0964 154.626 28.7297C156.805 29.3088 158.338 31.259 158.386 33.5127C158.428 33.9817 158.417 34.4553 158.406 34.9521C158.401 35.1875 158.395 35.428 158.395 35.6755H150.207C149.999 37.2095 150.935 38.6677 152.416 39.1184C153.758 39.4778 155.175 39.4519 156.504 39.0437C156.661 39.0076 156.817 38.9604 156.999 38.9048L157.007 38.9023ZM123.309 39.1143L123.027 39.1467L123.012 39.1484L123 39.1499L122.984 39.1519L122.939 39.157L122.91 39.1604L122.891 39.1624C122.793 39.1733 122.703 39.1833 122.613 39.1921C121.321 39.3162 120.75 38.8821 120.563 37.6123C120.516 37.2764 120.492 36.9375 120.492 36.5984C120.487 35.5161 120.488 34.4338 120.489 33.3518L120.489 32.1838V30.9116H123.538C123.538 30.7468 123.535 30.5891 123.532 30.4363C123.526 30.106 123.52 29.7991 123.547 29.4951C123.592 28.98 123.396 28.8218 122.892 28.8457C122.346 28.8716 121.799 28.8662 121.23 28.8604C120.984 28.8579 120.733 28.8555 120.477 28.8555V25.7937C120.239 25.865 120.008 25.9368 119.782 26.0071L119.775 26.0095C119.256 26.1709 118.763 26.3242 118.262 26.4453C117.86 26.5427 117.774 26.7546 117.788 27.1201C117.803 27.5042 117.8 27.8884 117.797 28.3022V28.3057L117.797 28.3113C117.795 28.4937 117.794 28.6814 117.794 28.8774H116.043V30.9653H117.794L117.793 31.292L117.793 31.3057V31.3176C117.792 31.5105 117.792 31.6833 117.794 31.856C117.802 32.498 117.804 33.1404 117.806 33.783C117.812 35.291 117.818 36.7993 117.89 38.3042C117.826 39.906 119.029 41.2764 120.626 41.4187C121.235 41.4712 121.848 41.4634 122.455 41.3955C123.411 41.2952 123.41 41.2666 123.363 40.3225L123.362 40.3157C123.35 40.0586 123.339 39.8015 123.327 39.5269L123.309 39.1143ZM143.688 29.1599C144.383 28.6372 145.279 28.4617 146.119 28.6833V31.2039L145.991 31.2107L145.97 31.2119C145.874 31.2178 145.787 31.2229 145.7 31.2209C144.806 31.0996 143.906 31.3938 143.256 32.0198C142.607 32.6458 142.279 33.5347 142.367 34.4324C142.34 35.8481 142.345 37.2646 142.35 38.6812C142.352 39.3022 142.354 39.9231 142.353 40.5442V41.1885H139.607V28.918H141.941V31.0317C142.485 30.373 143.068 29.748 143.688 29.1599ZM36.9975 8.67847L36.9698 8.68237L36.9655 8.68286L36.9538 8.68457L36.9503 8.68506C36.7494 8.71362 36.5477 8.74243 36.3499 8.78857C33.1698 9.56812 30.8723 12.3337 30.6887 15.6028C30.6917 16.0425 30.7711 16.2649 31.288 16.2363C34.6868 16.0481 37.8719 12.0552 37.257 8.63989C37.1897 8.65088 37.122 8.66064 37.0542 8.67041L37.0252 8.67456L36.9975 8.67847ZM58.0597 18.0115C57.7933 18.0071 57.5235 18.0027 57.2488 18.0027V9.6333C58.6294 9.35181 60.0541 9.36719 61.4282 9.67871C63.4485 10.2205 64.4648 12.0317 64.1055 14.3735C63.759 16.6323 62.3351 17.8286 59.7334 17.9949C59.2034 18.0283 58.6707 18.0208 58.1235 18.0129H58.1152L58.1066 18.0127L58.0978 18.0125L58.0887 18.0122L58.0793 18.012L58.0696 18.0117L58.0597 18.0115ZM113.38 12.3381C112.987 12.1135 112.57 11.9314 112.137 11.7954C111.437 11.6609 110.712 11.8176 110.13 12.2297C109.549 12.6416 109.16 13.2729 109.054 13.978C108.652 15.844 109.427 17.6165 110.851 17.9768C111.601 18.2268 112.428 18.0557 113.017 17.5281C113.181 17.3523 113.335 17.1677 113.479 16.9749L113.565 17.8801H114.682V9.10815H113.38V12.3381ZM77.7495 14.6506L77.7441 14.6328L77.7386 14.6145L77.7203 14.5527L77.6893 14.4482C77.601 14.1506 77.5124 13.8518 77.4244 13.5505C77.3246 13.8779 77.2238 14.2041 77.1231 14.5298L77.1136 14.5608L77.1042 14.5911L77.095 14.6211L77.0854 14.6519L77.0786 14.6741C76.7855 15.6218 76.4937 16.5657 76.2264 17.5164C76.1061 17.9441 75.832 17.9338 75.5391 17.9226L75.4374 17.9194C75.3964 17.9187 75.3552 17.9199 75.3145 17.9211L75.3017 17.9214C75.0493 17.9294 74.8128 17.9368 74.7036 17.5449C74.3654 16.3313 74.0065 15.1233 73.6475 13.9153C73.4782 13.3459 73.309 12.7764 73.1419 12.2063C73.1287 12.1057 73.1277 12.0039 73.1389 11.9028C73.3421 11.9011 73.545 11.8877 73.7466 11.8633C74.2848 11.7683 74.4952 12.0203 74.6013 12.5259C74.7935 13.4436 75.009 14.3564 75.2389 15.3298L75.2421 15.3435C75.3365 15.7432 75.4332 16.1531 75.5318 16.5779L75.7649 15.7734C75.9359 15.1831 76.0916 14.6453 76.2491 14.1082C76.3031 13.9241 76.3611 13.741 76.4191 13.5579L76.4198 13.5557C76.5393 13.1782 76.6588 12.801 76.7428 12.4158C76.84 11.9702 77.0628 11.8542 77.4955 11.8518C77.9241 11.8494 78.0777 12.0166 78.1816 12.4072C78.4407 13.3811 78.7194 14.3499 79.0048 15.3411L79.0077 15.3513L79.0217 15.4001C79.1274 15.7673 79.234 16.1379 79.3408 16.5129L79.5229 15.7917L79.622 15.3992L80.1811 13.1826C80.1935 13.1333 80.2044 13.0837 80.2153 13.0342L80.2164 13.0291C80.2293 12.9697 80.2422 12.9106 80.2576 12.8521C80.5413 11.7744 80.5416 11.7744 81.8098 11.9331L81.5596 12.7507C81.374 13.3584 81.1896 13.9622 81.0016 14.5647C80.9062 14.8706 80.806 15.1753 80.7056 15.4797C80.4944 16.1208 80.2833 16.762 80.1184 17.4148C79.9939 17.908 79.7066 17.9165 79.3515 17.9268L79.2632 17.9297C78.8713 17.9446 78.6572 17.8499 78.5444 17.425C78.3016 16.5105 78.0323 15.6033 77.759 14.6829L77.7571 14.6763L77.7551 14.6697L77.7532 14.6631L77.7495 14.6506ZM144.6 17.8699H145.902V17.3518C145.902 17.0398 145.9 16.7275 145.899 16.4155C145.895 15.6863 145.892 14.957 145.911 14.2283C145.893 13.8721 146.021 13.5237 146.266 13.2646C146.512 13.0056 146.853 12.8589 147.21 12.8584C147.959 12.8418 148.39 13.2781 148.466 14.1531C148.485 14.3745 148.484 14.5979 148.482 14.821C148.481 14.8926 148.481 14.9641 148.481 15.0354C148.482 15.9792 148.482 16.9236 148.481 17.8682H149.717C149.786 16.365 149.773 14.8591 149.679 13.3572C149.608 12.7681 149.263 12.2471 148.748 11.9512C148.234 11.655 147.61 11.6187 147.065 11.8528C146.648 12.0503 146.251 12.2878 145.88 12.5625V9.12549H144.55V10.1365C144.55 12.6521 144.55 15.1267 144.552 17.6016C144.56 17.6921 144.576 17.782 144.6 17.8699ZM70.9277 17.1289C70.3514 17.7415 69.5411 18.0789 68.7004 18.0566C67.8832 18.0862 67.093 17.762 66.532 17.167C65.9709 16.5723 65.6934 15.7644 65.7706 14.9504C65.6867 14.1135 65.9691 13.2812 66.5448 12.6682C67.1206 12.0549 67.9335 11.7209 68.774 11.7522C69.5912 11.7214 70.3822 12.0432 70.9456 12.636C71.509 13.2285 71.7905 14.0349 71.7184 14.8494C71.7917 15.6873 71.504 16.5164 70.9277 17.1289ZM123.363 18.0562C124.203 18.063 125.007 17.71 125.57 17.0857C126.134 16.4617 126.403 15.6265 126.311 14.7905C126.375 13.9749 126.082 13.1714 125.508 12.5884C124.934 12.0054 124.135 11.7004 123.318 11.7522C122.478 11.7456 121.675 12.0969 121.109 12.7183C120.544 13.3398 120.269 14.1726 120.355 15.0085C120.306 15.8237 120.606 16.6216 121.179 17.2029C121.753 17.7844 122.547 18.0945 123.363 18.0562ZM95.3015 17.1089C94.7563 16.4995 94.4998 15.6848 94.5975 14.873C94.5308 14.0347 94.832 13.2085 95.4225 12.6094C96.0132 12.0105 96.835 11.6978 97.6744 11.7524C98.4805 11.74 99.2535 12.0723 99.7992 12.6658C100.345 13.259 100.611 14.0571 100.532 14.8594C100.608 15.7087 100.311 16.5491 99.7187 17.1626C99.1264 17.7761 98.2969 18.1023 97.4454 18.0562C96.6277 18.0632 95.8467 17.7183 95.3015 17.1089ZM106.983 17.8625C106.983 17.4673 106.985 17.0762 106.987 16.6882V16.686V16.6838V16.6816V16.6794V16.6772C106.991 15.7791 106.995 14.8975 106.976 14.0164C107.067 13.1755 106.619 12.3682 105.858 12C104.767 11.5618 103.534 11.6592 102.526 12.2629L102.788 13.075C104.719 12.3879 105.628 12.6792 105.579 13.9907C105.247 13.9927 104.916 14.0254 104.59 14.0886C104.001 14.2207 103.43 14.4272 102.892 14.7031C102.182 15.1677 101.888 16.062 102.183 16.8579C102.401 17.6355 103.156 18.1353 103.957 18.0312C104.579 17.9119 105.188 17.7322 105.775 17.4944C105.835 17.6877 105.873 17.8074 105.954 17.8738C106.087 17.9817 106.334 17.949 106.983 17.8625ZM83.6069 17.8831V11.9031H84.6557L84.7685 12.4756C85.3463 12.1741 85.9575 11.9414 86.5894 11.7822C87.0911 11.6873 87.6094 11.8091 88.0165 12.1172C88.4236 12.4253 88.6814 12.8911 88.7263 13.3997C88.8114 14.4299 88.7924 15.469 88.7733 16.5195C88.765 16.9731 88.7567 17.429 88.7567 17.8872H87.5117L87.5124 17.0596C87.5133 16.3726 87.5142 15.6975 87.5094 15.0227C87.5154 14.6836 87.4976 14.3445 87.456 14.0078C87.3331 13.1865 86.9341 12.8303 86.2182 12.8596C85.5261 12.8774 84.971 13.4375 84.9597 14.1299C84.9299 14.8293 84.9321 15.5303 84.9343 16.2314L84.9344 16.248C84.9354 16.583 84.9364 16.918 84.9338 17.2529C84.9329 17.3862 84.9232 17.5195 84.9128 17.6636C84.9077 17.7336 84.9025 17.8064 84.8979 17.8831H83.6069ZM157.108 15.1941C157.41 13.5469 156.679 12.1292 155.404 11.8071C154.683 11.6091 153.912 11.7112 153.267 12.0896C152.622 12.4683 152.158 13.0916 151.979 13.8176C151.437 15.6006 152.135 17.3545 153.628 17.8494C154.692 18.1775 155.838 18.1125 156.857 17.6665L156.672 16.822C154.049 17.1548 153.06 16.6958 153.217 15.1941H157.108ZM128.34 17.8755V11.9084H129.411L129.514 12.6777C129.579 12.6208 129.638 12.5688 129.692 12.5203C129.799 12.425 129.89 12.3435 129.986 12.2673C130.603 11.7393 131.46 11.5906 132.219 11.8796C132.942 12.1423 133.447 12.8005 133.514 13.5667C133.561 13.8801 133.583 14.1968 133.579 14.5137C133.585 15.3079 133.584 16.1021 133.583 16.9133V16.9207V16.9282L133.582 17.8748H132.24L132.24 17.1406L132.241 17.1174V17.0942C132.241 16.5215 132.242 15.9519 132.238 15.3823L132.237 15.1863V15.1843C132.236 14.8203 132.234 14.4551 132.196 14.0945C132.104 13.2212 131.708 12.8389 130.971 12.8591C130.626 12.863 130.297 13.0044 130.057 13.2522C129.816 13.4998 129.685 13.833 129.692 14.178C129.662 14.8604 129.664 15.5442 129.667 16.228C129.668 16.5178 129.669 16.8076 129.667 17.0972C129.666 17.262 129.667 17.4268 129.667 17.6057L129.667 17.8755H128.34ZM142.626 12.8674V11.8665C142.37 11.8528 142.114 11.8545 141.858 11.8718C141.321 11.9404 141.112 11.731 141.176 11.1917C141.187 10.9385 141.178 10.6848 141.149 10.4329C140.206 10.4888 139.628 10.7944 139.877 11.8074L139.009 11.9207V12.8318L139.888 12.9199C139.888 13.2612 139.886 13.5991 139.883 13.9343C139.878 14.675 139.873 15.4036 139.894 16.1313C139.941 17.7717 140.985 18.4436 142.559 17.8789V16.9563C142.477 16.9517 142.392 16.9507 142.307 16.95L142.292 16.9497C141.807 16.9448 141.321 16.9399 141.28 16.3301C141.227 15.5354 141.238 14.7366 141.25 13.9236L141.25 13.9207C141.255 13.5725 141.26 13.2217 141.26 12.8677L142.626 12.8674ZM91.266 17.8926V9.08276H92.5245V17.8926H91.266Z" fill="#29ABE2"/>
<path d="M44.1709 32.7978C43.2426 35.6131 41.67 38.173 39.5782 40.2736C38.3305 41.5142 36.4387 41.8388 34.8488 41.085C33.9508 40.7188 33.0217 40.4339 32.0727 40.2337C30.8502 40.0849 29.6107 40.2927 28.5036 40.8319C25.6424 42.0219 24.2509 41.6488 22.2631 39.2488C19.3584 35.8403 17.6557 31.5709 17.4174 27.0989C17.1196 24.2386 18.033 21.3841 19.9362 19.2281C21.9767 16.7983 25.3782 16.0109 28.2789 17.2969C29.9765 18.1276 31.9635 18.1231 33.6573 17.2849C35.893 16.2241 38.5026 16.3048 40.6684 17.5016C41.7248 18.0304 42.6212 18.831 43.2655 19.821C40.9342 21.2496 39.5913 23.8565 39.7816 26.5841C39.9719 29.3117 41.6638 31.7068 44.1709 32.7978Z" fill="white"/>
<path fill-rule="evenodd" clip-rule="evenodd" d="M75.2262 46.2129V39.832C75.5235 40.1536 75.8445 40.4526 76.1863 40.7266C76.538 40.9712 76.9243 41.1616 77.3326 41.2915C79.7314 42.0317 82.313 40.9229 83.4279 38.6736C84.4392 36.7119 84.6095 34.4236 83.8996 32.3337C83.4634 30.4634 81.9529 29.0337 80.0613 28.7007C78.1669 28.2427 76.1884 29.0183 75.1097 30.6416C75.0994 30.6565 75.0689 30.6575 75.027 30.6587C75.0034 30.6594 74.9761 30.6604 74.9468 30.6638L74.7798 28.9153H72.4749V46.2129H75.2262ZM75.2006 35.218L75.1442 35.2073C75.1979 34.4661 75.2973 33.7288 75.4417 32.9995C75.7525 31.8005 76.7821 30.9255 78.0156 30.812C79.2786 30.6526 80.4911 31.3623 80.9705 32.5417C81.728 34.1719 81.7015 36.0583 80.8983 37.6667C80.3405 38.9224 78.9655 39.6006 77.6296 39.2788C76.3375 39.0356 75.3714 37.9526 75.2769 36.6414C75.2394 36.3179 75.2286 35.9915 75.2179 35.665C75.213 35.5161 75.208 35.3669 75.2006 35.218Z" fill="white"/>
<path fill-rule="evenodd" clip-rule="evenodd" d="M86.7018 46.2222H89.4746V40.0444C90.1267 40.5308 90.8309 40.9431 91.5742 41.2737C94.1415 42.0786 96.8934 40.7571 97.8704 38.2502C98.7428 36.2522 98.7916 33.9907 98.0062 31.957C97.1749 29.4387 94.4956 28.0337 91.9512 28.782C90.8121 29.0881 89.8333 29.8186 89.2158 30.8237L88.9988 28.9185H86.7018V46.2222ZM89.4628 35.1504L89.3994 35.1448C89.4341 34.4915 89.5043 33.8403 89.6094 33.1948C89.8715 31.9351 90.9032 30.98 92.1793 30.8159C93.5134 30.6311 94.7966 31.3982 95.2656 32.6606C95.9182 34.1819 95.9157 35.9045 95.2589 37.4238C94.7596 38.8118 93.3026 39.6084 91.8646 39.2795C90.4807 38.9966 89.4817 37.7864 89.4664 36.3738C89.4499 36.0955 89.4543 35.8157 89.4587 35.5359C89.4608 35.4075 89.4628 35.2788 89.4628 35.1504Z" fill="white"/>
<path fill-rule="evenodd" clip-rule="evenodd" d="M69.3301 41.2317C69.5538 41.2302 69.7795 41.2285 70.0075 41.2285C70.0059 41.1118 69.9944 40.9954 69.9731 40.8806C68.202 35.4175 66.4364 29.9526 64.6763 24.4858C64.6144 24.1907 64.3271 23.9998 64.031 24.0569L63.9499 24.0591C63.2297 24.0796 62.5065 24.0999 61.7895 24.0503C61.2512 24.0127 61.0499 24.2356 60.897 24.7158C59.207 29.9915 57.5151 35.2664 55.8212 40.5408C55.778 40.675 55.7422 40.8118 55.7008 40.9702C55.6796 41.0513 55.6569 41.1379 55.6309 41.2329C55.8777 41.2329 56.1158 41.231 56.3478 41.2292C56.8846 41.2251 57.3888 41.2212 57.8922 41.241C58.0563 41.2737 58.2267 41.2363 58.3621 41.1377C58.4973 41.0391 58.5851 40.8882 58.6039 40.7219C58.8005 40.0193 59.0151 39.3218 59.2297 38.624C59.4207 38.0032 59.6116 37.3823 59.7899 36.7581C59.9055 36.353 60.0623 36.1628 60.523 36.1719C62.0175 36.2019 63.5131 36.1963 65.0078 36.1746C65.1725 36.147 65.3414 36.187 65.4762 36.2856C65.611 36.3843 65.7003 36.533 65.7239 36.6985C66.1246 38.0415 66.558 39.3752 67.0045 40.7039C67.0712 40.9023 67.2673 41.1965 67.4174 41.2051C68.0482 41.2412 68.6813 41.2366 69.3301 41.2317ZM65.0196 34.0537H60.5137L62.7269 26.5525L65.0196 34.0537Z" fill="white"/>
<path d="M113.785 24.6128L113.09 26.8484C111.794 26.1843 110.319 25.9515 108.881 26.1839C107.925 26.279 107.132 26.9662 106.902 27.8995C106.679 28.8665 107.147 29.8609 108.035 30.3045C108.706 30.7151 109.45 31.007 110.155 31.3644C110.894 31.7041 111.613 32.0837 112.311 32.5015C113.785 33.4783 114.594 35.1925 114.412 36.9512C114.23 38.7098 113.087 40.222 111.444 40.8762C109.179 41.7561 106.659 41.7116 104.426 40.7524C103.957 40.5656 103.735 40.3329 103.959 39.7855C104.148 39.2469 104.307 38.6982 104.435 38.142C105.906 39.0146 107.629 39.3634 109.323 39.1316C110.42 39.0539 111.345 38.2851 111.621 37.2211C111.911 36.0978 111.377 34.9248 110.34 34.4056C109.684 34.0137 108.951 33.7536 108.264 33.4115C107.565 33.0931 106.887 32.7321 106.233 32.3304C104.667 31.4285 103.839 29.6371 104.168 27.8599C104.415 26.1226 105.671 24.6983 107.364 24.2354C109.476 23.5539 111.767 23.6885 113.785 24.6128Z" fill="white"/>
<path fill-rule="evenodd" clip-rule="evenodd" d="M135.374 30.1594C134.25 29.105 132.747 28.5498 131.207 28.6199C128.336 28.4609 125.802 30.4783 125.312 33.3118C125.109 34.4231 125.091 35.5601 125.257 36.6772C125.575 39.0222 127.346 40.9072 129.666 41.3723C132.12 41.9758 134.691 40.9915 136.114 38.9036C136.985 37.5059 137.359 35.8557 137.177 34.219C137.149 32.678 136.498 31.2139 135.374 30.1594ZM128.818 38.292C128.168 37.3613 127.847 36.2405 127.905 35.1067C127.845 33.9844 128.137 32.8711 128.74 31.9226C129.254 31.0967 130.159 30.5959 131.132 30.5996C132.104 30.6033 133.005 31.1106 133.513 31.9404C134.675 33.8904 134.637 36.3289 133.416 38.2422C132.914 39.0193 132.056 39.4927 131.131 39.5027C130.205 39.5127 129.337 39.0581 128.818 38.292Z" fill="white"/>
<path fill-rule="evenodd" clip-rule="evenodd" d="M157.763 40.7263L157.318 38.8088C157.203 38.8423 157.1 38.8735 157.005 38.9028C156.82 38.9592 156.663 39.0068 156.504 39.0435C155.175 39.4517 153.758 39.4775 152.416 39.1182C150.935 38.6675 149.999 37.2092 150.207 35.6753H158.395C158.395 35.4277 158.401 35.1873 158.406 34.9519C158.417 34.4551 158.428 33.9814 158.386 33.5125C158.338 31.2588 156.805 29.3086 154.626 28.7295C152.261 28.0962 149.764 29.1145 148.516 31.2205C147.213 33.3508 147.047 35.9873 148.071 38.2646C148.464 39.2454 149.185 40.0588 150.112 40.5659C152.616 41.9426 155.161 41.5549 157.763 40.7263ZM155.244 31.5676C155.703 32.1729 155.886 32.9431 155.748 33.6897H150.161C150.132 32.8384 150.457 32.0127 151.059 31.4099C151.661 30.8071 152.486 30.4807 153.338 30.509C154.094 30.5784 154.786 30.9626 155.244 31.5676Z" fill="white"/>
<path d="M123.309 39.1142C123.328 39.553 123.343 39.9345 123.362 40.3157C123.41 41.2663 123.414 41.2948 122.455 41.3955C121.848 41.4635 121.235 41.4712 120.626 41.4188C119.029 41.2764 117.826 39.906 117.89 38.3043C117.787 36.1583 117.819 34.0057 117.794 31.8559C117.791 31.5853 117.794 31.3147 117.794 30.9654H116.043V28.8775H117.794C117.794 28.2329 117.81 27.6758 117.788 27.1201C117.774 26.7547 117.86 26.5427 118.262 26.4454C118.983 26.2709 119.688 26.0301 120.477 25.7937V28.8554C121.323 28.8554 122.109 28.8827 122.892 28.8456C123.396 28.8217 123.592 28.9799 123.547 29.4951C123.507 29.9397 123.538 30.3906 123.538 30.9116H120.489C120.489 31.3847 120.489 31.7842 120.489 32.1838C120.489 33.6553 120.485 35.1268 120.492 36.5983C120.492 36.9375 120.515 37.2763 120.563 37.6122C120.75 38.8822 121.321 39.3162 122.613 39.1921C122.815 39.1727 123.017 39.1471 123.309 39.1142Z" fill="white"/>
<path d="M146.119 28.683V31.2035C145.959 31.2105 145.829 31.2235 145.7 31.2208C144.806 31.0994 143.906 31.3937 143.256 32.0196C142.607 32.6455 142.279 33.5343 142.367 34.4322C142.328 36.4688 142.355 38.5067 142.353 40.544C142.353 40.744 142.353 40.9439 142.353 41.1883H139.607V28.9178H141.941V31.0315C142.485 30.3729 143.068 29.7478 143.688 29.1596C144.383 28.6369 145.279 28.4613 146.119 28.683Z" fill="white"/>
<path d="M37.257 8.63965C37.8719 12.0549 34.6868 16.0478 31.288 16.2361C30.7711 16.2647 30.6917 16.0422 30.6887 15.6026C30.8723 12.3335 33.1698 9.56795 36.3499 8.78828C36.6486 8.71876 36.9563 8.68796 37.257 8.63965Z" fill="white"/>
<path fill-rule="evenodd" clip-rule="evenodd" d="M57.2487 9.63306V18.0024C57.5234 18.0024 57.7933 18.0068 58.0596 18.0112C58.6292 18.0205 59.1827 18.0298 59.7333 17.9946C62.3351 17.8284 63.7589 16.6321 64.1055 14.3733C64.4648 12.0315 63.4485 10.2202 61.4282 9.67847C60.054 9.36694 58.6293 9.35156 57.2487 9.63306ZM58.6195 16.9043V10.5757L58.7206 10.5688C60.1119 10.4749 61.473 10.3831 62.2643 11.7415C63.0013 12.9624 62.9633 14.5002 62.1669 15.6833C61.3583 16.9741 60.0143 17.0049 58.6195 16.9043Z" fill="white"/>
<path fill-rule="evenodd" clip-rule="evenodd" d="M113.38 9.10791V12.3379C112.987 12.1133 112.57 11.9312 112.137 11.7952C111.437 11.6606 110.712 11.8174 110.13 12.2295C109.549 12.6414 109.16 13.2727 109.054 13.9778C108.652 15.8438 109.427 17.6162 110.851 17.9766C111.601 18.2266 112.428 18.0554 113.017 17.5278C113.181 17.3521 113.335 17.1675 113.479 16.9746L113.565 17.8799H114.682V9.10791H113.38ZM113.253 13.7827C113.332 14.1411 113.385 14.5046 113.41 14.8708C113.382 15.2463 113.324 15.6191 113.235 15.9851C113.1 16.5049 112.66 16.8887 112.127 16.9512C111.554 17.0596 110.974 16.801 110.672 16.3027C110.168 15.3979 110.19 14.2917 110.731 13.4082C111.04 12.9436 111.599 12.7102 112.147 12.8167C112.681 12.8765 113.122 13.2615 113.253 13.7827Z" fill="white"/>
<path d="M77.4244 13.5504C77.0195 14.8786 76.5991 16.1907 76.2264 17.5163C76.0922 17.9935 75.7668 17.9256 75.4374 17.9195C75.1377 17.914 74.8323 18.0067 74.7036 17.545C74.206 15.7591 73.6633 13.9857 73.1419 12.2063C73.1287 12.1057 73.1277 12.0038 73.1389 11.9029C73.3421 11.901 73.545 11.8878 73.7466 11.8632C74.2848 11.7684 74.4953 12.0203 74.6012 12.5259C74.8734 13.8245 75.1919 15.1133 75.5318 16.5779C75.8008 15.651 76.0231 14.879 76.2491 14.1081C76.4146 13.5439 76.6178 12.9884 76.7428 12.4157C76.84 11.9702 77.0628 11.8542 77.4955 11.8518C77.9242 11.8494 78.0777 12.0165 78.1817 12.4073C78.5417 13.761 78.9398 15.1045 79.3408 16.5128C79.6274 15.3777 79.9046 14.2803 80.1811 13.1827C80.2088 13.073 80.2289 12.9614 80.2576 12.8521C80.5413 11.7744 80.5416 11.7745 81.8098 11.933C81.5382 12.8184 81.2736 13.6927 81.0017 14.5647C80.7054 15.5145 80.3617 16.4519 80.1184 17.4149C79.9837 17.9483 79.6587 17.9146 79.2632 17.9297C78.8713 17.9446 78.6572 17.8498 78.5444 17.425C78.2026 16.1377 77.8084 14.8643 77.4244 13.5504Z" fill="white"/>
<path d="M144.6 17.8698C144.576 17.7819 144.56 17.6922 144.552 17.6015C144.55 14.796 144.55 11.9904 144.55 9.12549H145.88V12.5624C146.251 12.2878 146.648 12.0502 147.065 11.8528C147.61 11.6187 148.234 11.6551 148.748 11.9511C149.263 12.2472 149.608 12.7682 149.679 13.3573C149.773 14.8591 149.786 16.365 149.717 17.8682H148.481C148.481 16.9231 148.481 15.9788 148.481 15.0353C148.48 14.7411 148.492 14.4454 148.466 14.1531C148.39 13.2782 147.959 12.8419 147.21 12.8583C146.853 12.8588 146.512 13.0057 146.266 13.2647C146.021 13.5237 145.893 13.872 145.911 14.2283C145.883 15.2688 145.903 16.3105 145.902 17.3517C145.902 17.5076 145.902 17.6635 145.902 17.8698L144.6 17.8698Z" fill="white"/>
<path fill-rule="evenodd" clip-rule="evenodd" d="M66.5319 17.167C67.093 17.762 67.8832 18.0862 68.7004 18.0566C69.5411 18.0789 70.3513 17.7415 70.9277 17.1289C71.504 16.5164 71.7916 15.6873 71.7183 14.8494C71.7905 14.0349 71.509 13.2285 70.9456 12.636C70.3821 12.0432 69.5911 11.7214 68.774 11.7522C67.9335 11.7209 67.1205 12.0549 66.5447 12.6682C65.969 13.2812 65.6866 14.1135 65.7705 14.9504C65.6934 15.7644 65.9708 16.5723 66.5319 17.167ZM70.0117 13.6079C70.1583 14.0396 70.2802 14.4795 70.3766 14.925C70.2736 15.3647 70.1428 15.7976 69.9854 16.2212C69.7903 16.7505 69.2784 17.0959 68.7144 17.0784C68.1283 17.0815 67.6039 16.7144 67.4067 16.1626C67.0245 15.3499 67.0316 14.4077 67.4259 13.6008C67.6359 13.0527 68.1735 12.7009 68.7598 12.728C69.3238 12.7185 69.8296 13.074 70.0117 13.6079Z" fill="white"/>
<path fill-rule="evenodd" clip-rule="evenodd" d="M121.179 17.2029C121.753 17.7844 122.547 18.0945 123.363 18.0562C124.203 18.063 125.007 17.71 125.57 17.0857C126.134 16.4617 126.403 15.6265 126.311 14.7905C126.375 13.9749 126.082 13.1714 125.508 12.5884C124.934 12.0054 124.135 11.7004 123.318 11.7522C122.478 11.7456 121.675 12.0969 121.109 12.7183C120.544 13.3398 120.269 14.1726 120.355 15.0085C120.306 15.8237 120.606 16.6216 121.179 17.2029ZM122.033 16.1929C121.882 15.7512 121.757 15.3008 121.66 14.8442C121.77 14.3687 121.924 13.9045 122.121 13.4578C122.349 12.9978 122.817 12.7065 123.331 12.7061C123.844 12.7056 124.313 12.9956 124.542 13.4551C125.047 14.3147 125.062 15.3772 124.582 16.2507C124.366 16.7705 123.849 17.1006 123.287 17.0779C122.723 17.0808 122.219 16.7253 122.033 16.1929Z" fill="white"/>
<path fill-rule="evenodd" clip-rule="evenodd" d="M95.4225 12.6094C94.8319 13.2085 94.5308 14.0347 94.5974 14.873C94.4998 15.6848 94.7562 16.4995 95.3014 17.1089C95.8466 17.7183 96.6277 18.0632 97.4453 18.0562C98.2968 18.1023 99.1263 17.7761 99.7186 17.1626C100.311 16.5491 100.608 15.7087 100.532 14.8594C100.611 14.0571 100.345 13.259 99.7991 12.6655C99.2534 12.0723 98.4804 11.74 97.6743 11.7524C96.8349 11.6978 96.0131 12.0105 95.4225 12.6094ZM98.6828 13.3557C98.922 13.8525 99.1127 14.3713 99.2523 14.9048C99.0997 15.4497 98.8937 15.978 98.6371 16.4822C98.3951 16.8645 97.9739 17.0959 97.5215 17.0955C97.069 17.095 96.6484 16.8625 96.4073 16.4795C95.8166 15.5125 95.8154 14.2961 96.4042 13.3279C96.6536 12.9368 97.0873 12.7021 97.5512 12.7078C98.0151 12.7136 98.4431 12.9585 98.6828 13.3557Z" fill="white"/>
<path fill-rule="evenodd" clip-rule="evenodd" d="M105.954 17.8738C106.086 17.9817 106.334 17.949 106.983 17.8625C106.983 17.4673 106.985 17.0762 106.987 16.6882C106.991 15.7864 106.995 14.9011 106.976 14.0164C107.067 13.1755 106.619 12.3682 105.858 12C104.767 11.5618 103.534 11.6592 102.526 12.2629L102.788 13.075C104.718 12.3879 105.628 12.6792 105.579 13.9907C105.247 13.9927 104.916 14.0254 104.59 14.0886C104.001 14.2207 103.43 14.4272 102.892 14.7031C102.182 15.1677 101.888 16.062 102.183 16.8579C102.401 17.6355 103.156 18.1353 103.957 18.0312C104.579 17.9119 105.188 17.7322 105.774 17.4944C105.835 17.6877 105.873 17.8074 105.954 17.8738ZM104.337 15.0701C104.766 14.9834 105.2 14.9231 105.636 14.8896C105.659 15.2922 105.656 15.6958 105.627 16.0979C105.49 16.6919 104.949 17.1038 104.34 17.0767C103.888 17.1096 103.494 16.7705 103.459 16.3181C103.406 16.0359 103.47 15.7439 103.635 15.5088C103.8 15.2739 104.054 15.1155 104.337 15.0701Z" fill="white"/>
<path d="M83.6068 11.9028H84.6556L84.7684 12.4752C85.3463 12.1739 85.9574 11.9412 86.5894 11.782C87.091 11.6871 87.6094 11.8088 88.0165 12.1169C88.4235 12.425 88.6813 12.8909 88.7262 13.3995C88.8481 14.8746 88.7566 16.3673 88.7566 17.887H87.5117C87.5117 16.9099 87.516 15.9661 87.5094 15.0223C87.5154 14.6833 87.4975 14.3442 87.4559 14.0077C87.333 13.1863 86.934 12.8301 86.2182 12.8595C85.5261 12.8772 84.971 13.4373 84.9596 14.1296C84.9154 15.169 84.9417 16.2115 84.9338 17.2526C84.9323 17.4508 84.9118 17.649 84.8979 17.8829H83.6068L83.6068 11.9028Z" fill="white"/>
<path fill-rule="evenodd" clip-rule="evenodd" d="M153.217 15.1941H157.108C157.41 13.5469 156.678 12.1292 155.404 11.8071C154.683 11.6091 153.912 11.7112 153.267 12.0896C152.622 12.4683 152.158 13.0916 151.979 13.8176C151.437 15.6006 152.135 17.3545 153.628 17.8494C154.692 18.1775 155.838 18.1125 156.857 17.6665L156.672 16.822C154.049 17.1548 153.06 16.6958 153.217 15.1941ZM154.616 12.6782C155.417 12.6853 155.837 13.1772 155.892 14.2097H153.203C153.172 13.8154 153.307 13.426 153.575 13.1353C153.843 12.8445 154.22 12.6787 154.616 12.6782Z" fill="white"/>
<path d="M128.34 11.9082H129.411L129.514 12.6774C129.706 12.5094 129.841 12.3824 129.986 12.2671C130.603 11.739 131.46 11.5904 132.219 11.8795C132.942 12.1422 133.447 12.8002 133.514 13.5665C133.56 13.8799 133.582 14.1966 133.579 14.5135C133.587 15.6185 133.582 16.7237 133.582 17.8745H132.24C132.24 17.0377 132.244 16.2098 132.238 15.382C132.235 14.9524 132.241 14.5202 132.196 14.0941C132.104 13.221 131.708 12.8386 130.971 12.8588C130.626 12.8627 130.297 13.0042 130.057 13.2519C129.816 13.4995 129.685 13.8329 129.691 14.1778C129.649 15.1493 129.672 16.1237 129.667 17.0968C129.666 17.3411 129.667 17.5855 129.667 17.8752H128.34L128.34 11.9082Z" fill="white"/>
<path d="M142.626 12.8676H141.26C141.26 14.0493 141.204 15.1941 141.28 16.3301C141.328 17.0531 142.002 16.9258 142.559 16.9563V17.8788C140.985 18.4436 139.941 17.7716 139.894 16.1314C139.863 15.0741 139.888 14.0151 139.888 12.9198L139.009 12.8318V11.9207L139.877 11.8073C139.628 10.7943 140.206 10.4887 141.149 10.4329C141.178 10.6847 141.187 10.9385 141.176 11.1917C141.112 11.731 141.321 11.9404 141.858 11.8717C142.114 11.8546 142.37 11.8528 142.626 11.8666L142.626 12.8676Z" fill="white"/>
<path d="M91.2659 9.08276H92.5245V17.8926H91.2659V9.08276Z" fill="white"/>
<path d="M75.1442 35.2071C75.1979 34.4657 75.2973 33.7284 75.4416 32.9993C75.7525 31.8003 76.7821 30.9252 78.0155 30.8118C79.2786 30.6524 80.4911 31.3621 80.9705 32.5415C81.728 34.1717 81.7015 36.0582 80.8983 37.6665C80.3405 38.9222 78.9655 39.6004 77.6296 39.2787C76.3375 39.0355 75.3714 37.9524 75.2768 36.6411C75.2223 36.1701 75.2243 35.6925 75.2005 35.2179L75.1442 35.2071Z" fill="#29ABE2"/>
<path d="M89.3994 35.1447C89.4341 34.4914 89.5043 33.8405 89.6095 33.1947C89.8715 31.9351 90.9032 30.98 92.1793 30.8159C93.5134 30.6312 94.7966 31.3983 95.2657 32.6607C95.9182 34.1818 95.9157 35.9045 95.2589 37.4237C94.7597 38.8117 93.3026 39.6084 91.8646 39.2794C90.4807 38.9966 89.4817 37.7863 89.4664 36.3739C89.4423 35.9674 89.4628 35.5583 89.4628 35.1505L89.3994 35.1447Z" fill="#29ABE2"/>
<path d="M60.5137 34.0537L62.7269 26.5525L65.0196 34.0537H60.5137Z" fill="#29ABE2"/>
<path d="M127.905 35.1067C127.845 33.9843 128.137 32.8712 128.74 31.9226C129.254 31.0967 130.159 30.596 131.132 30.5996C132.104 30.6033 133.006 31.1107 133.513 31.9404C134.675 33.8904 134.638 36.3289 133.416 38.2423C132.914 39.0194 132.056 39.4928 131.131 39.5028C130.205 39.5128 129.337 39.0581 128.818 38.2921C128.168 37.3612 127.847 36.2404 127.905 35.1067Z" fill="#29ABE2"/>
<path d="M155.748 33.69H150.161C150.132 32.8385 150.457 32.013 151.059 31.4101C151.661 30.8073 152.486 30.4811 153.338 30.5093C154.094 30.5785 154.786 30.9628 155.244 31.5679C155.703 32.1731 155.886 32.9432 155.748 33.69Z" fill="#29ABE2"/>
<path d="M58.6195 10.5757C60.0456 10.4803 61.4538 10.3501 62.2643 11.7414C63.0013 12.9624 62.9633 14.5001 62.1669 15.6833C61.3584 16.9741 60.0143 17.0049 58.6195 16.9043L58.6195 10.5757Z" fill="#29ABE2"/>
<path d="M113.41 14.8708C113.382 15.2464 113.324 15.6191 113.235 15.9851C113.1 16.5049 112.66 16.8887 112.127 16.9512C111.554 17.0596 110.974 16.8011 110.672 16.3027C110.168 15.398 110.19 14.2917 110.731 13.4082C111.04 12.9435 111.599 12.7103 112.147 12.8167C112.681 12.8764 113.122 13.2614 113.253 13.7827C113.332 14.141 113.385 14.5048 113.41 14.8708Z" fill="#29ABE2"/>
<path d="M70.3767 14.9249C70.2736 15.3646 70.1429 15.7975 69.9854 16.2209C69.7903 16.7504 69.2784 17.0957 68.7144 17.0781C68.1283 17.0814 67.604 16.7142 67.4068 16.1623C67.0246 15.3496 67.0316 14.4074 67.4259 13.6005C67.6359 13.0524 68.1735 12.7006 68.7598 12.7278C69.3238 12.7183 69.8296 13.0737 70.0117 13.6076C70.1584 14.0394 70.2802 14.4792 70.3767 14.9249Z" fill="#29ABE2"/>
<path d="M121.66 14.8441C121.77 14.3687 121.924 13.9046 122.121 13.4578C122.349 12.9979 122.817 12.7066 123.33 12.7061C123.844 12.7055 124.313 12.9956 124.542 13.4551C125.047 14.3148 125.062 15.3771 124.582 16.2508C124.366 16.7704 123.849 17.1006 123.287 17.0779C122.723 17.0809 122.219 16.7254 122.033 16.1929C121.882 15.7511 121.757 15.3008 121.66 14.8441H121.66Z" fill="#29ABE2"/>
<path d="M99.2523 14.9048C99.0997 15.4496 98.8937 15.978 98.6371 16.4823C98.3951 16.8645 97.9739 17.096 97.5215 17.0955C97.069 17.095 96.6484 16.8625 96.4073 16.4796C95.8166 15.5124 95.8154 14.2963 96.4042 13.3279C96.6536 12.9367 97.0874 12.7022 97.5512 12.7079C98.0151 12.7135 98.443 12.9585 98.6828 13.3556C98.922 13.8525 99.1127 14.3713 99.2523 14.9048Z" fill="#29ABE2"/>
<path d="M105.636 14.8896C105.659 15.2922 105.656 15.6957 105.627 16.0979C105.49 16.6919 104.949 17.1037 104.34 17.0766C103.888 17.1096 103.494 16.7705 103.459 16.3182C103.406 16.0358 103.47 15.7439 103.635 15.5088C103.8 15.2738 104.054 15.1155 104.337 15.0701C104.766 14.9834 105.2 14.9231 105.636 14.8896Z" fill="#29ABE2"/>
<path d="M155.892 14.2098H153.203C153.172 13.8155 153.307 13.426 153.575 13.1352C153.843 12.8444 154.22 12.6788 154.616 12.6782C155.417 12.6853 155.837 13.1772 155.892 14.2098Z" fill="#29ABE2"/>
</svg>
