<svg width="23" height="24" viewBox="0 0 23 24" fill="none" xmlns="http://www.w3.org/2000/svg">
<path d="M21.3333 16.1949L20.0181 20.6417L17.4363 19.9356L21.3333 16.1949Z" fill="#E4761B"/>
<path fill-rule="evenodd" clip-rule="evenodd" d="M20.017 20.646L20.0212 20.6472L21.3376 16.1962L21.3425 16.1797L17.4331 19.9323L17.4274 19.9378L20.017 20.646ZM20.015 20.6361L17.4452 19.9333L21.3241 16.21L20.015 20.6361Z" fill="#E4761B"/>
<path d="M17.4363 19.9356L19.9265 16.5237L21.3333 16.1949L17.4363 19.9356Z" fill="#E4761B"/>
<path fill-rule="evenodd" clip-rule="evenodd" d="M17.4326 19.9329L17.4395 19.9388L21.3484 16.1867L19.9254 16.5192L19.9238 16.5197L17.4326 19.9329ZM17.4703 19.8967L19.9292 16.5277L21.3182 16.2031L17.4703 19.8967Z" fill="#E4761B"/>
<path fill-rule="evenodd" clip-rule="evenodd" d="M20.6434 11.9799L19.3983 12.8423L19.9265 16.5237L21.3334 16.1949L20.6434 11.9799Z" fill="#F6851B"/>
<path fill-rule="evenodd" clip-rule="evenodd" d="M19.9227 16.5292L19.922 16.5243L19.3939 12.8438L19.3922 12.8409L19.3956 12.8385L20.6466 11.972L20.6478 11.9791L21.3376 16.1933L21.3402 16.1979L19.9227 16.5292ZM19.406 12.8649L19.9302 16.5181L21.3263 16.1918L19.406 12.8649ZM21.3247 16.1711L19.4042 12.8436L20.64 11.9876L21.3247 16.1711Z" fill="#F6851B"/>
<path fill-rule="evenodd" clip-rule="evenodd" d="M21.3926 8.84283L17.8136 10.3089L21.1016 10.6108L21.2147 9.64594L21.3926 8.84283Z" fill="#763D16"/>
<path fill-rule="evenodd" clip-rule="evenodd" d="M21.1055 10.6157L21.1011 10.6153L17.8131 10.3135L17.8129 10.3082L17.8119 10.3047L21.3989 8.83539L21.2192 9.64673L21.1055 10.6157ZM17.8455 10.3073L21.0974 10.6059L21.2095 9.65161L17.8455 10.3073ZM17.8578 10.2957L21.3862 8.85034L21.2108 9.64209L17.8578 10.2957Z" fill="#763D16"/>
<path fill-rule="evenodd" clip-rule="evenodd" d="M21.8184 9.18243L21.2147 9.64594L21.3926 8.84283L21.8184 9.18243ZM21.1016 10.6108L21.6945 10.0448L21.2147 9.64594L21.1016 10.6108ZM21.1016 10.6108L17.8136 10.3089L20.6434 11.9798L21.1016 10.6108Z" fill="#763D16"/>
<path fill-rule="evenodd" clip-rule="evenodd" d="M20.6411 11.9838L20.6459 11.9866L21.1055 10.6132L21.6976 10.048L21.7013 10.0445L21.222 9.646L21.8258 9.18237L21.3898 8.83466L21.2119 9.63763L21.2112 9.63708L21.2102 9.64514L21.209 9.65607L21.2076 9.65704L21.0975 10.6058L17.814 10.3044L17.8113 10.3128L20.6411 11.9838ZM20.6409 11.9731L17.8333 10.3152L21.0955 10.6147L20.6409 11.9731ZM21.2181 9.65479L21.1074 10.5988L21.6875 10.045L21.2181 9.65479ZM21.2218 9.63477L21.3954 8.85089L21.811 9.18231L21.2218 9.63477Z" fill="#763D16"/>
<path d="M14.6604 18.8522L15.5552 19.1378L17.4363 19.9356L14.6604 18.8522Z" fill="#E2761B"/>
<path fill-rule="evenodd" clip-rule="evenodd" d="M14.6588 18.8564L17.4347 19.9398L17.4381 19.9314L15.5565 19.1335L14.6619 18.8478L14.6588 18.8564ZM17.1467 19.8177L14.7959 18.9001L15.5535 19.142L17.1467 19.8177Z" fill="#E2761B"/>
<path fill-rule="evenodd" clip-rule="evenodd" d="M16.9297 10.7563L20.6434 11.9799L21.495 10.9126L21.1016 10.6108L20.6434 11.9799L17.8137 10.309L16.9297 10.7563Z" fill="#763D16"/>
<path fill-rule="evenodd" clip-rule="evenodd" d="M20.642 11.9841L16.9178 10.7571L17.8137 10.3037L17.8159 10.305L20.6409 11.973L21.0992 10.6033L21.5015 10.9118L21.4985 10.9154L20.647 11.9826L20.6436 11.9807L20.642 11.9841ZM16.9414 10.7554L20.605 11.9624L17.8135 10.3141L16.9414 10.7554ZM20.6558 11.957L21.1038 10.6182L21.4885 10.9134L20.6558 11.957Z" fill="#763D16"/>
<path d="M18.6976 6.11011L17.8136 10.309L16.9296 10.7563L18.6976 6.11011Z" fill="#763D16"/>
<path fill-rule="evenodd" clip-rule="evenodd" d="M16.9254 10.7547L16.9213 10.7656L17.8157 10.313L17.8176 10.312L18.702 6.11102L18.6934 6.10846L16.9254 10.7547ZM16.9381 10.747L18.6813 6.16583L17.8097 10.3059L16.9381 10.747Z" fill="#763D16"/>
<path d="M21.3926 8.84281L17.8136 10.3089L18.6976 6.11005L21.3926 8.84281Z" fill="#763D16"/>
<path fill-rule="evenodd" clip-rule="evenodd" d="M18.6948 6.10089L17.8074 10.3163L21.3943 8.84705L21.4005 8.84448L18.7008 6.10687L18.6948 6.10089ZM17.8197 10.3015L18.7002 6.11926L21.3845 8.84119L17.8197 10.3015Z" fill="#763D16"/>
<path d="M18.6975 6.11009L22.4328 5.67889L21.3925 8.84289L18.6975 6.11009Z" fill="#763D16"/>
<path fill-rule="evenodd" clip-rule="evenodd" d="M21.3894 8.84601L21.3947 8.85132L22.4395 5.67358L18.6879 6.10669L21.3894 8.84601ZM21.3907 8.83441L18.7074 6.11353L22.4264 5.6842L21.3907 8.83441Z" fill="#763D16"/>
<path d="M20.6434 11.9799L19.3983 12.8423L16.9297 10.7563L20.6434 11.9799Z" fill="#F6851B"/>
<path fill-rule="evenodd" clip-rule="evenodd" d="M19.3954 12.8457L19.3981 12.848L20.646 11.9836L20.6534 11.9784L16.931 10.752L16.9268 10.7598L19.3954 12.8457ZM19.3986 12.8366L16.9504 10.7679L20.6334 11.9813L19.3986 12.8366Z" fill="#F6851B"/>
<path d="M22.2711 2.65503L22.4328 5.67885L18.6975 6.11005L22.2711 2.65503Z" fill="#763D16"/>
<path fill-rule="evenodd" clip-rule="evenodd" d="M22.2751 2.6449L18.6848 6.11609L22.4333 5.68341L22.4376 5.68292L22.2751 2.6449ZM18.7103 6.10406L22.2672 2.66522L22.4281 5.67487L18.7103 6.10406Z" fill="#763D16"/>
<path d="M22.2712 2.65503L14.806 8.08281L14.709 4.4014L22.2712 2.65503Z" fill="#E2761B"/>
<path fill-rule="evenodd" clip-rule="evenodd" d="M14.8015 8.08295L14.8016 8.09155L22.2739 2.65869L22.2701 2.65063L14.708 4.39703L14.7043 4.39783L14.8015 8.08295ZM14.8103 8.07416L14.7136 4.40503L22.2506 2.66449L14.8103 8.07416Z" fill="#E2761B"/>
<path d="M9.15723 3.95941L14.709 4.40141L14.806 8.08282L9.15723 3.95941Z" fill="#F6851B"/>
<path fill-rule="evenodd" clip-rule="evenodd" d="M14.8033 8.08649L14.8108 8.09192L14.7135 4.40131L14.7134 4.39728L9.15759 3.95496L9.1416 3.95367L14.8033 8.08649ZM14.8013 8.07379L9.17285 3.96527L14.7046 4.40564L14.8013 8.07379Z" fill="#F6851B"/>
<path d="M16.9296 10.7563L14.8059 8.08281L18.6975 6.11005L16.9296 10.7563Z" fill="#763D16"/>
<path fill-rule="evenodd" clip-rule="evenodd" d="M16.9259 10.7591L16.9309 10.7653L18.7017 6.11163L18.7058 6.10071L14.8038 8.0788L14.7988 8.0813L16.9259 10.7591ZM16.9281 10.7473L14.8129 8.08435L18.6891 6.11938L16.9281 10.7473Z" fill="#763D16"/>
<path d="M16.9297 10.7563L19.3983 12.8423L15.9325 13.225L16.9297 10.7563Z" fill="#E4761B"/>
<path fill-rule="evenodd" clip-rule="evenodd" d="M16.9277 10.7488L15.9254 13.2303L19.4093 12.8455L16.9325 10.7528L16.9277 10.7488ZM15.9395 13.2196L16.9314 10.7638L19.3872 12.8389L15.9395 13.2196Z" fill="#E4761B"/>
<path d="M15.9324 13.2249L14.8059 8.08282L16.9296 10.7563L15.9324 13.2249Z" fill="#E4761B"/>
<path fill-rule="evenodd" clip-rule="evenodd" d="M15.928 13.226L15.9312 13.2402L16.9338 10.758L16.9348 10.7556L14.8096 8.08002L14.8015 8.0838L15.928 13.226ZM15.9338 13.2097L14.8146 8.10095L16.9244 10.7571L15.9338 13.2097Z" fill="#E4761B"/>
<path d="M18.6975 6.11011L14.8059 8.08287L22.2711 2.65509L18.6975 6.11011Z" fill="#763D16"/>
<path fill-rule="evenodd" clip-rule="evenodd" d="M14.8033 8.07916L14.8081 8.08685L18.7003 6.11377L22.2744 2.65826L22.2686 2.65137L14.8033 8.07916ZM14.8545 8.05316L22.2216 2.69672L18.6949 6.10632L14.8545 8.05316Z" fill="#763D16"/>
<path d="M9.20572 19.8493L10.9683 21.6873L8.5697 19.5043L9.20572 19.8493Z" fill="#C0AD9E"/>
<path fill-rule="evenodd" clip-rule="evenodd" d="M8.56665 19.5077L10.9652 21.6907L10.9716 21.6842L9.2085 19.8456L8.5719 19.5004L8.56665 19.5077ZM10.8728 21.5944L8.60034 19.5262L9.20288 19.853L10.8728 21.5944Z" fill="#C0AD9E"/>
<path d="M17.4363 19.9356L18.2717 16.7608L19.9265 16.5237L17.4363 19.9356Z" fill="#CD6116"/>
<path fill-rule="evenodd" clip-rule="evenodd" d="M17.432 19.9344L17.4401 19.9382L19.9366 16.5176L18.2712 16.7563L18.2682 16.7567L17.432 19.9344ZM17.4468 19.9135L18.2754 16.7649L19.9165 16.5297L17.4468 19.9135Z" fill="#CD6116"/>
<path d="M2.05847 11.0043L5.10924 7.79718L2.45194 10.6216L2.05847 11.0043Z" fill="#E2761B"/>
<path fill-rule="evenodd" clip-rule="evenodd" d="M2.05518 11.0012L2.06165 11.0075L2.4552 10.6247L5.11255 7.80029L5.10596 7.79407L2.05518 11.0012ZM2.22241 10.8385L3.97717 8.9939L2.44873 10.6183L2.22241 10.8385Z" fill="#E2761B"/>
<path fill-rule="evenodd" clip-rule="evenodd" d="M11.8361 7.98584L14.806 8.08282L9.15723 3.95947L11.8361 7.98584ZM18.2719 16.7609L19.9266 16.5237L19.3983 12.8423L18.2719 16.7609Z" fill="#F6851B"/>
<path fill-rule="evenodd" clip-rule="evenodd" d="M14.8206 8.08783L14.8058 8.08734L11.8336 7.99023L11.8323 7.98828L9.15344 3.96191L9.15991 3.95575L14.8206 8.08783ZM18.2675 16.7596L18.2655 16.7663L19.9271 16.5281L19.9316 16.5275L19.4028 12.8416L19.3939 12.841L18.2675 16.7596ZM18.2781 16.7554L19.3969 12.8638L19.9214 16.5198L18.2781 16.7554ZM14.7915 8.07776L11.8385 7.98132L9.17505 3.97803L14.7915 8.07776Z" fill="#F6851B"/>
<path d="M19.3983 12.8423L18.2718 16.7609L18.1802 14.8474L19.3983 12.8423Z" fill="#E4751F"/>
<path fill-rule="evenodd" clip-rule="evenodd" d="M18.2672 16.761L18.2761 16.762L19.4026 12.8435L19.3944 12.8399L18.1763 14.845L18.1755 14.8462L18.2672 16.761ZM18.2749 16.7332L18.1847 14.8485L19.3845 12.8735L18.2749 16.7332Z" fill="#E4751F"/>
<path d="M15.9325 13.225L19.3983 12.8423L18.1802 14.8474L15.9325 13.225Z" fill="#CD6116"/>
<path fill-rule="evenodd" clip-rule="evenodd" d="M18.1775 14.851L18.1815 14.8539L19.407 12.8367L15.9203 13.2217L18.1775 14.851ZM18.1788 14.8408L15.9447 13.2281L19.3896 12.8478L18.1788 14.8408Z" fill="#CD6116"/>
<path d="M11.8361 7.98584L14.806 8.08284L15.9325 13.2249L11.8361 7.98584Z" fill="#F6851B"/>
<path fill-rule="evenodd" clip-rule="evenodd" d="M11.8265 7.98096L15.929 13.2277L15.9369 13.2239L14.8104 8.08185L14.8097 8.07843L11.8362 7.98126L11.8265 7.98096ZM15.9238 13.2065L11.8456 7.99066L14.8022 8.08722L15.9238 13.2065Z" fill="#F6851B"/>
<path fill-rule="evenodd" clip-rule="evenodd" d="M3.82104 0.569092L11.8361 7.98584L9.15723 3.95941L3.82104 0.569092ZM2.18774 23.1318L9.15173 20.9758L0.797119 17.8226L2.18774 23.1318Z" fill="#E4761B"/>
<path fill-rule="evenodd" clip-rule="evenodd" d="M11.833 7.9892L3.81799 0.572449L3.82349 0.565308L9.16052 3.95618L9.16101 3.95697L11.8398 7.98334L11.833 7.9892ZM2.18347 23.1331L2.18469 23.1376L9.1532 20.9802L9.16577 20.9763L0.798828 17.8185L0.790649 17.8154L2.18347 23.1331ZM2.19104 23.1262L0.803833 17.83L9.13782 20.9755L2.19104 23.1262ZM11.8113 7.95673L3.86084 0.599792L9.15393 3.96283L11.8113 7.95673Z" fill="#E4761B"/>
<path d="M3.09338 12.3302L5.72373 10.2658L7.92826 10.7779L3.09338 12.3302Z" fill="#763D16"/>
<path fill-rule="evenodd" clip-rule="evenodd" d="M3.09058 12.3267L3.09473 12.3345L7.92957 10.7822L7.94519 10.7772L5.72266 10.2609L3.09058 12.3267ZM3.11597 12.3182L5.72473 10.2708L7.91113 10.7786L3.11597 12.3182Z" fill="#763D16"/>
<path d="M7.92828 10.7779L5.72375 10.2658L6.90417 5.39319L7.92828 10.7779Z" fill="#763D16"/>
<path fill-rule="evenodd" clip-rule="evenodd" d="M5.71826 10.2692L7.93408 10.7839L6.90857 5.3924L6.89978 5.39215L5.71936 10.2648L5.71826 10.2692ZM7.92261 10.7719L5.72925 10.2625L6.90369 5.41467L7.92261 10.7719Z" fill="#763D16"/>
<path d="M2.4519 10.6215L5.72366 10.2658L3.09331 12.3302L2.4519 10.6215Z" fill="#763D16"/>
<path fill-rule="evenodd" clip-rule="evenodd" d="M3.08911 12.3318L3.09131 12.3376L5.72656 10.2693L5.73901 10.2596L2.45154 10.6171L2.44568 10.6177L3.08911 12.3318ZM3.09546 12.3228L2.45825 10.6254L5.7085 10.272L3.09546 12.3228Z" fill="#763D16"/>
<path d="M18.1801 14.8474L16.8219 14.1628L15.9325 13.225L18.1801 14.8474Z" fill="#CD6116"/>
<path fill-rule="evenodd" clip-rule="evenodd" d="M16.8191 14.1665L18.1781 14.8514L18.1827 14.8436L15.9352 13.2213L15.9292 13.228L16.8191 14.1665ZM18.1312 14.8176L16.8246 14.1591L15.9691 13.2569L18.1312 14.8176Z" fill="#CD6116"/>
<path d="M2.45198 10.6216L2.22021 9.39801L5.72375 10.2658L2.45198 10.6216Z" fill="#763D16"/>
<path fill-rule="evenodd" clip-rule="evenodd" d="M2.21448 9.39191L2.44836 10.6265L5.72424 10.2703L5.72485 10.2614L2.22131 9.39362L2.21448 9.39191ZM2.45569 10.6166L2.22595 9.40411L5.69788 10.2641L2.45569 10.6166Z" fill="#763D16"/>
<path d="M16.5415 15.7043L16.8218 14.1628L18.1801 14.8473L16.5415 15.7043Z" fill="#233447"/>
<path fill-rule="evenodd" clip-rule="evenodd" d="M16.5371 15.7036L16.5354 15.7127L18.1821 14.8514L18.1899 14.8473L16.8184 14.1561L16.5371 15.7036ZM16.5476 15.6961L16.8252 14.1696L18.1702 14.8475L16.5476 15.6961Z" fill="#233447"/>
<path d="M18.2717 16.7608L16.5415 15.7044L18.1801 14.8474L18.2717 16.7608Z" fill="#F6851B"/>
<path fill-rule="evenodd" clip-rule="evenodd" d="M18.2694 16.7646L18.2766 16.7691L18.1847 14.8471L18.1843 14.84L16.5394 15.7003L16.5323 15.704L18.2694 16.7646ZM18.2667 16.7524L16.5507 15.7047L18.1759 14.8546L18.2667 16.7524Z" fill="#F6851B"/>
<path fill-rule="evenodd" clip-rule="evenodd" d="M6.90405 5.39319L5.72363 10.2658L2.22009 9.39795L1.93445 8.36847L6.90405 5.39319ZM6.90405 5.39319L7.92822 10.7778L11.8359 7.98578L6.90405 5.39319Z" fill="#763D16"/>
<path fill-rule="evenodd" clip-rule="evenodd" d="M7.92371 10.7787L7.92505 10.7857L11.8446 7.98517L6.9093 5.39081L6.91101 5.38373L6.90393 5.388L6.89783 5.38477L6.89905 5.39093L1.9342 8.36328L1.92737 8.35986L1.9292 8.36633L1.92505 8.36884L1.93066 8.37164L2.21643 9.40173L5.72205 10.27L5.72668 10.2724L6.90356 5.41461L7.92371 10.7787ZM7.93127 10.7701L6.91028 5.40161L11.8273 7.98645L7.93127 10.7701ZM1.94385 8.36816L5.72058 10.2592L6.89709 5.40265L1.94385 8.36816ZM5.68518 10.2516L2.22375 9.39423L1.94153 8.37714L5.68518 10.2516Z" fill="#763D16"/>
<path fill-rule="evenodd" clip-rule="evenodd" d="M11.8361 7.98584L7.92822 10.7778L8.17615 13.1926L13.577 13.3058L11.8361 7.98584Z" fill="#E4761B"/>
<path fill-rule="evenodd" clip-rule="evenodd" d="M13.5845 13.3141L13.576 13.3103L8.17212 13.197L8.17163 13.1931L7.92407 10.7809L7.91919 10.7787L7.92346 10.7757L7.92297 10.7705L7.92773 10.7726L11.8384 7.97852L13.5845 13.3141ZM8.1803 13.1881L13.5548 13.3008L7.93359 10.7852L8.1803 13.1881ZM13.5695 13.2975L7.93726 10.777L11.8336 7.9931L13.5695 13.2975Z" fill="#E4761B"/>
<path fill-rule="evenodd" clip-rule="evenodd" d="M13.577 13.3058L15.9325 13.2249L11.8361 7.98578L13.577 13.3058ZM7.92822 10.7778L3.09338 12.3302L8.17615 13.1926L7.92822 10.7778Z" fill="#F6851B"/>
<path fill-rule="evenodd" clip-rule="evenodd" d="M13.5728 13.3073L13.5739 13.3105L15.9327 13.2295L15.9415 13.2292L11.8396 7.98303L11.8318 7.98724L13.5728 13.3073ZM13.5803 13.3012L11.8484 8.00897L15.9235 13.2208L13.5803 13.3012ZM8.1814 13.1981L8.17554 13.1971L3.09265 12.3347L3.09204 12.3259L7.93225 10.7719L8.1814 13.1981ZM8.17102 13.1871L3.11243 12.3288L7.92432 10.7839L8.17102 13.1871Z" fill="#F6851B"/>
<path d="M16.8219 14.1628L16.5416 15.7044L15.9325 13.225L16.8219 14.1628Z" fill="#CD6116"/>
<path fill-rule="evenodd" clip-rule="evenodd" d="M15.924 13.2095L16.5371 15.7054L16.546 15.7053L16.8263 14.1637L16.8267 14.1614L15.924 13.2095ZM16.5409 15.6827L15.9409 13.2405L16.8169 14.1643L16.5409 15.6827Z" fill="#CD6116"/>
<path d="M3.82104 0.569092L11.836 7.98581L6.90415 5.39319L3.82104 0.569092Z" fill="#763D16"/>
<path fill-rule="evenodd" clip-rule="evenodd" d="M6.90088 5.39667L11.8339 7.98981L11.839 7.98248L3.82397 0.565796L3.81714 0.571533L6.90027 5.39563L6.90088 5.39667ZM11.8077 7.96582L6.90723 5.38977L3.84375 0.596375L11.8077 7.96582Z" fill="#763D16"/>
<path d="M0.797241 17.8227L7.55637 17.5424L9.15183 20.9759L0.797241 17.8227Z" fill="#E4761B"/>
<path fill-rule="evenodd" clip-rule="evenodd" d="M9.15027 20.9801L9.16064 20.984L7.56042 17.5405L7.5592 17.5377L0.797119 17.8181L0.795654 17.8269L9.15027 20.9801ZM9.14294 20.9677L0.81958 17.8263L7.55347 17.5471L9.14294 20.9677Z" fill="#E4761B"/>
<path d="M9.15173 20.9758L7.55627 17.5424L10.8765 17.3807L9.15173 20.9758Z" fill="#CD6116"/>
<path fill-rule="evenodd" clip-rule="evenodd" d="M9.14771 20.9778L9.15173 20.9865L10.8807 17.3827L10.884 17.3759L7.54944 17.5383L9.14771 20.9778ZM9.15186 20.9653L7.56323 17.5466L10.8691 17.3856L9.15186 20.9653Z" fill="#CD6116"/>
<path fill-rule="evenodd" clip-rule="evenodd" d="M0.797119 17.8227L3.09326 12.3302L8.17615 13.1926L7.55627 17.5424L0.797119 17.8227ZM16.5415 15.7044L18.2717 16.7609L19.2257 19.0085L16.5415 15.7044ZM15.9325 13.225L16.3744 14.8312L14.24 14.9552L13.5769 13.3058L15.9325 13.225Z" fill="#F6851B"/>
<path fill-rule="evenodd" clip-rule="evenodd" d="M0.787476 17.8341L0.790161 17.8275L0.780273 17.8279L0.793457 17.8196L3.09045 12.3251L3.09412 12.3257L8.17517 13.1879L8.18201 13.1836L8.18127 13.1889L8.1886 13.1901L8.1803 13.1953L7.56018 17.5468L7.5564 17.5469L0.798584 17.8271L0.787476 17.8341ZM16.538 15.7072L19.2222 19.0114L19.2299 19.0067L18.2759 16.759L18.2753 16.7577L16.5438 15.7005L16.538 15.7072ZM19.2091 18.9808L16.5616 15.722L18.2681 16.7639L19.2091 18.9808ZM0.813965 17.8174L8.17029 13.2017L7.55225 17.538L0.813965 17.8174ZM3.09607 12.3353L0.806763 17.8113L8.16357 13.1951L3.09607 12.3353ZM14.2369 14.9598L14.2383 14.9633L14.2419 14.9595L16.3746 14.8357L16.3802 14.8354L15.9375 13.2263L15.9435 13.22L15.9358 13.2203L15.9347 13.2161L15.9304 13.2205L13.5703 13.3015L14.2346 14.9541L14.2285 14.9603L14.2369 14.9598ZM15.9302 13.2337L14.2513 14.9499L16.3685 14.8269L15.9302 13.2337ZM14.2416 14.947L13.5836 13.3101L15.9214 13.2299L14.2416 14.947Z" fill="#F6851B"/>
<path d="M10.9682 21.6873L9.15173 20.9758L15.4689 22.0377L10.9682 21.6873Z" fill="#C0AD9E"/>
<path fill-rule="evenodd" clip-rule="evenodd" d="M10.9672 21.6918L15.4686 22.0422L15.4697 22.0332L9.15259 20.9714L9.15015 20.98L10.9672 21.6918ZM15.3677 22.0253L10.9692 21.6829L9.19409 20.9875L15.3677 22.0253Z" fill="#C0AD9E"/>
<path d="M3.09336 12.3302L2.05847 11.0042L2.45194 10.6215L3.09336 12.3302Z" fill="#763D16"/>
<path fill-rule="evenodd" clip-rule="evenodd" d="M2.05237 11.0038L3.08972 12.3329L3.09753 12.3286L2.45618 10.6199L2.45374 10.6135L2.05237 11.0038ZM3.07861 12.3041L2.06445 11.0046L2.45007 10.6296L3.07861 12.3041Z" fill="#763D16"/>
<path d="M16.1858 21.2507L15.4689 22.0377L9.15173 20.9758L16.1858 21.2507Z" fill="#D7C1B3"/>
<path fill-rule="evenodd" clip-rule="evenodd" d="M15.4681 22.0422L15.4706 22.0425L16.1957 21.2466L9.15198 20.9713L9.151 20.9803L15.4681 22.0422ZM15.4673 22.0328L9.22253 20.9832L16.1759 21.2549L15.4673 22.0328Z" fill="#D7C1B3"/>
<path d="M16.5253 19.3211L9.15173 20.9758L10.8766 17.3807L16.5253 19.3211Z" fill="#E4761B"/>
<path fill-rule="evenodd" clip-rule="evenodd" d="M9.14771 20.9739L9.14368 20.9823L16.542 19.322L10.8781 17.3763L10.8743 17.3751L9.14771 20.9739ZM9.15991 20.9694L10.8789 17.3863L16.5088 19.3202L9.15991 20.9694Z" fill="#E4761B"/>
<path d="M9.15173 20.9759L16.5253 19.3211L16.1858 21.2507L9.15173 20.9759Z" fill="#D7C1B3"/>
<path fill-rule="evenodd" clip-rule="evenodd" d="M16.1855 21.2552L16.1896 21.2554L16.5298 19.3218L16.531 19.3151L9.15076 20.9714L9.15161 20.9803L16.1855 21.2552ZM16.182 21.246L9.18652 20.9726L16.5197 19.327L16.182 21.246Z" fill="#D7C1B3"/>
<path fill-rule="evenodd" clip-rule="evenodd" d="M1.69189 4.22351L1.93445 8.36853L6.90405 5.39313L1.69189 4.22351ZM1.73499 9.8938L2.4519 10.6215L2.22009 9.39795L1.73499 9.8938Z" fill="#763D16"/>
<path fill-rule="evenodd" clip-rule="evenodd" d="M1.93042 8.37622L1.93005 8.36877L1.68713 4.21777L1.69299 4.21912L6.91626 5.39124L6.90649 5.39703L1.93042 8.37622ZM1.72876 9.89386L2.45923 10.6353L2.22302 9.38861L1.72876 9.89386ZM2.4447 10.6078L1.74146 9.89392L2.21741 9.40741L2.4447 10.6078ZM1.9386 8.36078L1.6969 4.22931L6.89209 5.39514L1.9386 8.36078Z" fill="#763D16"/>
<path d="M12.3696 14.373L13.577 13.3058L13.4045 15.9146L12.3696 14.373Z" fill="#CD6116"/>
<path fill-rule="evenodd" clip-rule="evenodd" d="M12.3636 14.3723L13.4082 15.9281L13.5823 13.2951L12.3636 14.3723ZM13.4009 15.901L12.3756 14.3738L13.5718 13.3165L13.4009 15.901Z" fill="#CD6116"/>
<path d="M13.577 13.3058L12.3696 14.373L10.6124 15.2839L13.577 13.3058Z" fill="#CD6116"/>
<path fill-rule="evenodd" clip-rule="evenodd" d="M10.61 15.2802L10.6146 15.288L12.3722 14.3768L13.5801 13.3092L13.5745 13.3021L10.61 15.2802ZM10.6833 15.2421L13.524 13.3467L12.3671 14.3693L10.6833 15.2421Z" fill="#CD6116"/>
<path d="M19.2258 19.0085L18.897 18.766L16.5415 15.7044L19.2258 19.0085Z" fill="#F6851B"/>
<path fill-rule="evenodd" clip-rule="evenodd" d="M18.8934 18.7687L19.2231 19.0121L19.2292 19.0056L16.545 15.7015L16.538 15.7072L18.8934 18.7687ZM19.1998 18.9836L18.9001 18.7626L16.7538 15.9728L19.1998 18.9836Z" fill="#F6851B"/>
<path d="M10.6125 15.284L8.17615 13.1926L13.577 13.3058L10.6125 15.284Z" fill="#CD6116"/>
<path fill-rule="evenodd" clip-rule="evenodd" d="M10.6096 15.2874L10.6122 15.2896L13.5796 13.3096L13.5916 13.3016L8.1637 13.1878L10.6096 15.2874ZM10.6128 15.2783L8.18872 13.1974L13.5625 13.31L10.6128 15.2783Z" fill="#CD6116"/>
<path d="M13.4045 15.9146L13.577 13.3058L14.24 14.9551L13.4045 15.9146Z" fill="#E4751F"/>
<path fill-rule="evenodd" clip-rule="evenodd" d="M13.5725 13.3055L13.3992 15.9277L14.2434 14.9581L14.2452 14.9561L13.5813 13.3041L13.5725 13.3055ZM13.41 15.9015L13.5803 13.3259L14.2349 14.9543L13.41 15.9015Z" fill="#E4751F"/>
<path d="M1.49792 8.77817L1.93451 8.36853L2.22018 9.39803L1.49792 8.77817Z" fill="#763D16"/>
<path fill-rule="evenodd" clip-rule="evenodd" d="M1.49109 8.77832L2.22852 9.41113L1.93689 8.36011L1.49109 8.77832ZM2.21179 9.38489L1.50464 8.77802L1.93213 8.37695L2.21179 9.38489Z" fill="#763D16"/>
<path d="M13.4045 15.9146L10.6125 15.284L12.3697 14.373L13.4045 15.9146Z" fill="#233447"/>
<path fill-rule="evenodd" clip-rule="evenodd" d="M13.4036 15.919L13.4146 15.9215L12.3711 14.3671L10.6104 15.2799L10.5994 15.2856L13.4036 15.919ZM13.3943 15.9077L10.6255 15.2822L12.368 14.3789L13.3943 15.9077Z" fill="#233447"/>
<path d="M6.90407 5.39319L1.69189 4.22355L3.82096 0.569092L6.90407 5.39319Z" fill="#763D16"/>
<path fill-rule="evenodd" clip-rule="evenodd" d="M6.9032 5.39764L6.91394 5.40002L3.82483 0.566711L3.8208 0.560425L1.68799 4.22131L1.68494 4.22662L6.9032 5.39764ZM6.89441 5.38641L1.69897 4.22052L3.82117 0.57782L6.89441 5.38641Z" fill="#763D16"/>
<path d="M15.469 22.0377L15.7654 22.8462L10.9683 21.6873L15.469 22.0377Z" fill="#C0AD9E"/>
<path fill-rule="evenodd" clip-rule="evenodd" d="M15.7643 22.8506L15.7726 22.8526L15.4731 22.0361L15.4722 22.0334L10.9686 21.6828L10.9672 21.6917L15.7643 22.8506ZM15.7582 22.8398L11.0244 21.6962L15.4656 22.0419L15.7582 22.8398Z" fill="#C0AD9E"/>
<path d="M10.8767 17.3807L10.6125 15.2839L13.4045 15.9146L10.8767 17.3807Z" fill="#F6851B"/>
<path fill-rule="evenodd" clip-rule="evenodd" d="M10.6072 15.2781L10.8729 17.3881L13.4167 15.9127L10.6135 15.2795L10.6072 15.2781ZM10.8802 17.3734L10.6178 15.2898L13.3922 15.9165L10.8802 17.3734Z" fill="#F6851B"/>
<path d="M8.17615 13.1926L10.6125 15.284L10.8766 17.3807L8.17615 13.1926Z" fill="#E4751F"/>
<path fill-rule="evenodd" clip-rule="evenodd" d="M8.17236 13.1951L10.8728 17.3831L10.8811 17.3801L10.6169 15.2834L10.6167 15.2816L8.17908 13.1891L8.17236 13.1951ZM10.8696 17.3615L8.1969 13.2163L10.6083 15.2862L10.8696 17.3615Z" fill="#E4751F"/>
<path fill-rule="evenodd" clip-rule="evenodd" d="M10.8767 17.3807L8.17627 13.1926L7.5564 17.5424L10.8767 17.3807ZM16.3745 14.8312L14.2401 14.9552L18.8971 18.7659L16.3745 14.8312Z" fill="#F6851B"/>
<path fill-rule="evenodd" clip-rule="evenodd" d="M7.55103 17.5471L7.55176 17.5417L8.17334 13.1799L10.8846 17.3848L10.8768 17.3852L7.55103 17.5471ZM14.2281 14.9513L18.8942 18.7694L18.9009 18.7634L16.3783 14.8287L16.3768 14.8265L14.2281 14.9513ZM18.8778 18.7443L14.2518 14.959L16.3721 14.8358L18.8778 18.7443ZM7.56152 17.5376L8.17883 13.2053L10.8685 17.3766L7.56152 17.5376Z" fill="#F6851B"/>
<path d="M14.24 14.9551L16.8919 18.9923L13.4045 15.9146L14.24 14.9551Z" fill="#E4751F"/>
<path fill-rule="evenodd" clip-rule="evenodd" d="M13.3982 15.915L16.8889 18.9957L16.8958 18.9899L14.2439 14.9527L14.2406 14.9477L13.4012 15.9116L13.3982 15.915ZM16.8695 18.9666L13.4109 15.9142L14.2395 14.9626L16.8695 18.9666Z" fill="#E4751F"/>
<path d="M13.4045 15.9146L16.8919 18.9923L16.5254 19.3211L13.4045 15.9146Z" fill="#F6851B"/>
<path fill-rule="evenodd" clip-rule="evenodd" d="M16.5221 19.3242L16.525 19.3275L16.8988 18.9924L13.4076 15.9113L13.4012 15.9177L16.5221 19.3242ZM16.5258 19.3148L13.4656 15.9745L16.8851 18.9924L16.5258 19.3148Z" fill="#F6851B"/>
<path fill-rule="evenodd" clip-rule="evenodd" d="M16.8918 18.9923L18.897 18.7659L14.24 14.9551L16.8918 18.9923ZM10.8766 17.3807L16.5254 19.321L13.4045 15.9146L10.8766 17.3807Z" fill="#F6851B"/>
<path fill-rule="evenodd" clip-rule="evenodd" d="M16.8896 18.9971L16.8881 18.9948L14.2362 14.9576L14.2428 14.9517L18.9082 18.7692L18.8975 18.7704L16.8896 18.9971ZM10.8657 17.3817L16.5239 19.3254L16.5287 19.318L13.4078 15.9115L13.4054 15.9088L10.8743 17.3767L10.8657 17.3817ZM16.51 19.311L10.8875 17.3796L13.4037 15.9203L16.51 19.311ZM16.8942 18.9875L14.26 14.9774L18.8857 18.7626L16.8942 18.9875Z" fill="#F6851B"/>
<path fill-rule="evenodd" clip-rule="evenodd" d="M18.5629 22.3934L19.4252 20.6632L15.7654 22.8462L16.1858 21.2507L15.4689 22.0377L15.7654 22.8462L18.5629 22.3934Z" fill="#C0AD9E"/>
<path fill-rule="evenodd" clip-rule="evenodd" d="M15.7661 22.8613L15.4637 22.0366L15.4656 22.0347L16.1825 21.2477L16.1902 21.2519L15.7726 22.8366L19.4362 20.6514L18.5658 22.3975L18.5636 22.3979L15.769 22.8502L15.7661 22.8613ZM19.4143 20.675L15.7881 22.8379L18.5598 22.3893L19.4143 20.675ZM15.7646 22.8311L15.4741 22.0386L16.1768 21.2674L15.7646 22.8311Z" fill="#C0AD9E"/>
<path fill-rule="evenodd" clip-rule="evenodd" d="M15.7654 22.8462L16.1858 21.2507L16.714 21.0405L19.4252 20.6632L15.7654 22.8462Z" fill="#C0AD9E"/>
<path fill-rule="evenodd" clip-rule="evenodd" d="M15.7539 22.8583L15.7611 22.8445L16.182 21.2474L16.1842 21.2465L16.7108 21.0369L16.7129 21.0361L16.7238 21.0318L16.7222 21.0348L19.4246 20.6587L19.4276 20.6671L15.7539 22.8583ZM16.7169 21.0447L15.7769 22.834L19.4037 20.6708L16.7169 21.0447ZM15.7799 22.8087L16.1896 21.2541L16.7043 21.0493L15.7799 22.8087Z" fill="#C0AD9E"/>
<path d="M18.8969 18.7659L19.5599 19.1702L17.5441 19.4127L18.8969 18.7659Z" fill="#161616"/>
<path fill-rule="evenodd" clip-rule="evenodd" d="M17.5421 19.4086L17.5446 19.4172L19.5604 19.1746L19.5735 19.1731L18.8993 18.762L18.8972 18.7607L17.5421 19.4086ZM17.5708 19.4049L18.8966 18.7711L19.5464 19.1672L17.5708 19.4049Z" fill="#161616"/>
<path fill-rule="evenodd" clip-rule="evenodd" d="M16.8918 18.9923L17.5441 19.4127L18.897 18.7659L16.8918 18.9923ZM19.7648 19.4343L17.3123 19.7307L19.4252 20.6632L19.7648 19.4343Z" fill="#161616"/>
<path fill-rule="evenodd" clip-rule="evenodd" d="M17.5438 19.4179L17.5416 19.4165L16.8788 18.9892L18.8965 18.7614L18.8989 18.77L17.5438 19.4179ZM19.4235 20.6674L19.4282 20.6694L19.7692 19.4355L19.771 19.429L17.2954 19.7282L19.4235 20.6674ZM19.4222 20.6569L17.3292 19.7332L19.7585 19.4396L19.4222 20.6569ZM17.5444 19.4075L16.905 18.9954L18.8707 18.7734L17.5444 19.4075Z" fill="#161616"/>
<path fill-rule="evenodd" clip-rule="evenodd" d="M16.5254 19.3211L16.892 18.9923L17.5441 19.4127L16.5254 19.3211ZM16.714 21.0405L16.1858 21.2507L16.5254 19.3211L16.714 21.0405ZM17.3123 19.7308L16.714 21.0405L19.4252 20.6633L17.3123 19.7308ZM17.3123 19.7308L19.5601 19.1702L19.7649 19.4343L17.3123 19.7308Z" fill="#161616"/>
<path fill-rule="evenodd" clip-rule="evenodd" d="M16.1799 21.2579L16.52 19.3252L16.5146 19.3247L16.8915 18.9866L16.8943 18.9885L17.5465 19.4089L17.5437 19.4172L16.5305 19.3261L16.7167 21.0237L17.3101 19.7248L17.3127 19.726L19.5618 19.1651L19.7732 19.4379L19.7653 19.4388L17.3292 19.7333L19.4417 20.6656L16.7152 21.045L16.1799 21.2579ZM16.5243 19.3531L16.1917 21.2435L16.7091 21.0376L16.5243 19.3531ZM16.7216 21.0349L17.3146 19.7367L19.4088 20.6609L16.7216 21.0349ZM19.5582 19.1753L17.3842 19.7175L19.7563 19.4307L19.5582 19.1753ZM17.5261 19.4066L16.5361 19.3175L16.8923 18.998L17.5261 19.4066Z" fill="#161616"/>
<path fill-rule="evenodd" clip-rule="evenodd" d="M17.5442 19.4128L17.3124 19.7308L16.5254 19.3212L16.714 21.0406L17.3124 19.7308L19.5601 19.1702L17.5442 19.4128Z" fill="#161616"/>
<path fill-rule="evenodd" clip-rule="evenodd" d="M16.7113 21.0574L16.5199 19.3132L16.5275 19.3171L17.3109 19.725L17.5415 19.4085L17.5436 19.4083L19.5594 19.1657L19.561 19.1746L17.3156 19.7346L16.7113 21.0574ZM16.5308 19.329L16.7167 21.0237L17.3043 19.7374L17.3013 19.7382L17.3055 19.7324L16.5308 19.329ZM17.3232 19.7234L17.5465 19.4171L19.4884 19.1834L17.3232 19.7234Z" fill="#161616"/>
<path d="M17.5441 19.4127L17.3123 19.7307L16.5254 19.3211L17.5441 19.4127Z" fill="#161616"/>
<path fill-rule="evenodd" clip-rule="evenodd" d="M17.3102 19.7347L17.3136 19.7366L17.5524 19.4089L16.5256 19.3166L16.5232 19.3251L17.3102 19.7347ZM17.3109 19.725L16.5477 19.3277L17.5356 19.4166L17.3109 19.725Z" fill="#161616"/>
</svg>
