<svg width="143" height="123" viewBox="0 0 143 123" fill="none" xmlns="http://www.w3.org/2000/svg">
<path opacity="0.6" d="M6 119.479V33.479H0V122.146H88.667V119.479H6Z" fill="#662D91"/>
<rect opacity="0.6" x="8.5" y="106.562" width="121.5" height="10.5" fill="#662D91"/>
<rect opacity="0.6" x="114" y="74.0625" width="28.75" height="28.75" fill="#662D91"/>
<path opacity="0.6" d="M89.2139 88.6221C78.2397 88.6221 69.2021 85.8252 62.1016 79.0469C55.8613 73.0215 51.9878 63.3389 51.9878 52.042C52.0957 30.416 66.9429 14.6006 91.2583 14.6006C99.6504 14.6006 106.213 16.4297 109.334 17.9356L107.074 25.5743C102.023 23.3726 96.5506 22.3077 91.043 22.4551C73.3984 22.4551 61.8862 33.4287 61.8862 51.6114C61.8862 70.0088 72.9678 80.876 89.8594 80.876C95.9922 80.876 100.188 80.0147 102.34 78.9395V57.3135H87.6001V49.7822H110.667V0.8125H8.66669V102.812H110.667V84.9289C103.763 87.3144 96.5177 88.5617 89.2139 88.6221Z" fill="#662D91"/>
</svg>
