<svg width="173" height="52" viewBox="0 0 173 52" fill="none" xmlns="http://www.w3.org/2000/svg">
<path d="M166.34 51.0869H7.08809C5.39358 51.1036 3.7636 50.4378 2.56534 49.2395C1.36708 48.0413 0.701317 46.4113 0.718019 44.7168V6.49635C0.701317 4.80184 1.36708 3.17187 2.56534 1.97361C3.7636 0.775346 5.39358 0.109581 7.08809 0.126284H166.34C168.034 0.109578 169.664 0.775343 170.863 1.9736C172.061 3.17186 172.727 4.80184 172.71 6.49635V44.7168C172.727 46.4113 172.061 48.0413 170.863 49.2395C169.664 50.4378 168.034 51.1036 166.34 51.0869Z" fill="#22B573"/>
<path fill-rule="evenodd" clip-rule="evenodd" d="M7.08809 0.126221H166.34C169.854 0.136475 172.7 2.98242 172.71 6.49634V44.7168C172.727 46.4111 172.061 48.0413 170.863 49.2395C169.664 50.4377 168.034 51.1035 166.34 51.0869H7.08809C5.39357 51.1035 3.7636 50.4377 2.56534 49.2395C1.36708 48.0413 0.701309 46.4111 0.718018 44.7168V6.49634C0.72818 2.98242 3.57422 0.136475 7.08809 0.126221ZM171.691 6.49634C171.673 3.54858 169.288 1.16309 166.34 1.14551H7.08809C4.14023 1.16309 1.75485 3.54858 1.73723 6.49634V44.7168C1.75487 47.6646 4.14023 50.05 7.08809 50.0676H166.34C169.288 50.05 171.673 47.6648 171.691 44.7168V6.49634Z" fill="white"/>
<path fill-rule="evenodd" clip-rule="evenodd" d="M89.4333 16.2058C91.0293 17.2573 93.146 17.0322 94.4855 15.6692C95.2451 14.938 95.6614 13.9204 95.6321 12.8665C95.6321 10.9553 94.2799 9.31128 92.4047 8.94238C90.5295 8.57373 88.6555 9.58325 87.9319 11.3523C87.2083 13.1211 87.8373 15.1545 89.4333 16.2058ZM60.2145 15.6689C60.8435 14.9749 61.1651 14.0559 61.1063 13.1211L61.1063 12.6113H57.4117V13.6306H60.2145C60.2194 14.2058 59.9893 14.7581 59.5775 15.1594C59.021 15.7595 58.2294 16.0854 57.4117 16.0513C56.6491 16.0005 55.9281 15.6851 55.3733 15.1594C54.1842 13.9604 54.1842 12.0269 55.3733 10.8279C55.879 10.2322 56.6311 9.90332 57.4117 9.93604C58.197 9.87695 58.9604 10.2112 59.4501 10.8279L60.0871 10.1907C59.7909 9.79688 59.3951 9.48926 58.9405 9.29907C58.4679 9.05322 57.9442 8.92236 57.4117 8.91675C55.6133 8.91016 54.0359 10.1152 53.5692 11.8521C53.1025 13.5886 53.8635 15.4221 55.4229 16.3179C56.9824 17.2136 58.9494 16.9473 60.2145 15.6689ZM63.5269 9.93604H66.9668V9.04419H62.5077V16.6882H66.9668V15.6692H63.5269V13.2485H66.7119V12.3567H63.5269V9.93604ZM71.171 16.6882H70.1518V9.93604H67.986V9.04419H73.3369V9.93604H71.171L71.171 16.6882ZM77.0315 9.04419V16.6882H78.0507V9.04419H77.0315ZM82.255 16.6882H81.3632V9.93604H79.1973V9.04419H84.4208V9.93604H82.255V16.6882ZM89.6443 15.032C90.1847 15.5791 90.9142 15.8982 91.6827 15.9238C92.4633 15.9565 93.2154 15.6277 93.7211 15.032C94.2926 14.4561 94.6131 13.6775 94.6129 12.8662C94.6721 12.0444 94.3419 11.2424 93.7211 10.7004C93.1807 10.1533 92.4512 9.83423 91.6827 9.80859C90.9021 9.77588 90.15 10.105 89.6443 10.7004C89.0728 11.2764 88.7522 12.0549 88.7524 12.8662C88.6932 13.6882 89.0234 14.4902 89.6443 15.032ZM98.1801 9.04419H97.0335V16.6882H97.9253V10.4456L101.875 16.6882H102.894V9.04419H101.875V15.032L98.1801 9.04419Z" fill="white"/>
<path d="M94.4855 15.6692L94.4161 15.5971L94.4142 15.5991L94.4855 15.6692ZM89.4333 16.2058L89.4883 16.1223L89.4883 16.1223L89.4333 16.2058ZM95.6321 12.8665H95.5321L95.5322 12.8692L95.6321 12.8665ZM92.4047 8.94238L92.424 8.84426L92.424 8.84426L92.4047 8.94238ZM87.9319 11.3523L88.0244 11.3902V11.3902L87.9319 11.3523ZM61.1063 13.1211L61.0061 13.1211L61.0065 13.1274L61.1063 13.1211ZM60.2145 15.6689L60.2856 15.7394L60.2886 15.7361L60.2145 15.6689ZM61.1063 12.6113L61.2063 12.6113L61.2063 12.5113H61.1063V12.6113ZM57.4117 12.6113V12.5113H57.3117V12.6113H57.4117ZM57.4117 13.6306H57.3117V13.7306H57.4117V13.6306ZM60.2145 13.6306L60.3145 13.6298L60.3137 13.5306H60.2145V13.6306ZM59.5775 15.1594L59.5076 15.0877L59.5042 15.0914L59.5775 15.1594ZM57.4117 16.0513L57.405 16.1511L57.4075 16.1512L57.4117 16.0513ZM55.3733 15.1594L55.3022 15.2299L55.3045 15.232L55.3733 15.1594ZM55.3733 10.8279L55.4445 10.8985L55.4495 10.8926L55.3733 10.8279ZM57.4117 9.93604L57.4075 10.0366L57.4192 10.0358L57.4117 9.93604ZM59.4501 10.8279L59.3718 10.8901L59.4415 10.9779L59.5208 10.8986L59.4501 10.8279ZM60.0871 10.1907L60.1578 10.2614L60.2192 10.2L60.167 10.1306L60.0871 10.1907ZM58.9405 9.29907L58.8942 9.38809L58.9019 9.39133L58.9405 9.29907ZM57.4117 8.91675L57.4127 8.81675L57.412 8.81675L57.4117 8.91675ZM53.5692 11.8521L53.6658 11.878L53.6658 11.878L53.5692 11.8521ZM55.4229 16.3179L55.4728 16.2312L55.4728 16.2312L55.4229 16.3179ZM66.9668 9.93604V10.036H67.0668V9.93604H66.9668ZM63.5269 9.93604V9.83604H63.4269V9.93604H63.5269ZM66.9668 9.04419H67.0668V8.94419H66.9668V9.04419ZM62.5077 9.04419V8.94419H62.4077V9.04419H62.5077ZM62.5077 16.6882H62.4077V16.7882H62.5077V16.6882ZM66.9668 16.6882V16.7882H67.0668V16.6882H66.9668ZM66.9668 15.6692H67.0668V15.5692H66.9668V15.6692ZM63.5269 15.6692H63.4269V15.7692H63.5269V15.6692ZM63.5269 13.2485V13.1485H63.4269V13.2485H63.5269ZM66.7119 13.2485V13.3485H66.8119V13.2485H66.7119ZM66.7119 12.3567H66.8119V12.2567H66.7119V12.3567ZM63.5269 12.3567H63.4269V12.4567H63.5269V12.3567ZM70.1518 16.6882H70.0518V16.7882H70.1518V16.6882ZM71.171 16.6882V16.7882H71.271V16.6882L71.171 16.6882ZM70.1518 9.93604H70.2518V9.83604H70.1518V9.93604ZM67.986 9.93604H67.886V10.036H67.986V9.93604ZM67.986 9.04419V8.94419H67.886V9.04419H67.986ZM73.3369 9.04419H73.4369V8.94419H73.3369V9.04419ZM73.3369 9.93604V10.036H73.4369V9.93604H73.3369ZM71.171 9.93604V9.83604H71.071V9.93604L71.171 9.93604ZM77.0315 16.6882H76.9315V16.7882H77.0315V16.6882ZM77.0315 9.04419V8.94419H76.9315V9.04419H77.0315ZM78.0507 16.6882V16.7882H78.1507V16.6882H78.0507ZM78.0507 9.04419H78.1507V8.94419H78.0507V9.04419ZM81.3632 16.6882H81.2632V16.7882H81.3632V16.6882ZM82.255 16.6882V16.7882H82.355V16.6882H82.255ZM81.3632 9.93604H81.4632V9.83604H81.3632V9.93604ZM79.1973 9.93604H79.0973V10.036H79.1973V9.93604ZM79.1973 9.04419V8.94419H79.0973V9.04419H79.1973ZM84.4208 9.04419H84.5208V8.94419H84.4208V9.04419ZM84.4208 9.93604V10.036H84.5208V9.93604H84.4208ZM82.255 9.93604V9.83604H82.155V9.93604H82.255ZM91.6827 15.9238L91.6869 15.8239L91.686 15.8239L91.6827 15.9238ZM89.6443 15.032L89.7156 14.9615L89.71 14.9566L89.6443 15.032ZM93.7211 15.032L93.6499 14.9613L93.6448 14.9673L93.7211 15.032ZM94.6129 12.8662L94.5129 12.859L94.5129 12.8662L94.6129 12.8662ZM93.7211 10.7004L93.6497 10.7709L93.6553 10.7758L93.7211 10.7004ZM91.6827 9.80859L91.6785 9.90851L91.6793 9.90854L91.6827 9.80859ZM89.6443 10.7004L89.7155 10.7711L89.7205 10.7652L89.6443 10.7004ZM88.7524 12.8662L88.8524 12.8734L88.8524 12.8662L88.7524 12.8662ZM97.0335 9.04419V8.94419H96.9335V9.04419H97.0335ZM98.1801 9.04419L98.2652 8.99168L98.2359 8.94419H98.1801V9.04419ZM97.0335 16.6882H96.9335V16.7882H97.0335V16.6882ZM97.9253 16.6882V16.7882H98.0253V16.6882H97.9253ZM97.9253 10.4456L98.0098 10.3921L97.8253 10.1004V10.4456H97.9253ZM101.875 16.6882L101.79 16.7417L101.82 16.7882H101.875V16.6882ZM102.894 16.6882V16.7882H102.994V16.6882H102.894ZM102.894 9.04419H102.994V8.94419H102.894V9.04419ZM101.875 9.04419V8.94419H101.775V9.04419H101.875ZM101.875 15.032L101.79 15.0845L101.975 15.3845V15.032H101.875ZM94.4142 15.5991C93.1082 16.9281 91.0444 17.1475 89.4883 16.1223L89.3783 16.2893C91.0142 17.3671 93.1839 17.1364 94.5568 15.7393L94.4142 15.5991ZM95.5322 12.8692C95.5607 13.8951 95.1555 14.8855 94.4162 15.5971L94.5549 15.7412C95.3347 14.9905 95.7621 13.9458 95.7321 12.8637L95.5322 12.8692ZM92.3854 9.0405C94.2137 9.40018 95.5321 11.0031 95.5321 12.8665H95.7321C95.7321 10.9075 94.3461 9.22238 92.424 8.84426L92.3854 9.0405ZM88.0244 11.3902C88.7299 9.66535 90.5571 8.68107 92.3854 9.0405L92.424 8.84426C90.5019 8.46639 88.581 9.50116 87.8393 11.3144L88.0244 11.3902ZM89.4883 16.1223C87.9322 15.0973 87.3189 13.1147 88.0244 11.3902L87.8393 11.3144C87.0976 13.1275 87.7424 15.2118 89.3783 16.2893L89.4883 16.1223ZM61.0065 13.1274C61.0636 14.0352 60.7512 14.9277 60.1404 15.6018L60.2886 15.7361C60.9357 15.022 61.2666 14.0766 61.2061 13.1148L61.0065 13.1274ZM61.0063 12.6113L61.0063 13.1211L61.2063 13.1211L61.2063 12.6113L61.0063 12.6113ZM57.4117 12.7113H61.1063V12.5113H57.4117V12.7113ZM57.5117 13.6306V12.6113H57.3117V13.6306H57.5117ZM60.2145 13.5306H57.4117V13.7306H60.2145V13.5306ZM59.6473 15.231C60.0787 14.8106 60.3197 14.2322 60.3145 13.6298L60.1145 13.6315C60.1192 14.1794 59.9 14.7055 59.5077 15.0878L59.6473 15.231ZM57.4075 16.1512C58.2545 16.1866 59.0744 15.849 59.6508 15.2274L59.5042 15.0914C58.9676 15.67 58.2043 15.9843 57.4159 15.9514L57.4075 16.1512ZM55.3045 15.232C55.8762 15.7737 56.6192 16.0987 57.405 16.151L57.4183 15.9515C56.679 15.9023 55.98 15.5964 55.442 15.0868L55.3045 15.232ZM55.3023 10.7575C54.0745 11.9954 54.0745 13.9919 55.3023 15.2298L55.4443 15.089C54.2938 13.929 54.2938 12.0583 55.4443 10.8983L55.3023 10.7575ZM57.4159 9.83612C56.6045 9.80212 55.8227 10.1439 55.297 10.7632L55.4495 10.8926C55.9353 10.3204 56.6577 10.0045 57.4075 10.0359L57.4159 9.83612ZM59.5284 10.7657C59.0181 10.1231 58.2225 9.77475 57.4042 9.83632L57.4192 10.0358C58.1714 9.97916 58.9027 10.2993 59.3718 10.8901L59.5284 10.7657ZM60.0164 10.12L59.3794 10.7572L59.5208 10.8986L60.1578 10.2614L60.0164 10.12ZM58.9019 9.39133C59.3402 9.57467 59.7217 9.8712 60.0072 10.2508L60.167 10.1306C59.8601 9.72255 59.4501 9.40385 58.9791 9.20682L58.9019 9.39133ZM57.4106 9.01674C57.9275 9.02219 58.4357 9.14919 58.8943 9.38778L58.9866 9.21036C58.5001 8.95725 57.961 8.82253 57.4127 8.81675L57.4106 9.01674ZM53.6658 11.878C54.1207 10.185 55.6583 9.01032 57.4113 9.01675L57.412 8.81675C55.5683 8.80999 53.9511 10.0455 53.4726 11.8261L53.6658 11.878ZM55.4728 16.2312C53.9527 15.358 53.2109 13.5708 53.6658 11.878L53.4726 11.8261C52.9942 13.6065 53.7744 15.4862 55.3731 16.4046L55.4728 16.2312ZM60.1434 15.5986C58.9102 16.8447 56.9928 17.1043 55.4728 16.2312L55.3731 16.4046C56.9719 17.3229 58.9886 17.0499 60.2856 15.7393L60.1434 15.5986ZM66.9668 9.83604H63.5269V10.036H66.9668V9.83604ZM66.8668 9.04419V9.93604H67.0668V9.04419H66.8668ZM62.5077 9.14419H66.9668V8.94419H62.5077V9.14419ZM62.6077 16.6882V9.04419H62.4077V16.6882H62.6077ZM66.9668 16.5882H62.5077V16.7882H66.9668V16.5882ZM66.8668 15.6692V16.6882H67.0668V15.6692H66.8668ZM63.5269 15.7692H66.9668V15.5692H63.5269V15.7692ZM63.4269 13.2485V15.6692H63.6269V13.2485H63.4269ZM66.7119 13.1485H63.5269V13.3485H66.7119V13.1485ZM66.6119 12.3567V13.2485H66.8119V12.3567H66.6119ZM63.5269 12.4567H66.7119V12.2567H63.5269V12.4567ZM63.4269 9.93604V12.3567H63.6269V9.93604H63.4269ZM70.1518 16.7882H71.171V16.5882H70.1518V16.7882ZM70.0518 9.93604V16.6882H70.2518V9.93604H70.0518ZM67.986 10.036H70.1518V9.83604H67.986V10.036ZM67.886 9.04419V9.93604H68.086V9.04419H67.886ZM73.3369 8.94419H67.986V9.14419H73.3369V8.94419ZM73.4369 9.93604V9.04419H73.2369V9.93604H73.4369ZM71.171 10.036H73.3369V9.83604H71.171V10.036ZM71.271 16.6882L71.271 9.93603L71.071 9.93604L71.071 16.6882L71.271 16.6882ZM77.1315 16.6882V9.04419H76.9315V16.6882H77.1315ZM78.0507 16.5882H77.0315V16.7882H78.0507V16.5882ZM77.9507 9.04419V16.6882H78.1507V9.04419H77.9507ZM77.0315 9.14419H78.0507V8.94419H77.0315V9.14419ZM81.3632 16.7882H82.255V16.5882H81.3632V16.7882ZM81.2632 9.93604V16.6882H81.4632V9.93604H81.2632ZM79.1973 10.036H81.3632V9.83604H79.1973V10.036ZM79.0973 9.04419V9.93604H79.2973V9.04419H79.0973ZM84.4208 8.94419H79.1973V9.14419H84.4208V8.94419ZM84.5208 9.93604V9.04419H84.3208V9.93604H84.5208ZM82.255 10.036H84.4208V9.83604H82.255V10.036ZM82.355 16.6882V9.93604H82.155V16.6882H82.355ZM91.686 15.8239C90.943 15.7991 90.2378 15.4906 89.7154 14.9617L89.5731 15.1023C90.1315 15.6676 90.8853 15.9973 91.6793 16.0238L91.686 15.8239ZM93.6448 14.9673C93.1591 15.5395 92.4367 15.8553 91.6869 15.8239L91.6785 16.0237C92.4898 16.0577 93.2716 15.7159 93.7973 15.0967L93.6448 14.9673ZM94.5129 12.8662C94.5131 13.6511 94.203 14.4044 93.6501 14.9615L93.7921 15.1024C94.3822 14.5078 94.7131 13.7039 94.7129 12.8662L94.5129 12.8662ZM93.6553 10.7758C94.2525 11.2971 94.5701 12.0686 94.5131 12.859L94.7126 12.8734C94.7741 12.0203 94.4313 11.1877 93.7868 10.6251L93.6553 10.7758ZM91.6793 9.90854C92.4223 9.93332 93.1275 10.2418 93.6499 10.7707L93.7922 10.6302C93.2338 10.0648 92.4801 9.73514 91.686 9.70865L91.6793 9.90854ZM89.7205 10.7652C90.2062 10.1932 90.9287 9.87708 91.6785 9.90851L91.6869 9.70868C90.8755 9.67468 90.0937 10.0168 89.568 10.6357L89.7205 10.7652ZM88.8524 12.8662C88.8522 12.0813 89.1623 11.3281 89.7152 10.7709L89.5733 10.63C88.9832 11.2247 88.6522 12.0286 88.6524 12.8662L88.8524 12.8662ZM89.71 14.9566C89.1129 14.4355 88.7952 13.6641 88.8522 12.8734L88.6527 12.859C88.5912 13.7124 88.934 14.5449 89.5785 15.1073L89.71 14.9566ZM97.0335 9.14419H98.1801V8.94419H97.0335V9.14419ZM97.1335 16.6882V9.04419H96.9335V16.6882H97.1335ZM97.9253 16.5882H97.0335V16.7882H97.9253V16.5882ZM97.8253 10.4456V16.6882H98.0253V10.4456H97.8253ZM101.959 16.6348L98.0098 10.3921L97.8408 10.499L101.79 16.7417L101.959 16.6348ZM102.894 16.5882H101.875V16.7882H102.894V16.5882ZM102.794 9.04419V16.6882H102.994V9.04419H102.794ZM101.875 9.14419H102.894V8.94419H101.875V9.14419ZM101.975 15.032V9.04419H101.775V15.032H101.975ZM98.095 9.0967L101.79 15.0845L101.96 14.9795L98.2652 8.99168L98.095 9.0967Z" fill="white"/>
<path fill-rule="evenodd" clip-rule="evenodd" d="M61.4885 29.5559V31.8491H66.9668C66.8878 32.9424 66.4384 33.9761 65.6928 34.7793C64.5835 35.8933 63.0595 36.4937 61.4885 36.4355C59.8733 36.4517 58.3213 35.8083 57.1912 34.6543C56.0611 33.5 55.4505 31.9348 55.5007 30.3203C55.4724 28.7119 56.0901 27.1594 57.2155 26.0103C58.3408 24.8608 59.88 24.2107 61.4885 24.2051C63.0462 24.22 64.5435 24.8098 65.6928 25.8613L67.349 24.2051C65.8119 22.7195 63.7535 21.8962 61.6159 21.9119C58.5817 21.8662 55.7583 23.4587 54.2279 26.0791C52.6975 28.6995 52.6975 31.9412 54.2279 34.5615C55.7583 37.1819 58.5817 38.7744 61.6159 38.7288C63.8354 38.8521 65.9908 37.9617 67.4764 36.3081C68.8212 34.8547 69.5516 32.9373 69.5148 30.9573C69.5418 30.4866 69.4988 30.0142 69.3874 29.5559H61.4885ZM75.6301 27.8997C74.1674 27.8669 72.7549 28.4336 71.7204 29.4683C70.6858 30.5027 70.1192 31.9153 70.1518 33.3779C70.1409 34.8342 70.7146 36.2339 71.7443 37.2637C72.7741 38.2935 74.1738 38.8672 75.6301 38.8562C77.0928 38.8889 78.5052 38.3223 79.5398 37.2876C80.5743 36.2532 81.141 34.8406 81.1083 33.3779C81.163 31.9089 80.6034 30.4836 79.5639 29.4441C78.5244 28.4045 77.0991 27.845 75.6301 27.8997ZM83.5687 29.4683C84.6032 28.4336 86.0157 27.8669 87.4784 27.8997C88.9474 27.845 90.3728 28.4045 91.4122 29.4441C92.4517 30.4836 93.0113 31.9089 92.9567 33.3779C92.9893 34.8406 92.4227 36.2532 91.3881 37.2876C90.3536 38.3223 88.9411 38.8889 87.4784 38.8562C86.0222 38.8672 84.6224 38.2935 83.5927 37.2637C82.5629 36.2339 81.9893 34.8342 82.0002 33.3779C81.9675 31.9153 82.5341 30.5027 83.5687 29.4683ZM84.4208 33.2507C84.4208 34.9829 85.7516 36.4248 87.4784 36.5632C88.3255 36.5359 89.1262 36.1702 89.701 35.5474C90.2759 34.9246 90.5767 34.0972 90.536 33.2507C90.5987 32.3987 90.3054 31.5588 89.7259 30.9312C89.1465 30.3032 88.3327 29.9438 87.4784 29.9382C85.7516 30.0767 84.4208 31.5183 84.4208 33.2507ZM72.5725 33.2507C72.5725 34.9829 73.9033 36.4248 75.6301 36.5632C76.4771 36.5361 77.2779 36.1702 77.8527 35.5474C78.4275 34.9246 78.7284 34.0972 78.6877 33.2507C78.7504 32.3987 78.457 31.5588 77.8776 30.9312C77.2981 30.3032 76.4844 29.9438 75.6301 29.9382C73.9033 30.0767 72.5725 31.5183 72.5725 33.2507ZM114.742 27.8997C116.847 27.9541 118.687 29.3342 119.329 31.3396L119.584 31.9766L112.322 35.0342C112.782 36.0896 113.847 36.7493 114.997 36.6904C116.097 36.6904 117.114 36.1089 117.673 35.1616L119.456 36.4355C118.487 37.9583 116.802 38.8733 114.997 38.8562C113.554 38.8621 112.17 38.2825 111.162 37.25C110.153 36.2175 109.607 34.8206 109.646 33.3779C109.55 31.9641 110.043 30.5735 111.009 29.5359C111.974 28.4983 113.325 27.906 114.742 27.8997ZM111.939 33.1233C111.885 31.4875 113.113 30.0918 114.742 29.9382C115.582 29.9104 116.368 30.3523 116.781 31.085L111.939 33.1233ZM108.372 38.3464H105.952V22.4214H108.372V38.3464ZM102.13 29.0461C101.359 28.2517 100.306 27.7937 99.1994 27.7722C96.2728 27.9065 93.9707 30.3208 93.9759 33.2505C93.9557 34.6536 94.4955 36.0071 95.4758 37.0112C96.4561 38.0154 97.7961 38.5876 99.1994 38.6013C100.276 38.6096 101.301 38.1436 102.002 37.3274H102.13V38.0918C102.13 40.1301 100.983 41.2769 99.1994 41.2769C97.9911 41.2761 96.9164 40.5085 96.5239 39.3657L94.4855 40.2576C95.3154 42.1934 97.2206 43.4468 99.3268 43.4426C102.13 43.4426 104.423 41.7864 104.423 37.8369V28.1543H102.13V29.0461ZM96.2691 33.2507C96.2691 34.9832 97.5999 36.4248 99.3268 36.5632C101 36.3574 102.257 34.9365 102.257 33.2507C102.257 31.5649 101 30.1438 99.3268 29.9382C97.5999 30.0767 96.2691 31.5183 96.2691 33.2507ZM130.413 22.4216H124.68V38.3467H127.1V32.3589H130.413C132.247 32.4507 133.983 31.5242 134.928 29.949C135.872 28.374 135.872 26.4065 134.928 24.8313C133.983 23.2561 132.247 22.3298 130.413 22.4216ZM127.1 30.0654H130.54C132.064 30.0076 133.285 28.7859 133.343 27.2627C133.277 25.7637 132.041 24.5833 130.54 24.5872H127.1V30.0654ZM145.191 27.7722C143.424 27.6309 141.752 28.5935 140.987 30.1929L143.153 31.0847C143.585 30.3083 144.434 29.8591 145.319 29.938C146.571 29.844 147.684 30.7339 147.867 31.9766V32.104C147.126 31.6919 146.294 31.4729 145.446 31.4668C143.153 31.4668 140.86 32.741 140.86 35.0342C140.902 36.0339 141.344 36.9746 142.087 37.6453C142.829 38.3159 143.81 38.6604 144.809 38.6013C146.021 38.6418 147.172 38.0667 147.867 37.0725H147.994V38.3464H150.287V32.2312C150.094 29.6016 147.824 27.615 145.191 27.7722ZM143.026 35.1616C143.026 36.1809 144.172 36.563 144.937 36.563C146.362 36.498 147.539 35.4277 147.739 34.0149C147.066 33.6821 146.325 33.5078 145.574 33.5054C144.427 33.5054 143.026 33.8877 143.026 35.1616ZM158.314 28.1545L155.638 35.0342H155.511L152.708 28.1545H150.16L154.364 37.8372L151.944 43.188H154.364L160.862 28.1545H158.314ZM139.331 38.3464H136.91V22.4214H139.331V38.3464Z" fill="white"/>
<path d="M13.9678 9.6814C13.5746 10.1881 13.392 10.827 13.4582 11.465V39.6207C13.4305 40.2755 13.659 40.9152 14.0952 41.4044L14.2226 41.5318L30.0203 25.734V25.4792L13.9678 9.6814Z" fill="url(#paint0_linear)"/>
<path d="M35.1164 31.0847L29.8929 25.8613V25.4791L35.1164 20.2556L35.2438 20.383L41.4865 23.9503C43.2701 24.9695 43.2701 26.6257 41.4865 27.6449L35.1164 31.0847Z" fill="url(#paint1_linear)"/>
<path d="M35.2438 30.9573L29.893 25.6064L13.9678 41.5316C14.6048 42.1686 15.4966 42.1686 16.6432 41.659L35.2438 30.9573Z" fill="url(#paint2_linear)"/>
<path d="M35.2438 20.2556L16.6432 9.68125C15.841 9.06115 14.7074 9.11514 13.9678 9.80865L29.893 25.6064L35.2438 20.2556Z" fill="url(#paint3_linear)"/>
<path opacity="0.2" d="M35.1164 30.8301L16.6432 41.277C15.8928 41.8569 14.8456 41.8569 14.0952 41.277L13.9678 41.4044L14.0952 41.5318C14.8456 42.1117 15.8928 42.1117 16.6432 41.5318L35.1164 30.8301Z" fill="black"/>
<path opacity="0.12" fill-rule="evenodd" clip-rule="evenodd" d="M35.1164 30.8298L41.4865 27.2627C42.087 26.8625 42.5303 26.4619 42.6927 25.9998C42.5255 26.6157 42.0859 27.1321 41.4865 27.3901L35.2438 30.9573L35.1164 30.8298ZM42.7605 25.6064C42.7605 25.7429 42.7371 25.8735 42.6927 25.9998C42.7273 25.8723 42.7502 25.741 42.7605 25.6064ZM13.4582 39.4932C13.392 40.1311 13.5746 40.77 13.9678 41.2769H13.9889C14.0228 41.3203 14.0582 41.3628 14.0952 41.4043V41.2769H13.9889C13.6221 40.8066 13.4329 40.22 13.4582 39.6206V39.4932Z" fill="black"/>
<path opacity="0.25" d="M16.6432 9.80882L41.4865 23.9504C42.2509 24.46 42.7605 24.9696 42.7605 25.6066C42.7004 24.8214 42.2097 24.1344 41.4865 23.823L16.6432 9.68142C14.8596 8.66221 13.4582 9.42662 13.4582 11.465V11.5924C13.4582 9.68142 14.8596 8.78959 16.6432 9.80882Z" fill="white"/>
<defs>
<linearGradient id="paint0_linear" x1="22.9222" y1="-9.32449" x2="-2.39306" y2="-2.46863" gradientUnits="userSpaceOnUse">
<stop stop-color="#00A0FF"/>
<stop offset="0.007" stop-color="#00A1FF"/>
<stop offset="0.26" stop-color="#00BEFF"/>
<stop offset="0.512" stop-color="#00D2FF"/>
<stop offset="0.76" stop-color="#00DFFF"/>
<stop offset="1" stop-color="#00E3FF"/>
</linearGradient>
<linearGradient id="paint1_linear" x1="43.823" y1="12.7636" x2="12.9958" y2="12.7636" gradientUnits="userSpaceOnUse">
<stop stop-color="#FFE000"/>
<stop offset="0.409" stop-color="#FFBD00"/>
<stop offset="0.775" stop-color="#FFA500"/>
<stop offset="1" stop-color="#FF9C00"/>
</linearGradient>
<linearGradient id="paint2_linear" x1="13.5492" y1="17.3299" x2="-6.79073" y2="51.4786" gradientUnits="userSpaceOnUse">
<stop stop-color="#FF3A44"/>
<stop offset="1" stop-color="#C31162"/>
</linearGradient>
<linearGradient id="paint3_linear" x1="1.5482" y1="5.37385" x2="10.5713" y2="20.6411" gradientUnits="userSpaceOnUse">
<stop stop-color="#32A071"/>
<stop offset="0.069" stop-color="#2DA771"/>
<stop offset="0.476" stop-color="#15CF74"/>
<stop offset="0.801" stop-color="#06E775"/>
<stop offset="1" stop-color="#00F076"/>
</linearGradient>
</defs>
</svg>
