<svg width="174" height="106" viewBox="0 0 174 106" fill="none" xmlns="http://www.w3.org/2000/svg">
<g opacity="0.6">
<path fill-rule="evenodd" clip-rule="evenodd" d="M107.284 19.2605C110.168 23.6804 111.702 28.8447 111.699 34.1226C111.704 39.4043 110.17 44.573 107.284 48.9966L118.002 59.7061L109.951 67.7568L99.2329 57.0383C90.1994 62.9294 78.5392 62.9294 69.5057 57.0383L58.7872 67.7568L50.7365 59.7061L61.455 48.9875C55.5638 39.9541 55.5638 28.2939 61.455 19.2605L50.7365 8.54199L58.7872 0.491211L69.5146 11.2097C78.548 5.3186 90.2083 5.3186 99.2418 11.2097L109.951 0.491211L118.002 8.54199L107.284 19.2605ZM78.3965 19.3088C72.3604 21.7483 68.4136 27.6123 68.4262 34.1226C68.415 39.5269 71.1476 44.5674 75.6823 47.5071C80.217 50.447 85.9338 50.8843 90.8629 48.6682L80.3425 38.1509L88.3962 30.0974L98.9135 40.6294C101.583 34.6914 100.374 27.7271 95.8598 23.0359C91.3455 18.3447 84.4326 16.8694 78.3965 19.3088Z" fill="#052892"/>
<path fill-rule="evenodd" clip-rule="evenodd" d="M15.4275 99.113C19.0152 97.3914 21.2494 93.7151 21.1256 89.7378C21.1256 84.0159 16.4982 79.3718 10.7765 79.3513C5.05484 79.3308 0.394196 83.9417 0.35318 89.6633C0.312164 95.3848 4.90622 100.062 10.6276 100.124H10.7118L13.3784 103.66L17.3643 101.639L15.4275 99.113ZM16.3819 89.7378C16.3819 93.1624 14.3609 96.0535 10.6276 96.0535C6.86627 96.0535 4.84528 93.1624 4.87332 89.7378C4.84528 86.3132 6.86627 83.4221 10.6276 83.4221C14.3609 83.4221 16.3819 86.3132 16.3819 89.7378ZM28.4799 99.927C25.2238 99.927 23.4835 97.906 23.4835 94.3972V86.0325H27.8343V93.4429C27.8343 95.2954 28.4518 96.3059 30.0799 96.3059C31.9044 96.3059 32.6903 95.127 32.6903 93.3025V86.0325H36.9569V99.562H32.6903V97.6252C31.8604 99.1526 30.2135 100.053 28.4799 99.927ZM39.5394 92.7974C39.5394 96.8674 41.8692 99.927 45.9112 99.927C47.646 99.9902 49.2829 99.1235 50.2059 97.6533V99.562H54.4725V86.0325H50.2059V87.9695C49.3352 86.4692 47.6996 85.5811 45.9673 85.6677C42.0376 85.6677 39.5394 88.7554 39.5394 92.7974ZM47.1462 96.3621C49.2795 96.3621 50.3743 94.762 50.3743 92.7971C50.3743 90.8604 49.2795 89.2605 47.1462 89.2605C46.2322 89.2512 45.3577 89.6318 44.7415 90.3071C44.1253 90.9822 43.8259 91.8879 43.9183 92.7971C43.9183 94.8462 45.1533 96.3621 47.1462 96.3621ZM62.3319 86.0325H58.0372V99.562H62.3319V92.4885C62.3319 90.4114 63.2302 89.2886 64.9424 89.2886C66.6827 89.2886 67.3283 90.3271 67.3283 92.6008V99.562H71.651V91.1973C71.651 87.52 69.9949 85.6675 66.7108 85.6675C64.9213 85.522 63.211 86.4319 62.3319 87.9973V86.0325ZM82.1771 96.2219C82.6743 96.2258 83.1713 96.1978 83.6649 96.1377V99.5623C82.7186 99.7188 81.7607 99.7939 80.8018 99.7866C78.7807 99.7866 76.0018 99.3376 76.0018 94.8184V89.429H73.8685V86.0325H76.0018V82.0186H80.2965V86.0325H83.3561V89.429H80.2965V93.9202C80.2965 95.9131 81.1105 96.2219 82.1771 96.2219ZM85.1525 95.4922C85.1525 98.0464 87.5946 99.9832 91.5524 99.9832C95.2576 99.9832 97.4752 98.1025 97.4752 95.3237C97.4752 93.387 96.1278 92.1238 94.0507 91.5623L90.8507 90.6921C90.1208 90.4956 89.6998 90.1028 89.6998 89.4851C89.6998 88.8115 90.3174 88.3623 91.2437 88.3623C92.3945 88.3623 93.0963 88.8958 93.0963 89.8501H97.3348C97.3348 87.2957 95.2576 85.6396 91.2998 85.6396C87.7349 85.6396 85.5175 87.408 85.5175 89.9343C85.5175 91.8711 86.6683 93.2747 88.9139 93.8359L92.2261 94.678C92.8059 94.7424 93.236 95.2461 93.2085 95.8289C93.2085 96.615 92.5629 97.092 91.6366 97.092C90.3173 97.092 89.4191 96.4185 89.4191 95.4922H85.1525ZM107.243 96.2219C107.741 96.2258 108.237 96.1978 108.731 96.1377V99.5623C107.785 99.7188 106.827 99.7939 105.868 99.7866C103.847 99.7866 101.068 99.3376 101.068 94.8184V89.429H98.9348V86.0325H101.068V82.0186H105.363V86.0325H108.422V89.429H105.363V93.9202C105.363 95.9131 106.177 96.2219 107.243 96.2219ZM110.219 92.7974C110.219 96.8674 112.549 99.927 116.591 99.927C118.325 99.9902 119.962 99.1235 120.885 97.6533V99.562H125.152V86.0325H120.885V87.9695C120.015 86.4692 118.379 85.5811 116.647 85.6677C112.717 85.6677 110.219 88.7554 110.219 92.7974ZM117.826 96.3621C119.959 96.3621 121.054 94.762 121.054 92.7971C121.054 90.8604 119.959 89.2605 117.826 89.2605C116.912 89.2512 116.037 89.6318 115.421 90.3071C114.805 90.9822 114.505 91.8879 114.598 92.7971C114.598 94.8462 115.833 96.3621 117.826 96.3621ZM133.011 86.0325H128.717L128.717 99.5623H133.011V92.6008C133.011 90.0466 133.938 89.2886 135.313 89.2886C136.632 89.2886 137.306 90.0466 137.306 91.9272V99.5623H141.629V92.6008C141.629 90.0466 142.555 89.2886 143.902 89.2886C145.222 89.2886 145.923 90.0747 145.923 91.9553V99.5623H150.246V91.1694C150.246 88.3342 149.32 85.6677 145.446 85.6677C143.647 85.6096 141.971 86.5781 141.123 88.1658C140.534 86.7344 139.299 85.6677 136.885 85.6677C135.241 85.5896 133.713 86.509 133.011 87.9976V86.0325ZM153.642 86.0325H157.937V87.9692C158.893 86.4731 160.57 85.5969 162.344 85.6675C166.049 85.6675 168.576 88.5308 168.576 92.7974C168.576 97.0356 165.965 99.927 162.232 99.927C160.496 99.9958 158.856 99.1279 157.937 97.6533V105.176H153.642V86.0325ZM164.501 94.3892C163.851 95.7058 162.46 96.489 160.997 96.3621C160.076 96.3689 159.196 95.9846 158.575 95.3047C157.954 94.625 157.651 93.7136 157.741 92.7974C157.746 91.3289 158.652 90.0144 160.022 89.4861C161.392 88.9575 162.946 89.3235 163.936 90.4077C164.927 91.4919 165.151 93.0725 164.501 94.3892Z" fill="white"/>
<path fill-rule="evenodd" clip-rule="evenodd" d="M169.094 85.1169V87.5923H169.692V85.1169H170.387V84.585H168.407V85.1169H169.094ZM170.786 84.585V87.5923H171.377V85.1833L172.131 87.5923H172.655L173.409 85.1833V87.5923H174V84.585H172.995L172.397 86.5503L171.791 84.585H170.786Z" fill="white"/>
</g>
</svg>
