<svg width="25" height="20" viewBox="0 0 25 20" fill="none" xmlns="http://www.w3.org/2000/svg">
<path d="M24.8063 2.61023C23.891 3.00519 22.9235 3.26595 21.9337 3.38444C22.9799 2.77827 23.764 1.80531 24.1338 0.654094C23.1511 1.23366 22.0762 1.6404 20.956 1.85662C19.5534 0.390167 17.4053 -0.0863893 15.5142 0.649385C13.6231 1.38516 12.3619 3.18819 12.3193 5.21693C12.3251 5.59444 12.3729 5.97012 12.4619 6.33703C8.46201 6.15438 4.72549 4.29017 2.17406 1.20426C0.825494 3.44413 1.50253 6.35033 3.70215 7.7636C2.91057 7.74194 2.13546 7.53248 1.44071 7.15247V7.21429C1.43937 7.82182 1.55722 8.4237 1.78758 8.98585C2.4148 10.5547 3.79564 11.6977 5.454 12.0209C5.02363 12.1448 4.57779 12.2066 4.12995 12.2046C3.81506 12.2008 3.50127 12.1666 3.19295 12.1024C3.8671 14.1154 5.73551 15.486 7.85805 15.5246C6.08509 16.8948 3.90521 17.6334 1.66451 17.6232C1.2632 17.6232 0.86215 17.6025 0.462952 17.5614C2.75895 18.9993 5.4133 19.762 8.1224 19.7621C14.7858 19.8954 20.606 15.2802 21.9948 8.76181C22.2128 7.78549 22.3221 6.78808 22.321 5.78773V5.15598C23.2876 4.45422 24.128 3.59339 24.8063 2.61022L24.8063 2.61023Z" fill="white"/>
</svg>
